%TF.GenerationSoftware,KiCad,Pcbnew,9.0.4*%
%TF.CreationDate,2026-07-25T18:59:20+02:00*%
%TF.ProjectId,detector-hat,64657465-6374-46f7-922d-6861742e6b69,rev?*%
%TF.SameCoordinates,Original*%
%TF.FileFunction,Legend,Bot*%
%TF.FilePolarity,Positive*%
%FSLAX46Y46*%
G04 Gerber Fmt 4.6, Leading zero omitted, Abs format (unit mm)*
G04 Created by KiCad (PCBNEW 9.0.4) date 2026-07-25 18:59:20*
%MOMM*%
%LPD*%
G01*
G04 APERTURE LIST*
%ADD10C,0.150000*%
%ADD11C,1.000000*%
%ADD12C,0.120000*%
G04 APERTURE END LIST*
D10*
X20565713Y-46254819D02*
X20565713Y-45254819D01*
X20565713Y-45254819D02*
X19994285Y-46254819D01*
X19994285Y-46254819D02*
X19994285Y-45254819D01*
X38428095Y-45302438D02*
X38523333Y-45254819D01*
X38523333Y-45254819D02*
X38666190Y-45254819D01*
X38666190Y-45254819D02*
X38809047Y-45302438D01*
X38809047Y-45302438D02*
X38904285Y-45397676D01*
X38904285Y-45397676D02*
X38951904Y-45492914D01*
X38951904Y-45492914D02*
X38999523Y-45683390D01*
X38999523Y-45683390D02*
X38999523Y-45826247D01*
X38999523Y-45826247D02*
X38951904Y-46016723D01*
X38951904Y-46016723D02*
X38904285Y-46111961D01*
X38904285Y-46111961D02*
X38809047Y-46207200D01*
X38809047Y-46207200D02*
X38666190Y-46254819D01*
X38666190Y-46254819D02*
X38570952Y-46254819D01*
X38570952Y-46254819D02*
X38428095Y-46207200D01*
X38428095Y-46207200D02*
X38380476Y-46159580D01*
X38380476Y-46159580D02*
X38380476Y-45826247D01*
X38380476Y-45826247D02*
X38570952Y-45826247D01*
D11*
X48904761Y-148581333D02*
X45095238Y-148581333D01*
X48904761Y-80131333D02*
X45095238Y-80131333D01*
X46999999Y-82036095D02*
X46999999Y-78226571D01*
D10*
X23081904Y-46254819D02*
X23081904Y-45254819D01*
X23081904Y-45254819D02*
X22700952Y-45254819D01*
X22700952Y-45254819D02*
X22605714Y-45302438D01*
X22605714Y-45302438D02*
X22558095Y-45350057D01*
X22558095Y-45350057D02*
X22510476Y-45445295D01*
X22510476Y-45445295D02*
X22510476Y-45588152D01*
X22510476Y-45588152D02*
X22558095Y-45683390D01*
X22558095Y-45683390D02*
X22605714Y-45731009D01*
X22605714Y-45731009D02*
X22700952Y-45778628D01*
X22700952Y-45778628D02*
X23081904Y-45778628D01*
X41420476Y-45254819D02*
X41896666Y-45254819D01*
X41896666Y-45254819D02*
X41944285Y-45731009D01*
X41944285Y-45731009D02*
X41896666Y-45683390D01*
X41896666Y-45683390D02*
X41801428Y-45635771D01*
X41801428Y-45635771D02*
X41563333Y-45635771D01*
X41563333Y-45635771D02*
X41468095Y-45683390D01*
X41468095Y-45683390D02*
X41420476Y-45731009D01*
X41420476Y-45731009D02*
X41372857Y-45826247D01*
X41372857Y-45826247D02*
X41372857Y-46064342D01*
X41372857Y-46064342D02*
X41420476Y-46159580D01*
X41420476Y-46159580D02*
X41468095Y-46207200D01*
X41468095Y-46207200D02*
X41563333Y-46254819D01*
X41563333Y-46254819D02*
X41801428Y-46254819D01*
X41801428Y-46254819D02*
X41896666Y-46207200D01*
X41896666Y-46207200D02*
X41944285Y-46159580D01*
X41087142Y-45254819D02*
X40753809Y-46254819D01*
X40753809Y-46254819D02*
X40420476Y-45254819D01*
X56760476Y-46254819D02*
X57093809Y-45778628D01*
X57331904Y-46254819D02*
X57331904Y-45254819D01*
X57331904Y-45254819D02*
X56950952Y-45254819D01*
X56950952Y-45254819D02*
X56855714Y-45302438D01*
X56855714Y-45302438D02*
X56808095Y-45350057D01*
X56808095Y-45350057D02*
X56760476Y-45445295D01*
X56760476Y-45445295D02*
X56760476Y-45588152D01*
X56760476Y-45588152D02*
X56808095Y-45683390D01*
X56808095Y-45683390D02*
X56855714Y-45731009D01*
X56855714Y-45731009D02*
X56950952Y-45778628D01*
X56950952Y-45778628D02*
X57331904Y-45778628D01*
X59348095Y-45302438D02*
X59443333Y-45254819D01*
X59443333Y-45254819D02*
X59586190Y-45254819D01*
X59586190Y-45254819D02*
X59729047Y-45302438D01*
X59729047Y-45302438D02*
X59824285Y-45397676D01*
X59824285Y-45397676D02*
X59871904Y-45492914D01*
X59871904Y-45492914D02*
X59919523Y-45683390D01*
X59919523Y-45683390D02*
X59919523Y-45826247D01*
X59919523Y-45826247D02*
X59871904Y-46016723D01*
X59871904Y-46016723D02*
X59824285Y-46111961D01*
X59824285Y-46111961D02*
X59729047Y-46207200D01*
X59729047Y-46207200D02*
X59586190Y-46254819D01*
X59586190Y-46254819D02*
X59490952Y-46254819D01*
X59490952Y-46254819D02*
X59348095Y-46207200D01*
X59348095Y-46207200D02*
X59300476Y-46159580D01*
X59300476Y-46159580D02*
X59300476Y-45826247D01*
X59300476Y-45826247D02*
X59490952Y-45826247D01*
X40785714Y-153931009D02*
X40642857Y-153978628D01*
X40642857Y-153978628D02*
X40595238Y-154026247D01*
X40595238Y-154026247D02*
X40547619Y-154121485D01*
X40547619Y-154121485D02*
X40547619Y-154264342D01*
X40547619Y-154264342D02*
X40595238Y-154359580D01*
X40595238Y-154359580D02*
X40642857Y-154407200D01*
X40642857Y-154407200D02*
X40738095Y-154454819D01*
X40738095Y-154454819D02*
X41119047Y-154454819D01*
X41119047Y-154454819D02*
X41119047Y-153454819D01*
X41119047Y-153454819D02*
X40785714Y-153454819D01*
X40785714Y-153454819D02*
X40690476Y-153502438D01*
X40690476Y-153502438D02*
X40642857Y-153550057D01*
X40642857Y-153550057D02*
X40595238Y-153645295D01*
X40595238Y-153645295D02*
X40595238Y-153740533D01*
X40595238Y-153740533D02*
X40642857Y-153835771D01*
X40642857Y-153835771D02*
X40690476Y-153883390D01*
X40690476Y-153883390D02*
X40785714Y-153931009D01*
X40785714Y-153931009D02*
X41119047Y-153931009D01*
X40261904Y-153454819D02*
X39690476Y-153454819D01*
X39976190Y-154454819D02*
X39976190Y-153454819D01*
X38833333Y-154454819D02*
X39404761Y-154454819D01*
X39119047Y-154454819D02*
X39119047Y-153454819D01*
X39119047Y-153454819D02*
X39214285Y-153597676D01*
X39214285Y-153597676D02*
X39309523Y-153692914D01*
X39309523Y-153692914D02*
X39404761Y-153740533D01*
D12*
%TO.C,R26*%
X35877500Y-156137258D02*
X35877500Y-155662742D01*
X36922500Y-156137258D02*
X36922500Y-155662742D01*
%TO.C,D7*%
X50550000Y-54450000D02*
X50550000Y-48940000D01*
X53850000Y-54450000D02*
X50550000Y-54450000D01*
X53850000Y-54450000D02*
X53850000Y-48940000D01*
%TO.C,R5*%
X30237258Y-59487500D02*
X29762742Y-59487500D01*
X30237258Y-60532500D02*
X29762742Y-60532500D01*
%TO.C,Q5*%
X43620000Y-160540000D02*
X43620000Y-164300000D01*
X43620000Y-164300000D02*
X44880000Y-164300000D01*
X50440000Y-160540000D02*
X50440000Y-164300000D01*
X50440000Y-164300000D02*
X49180000Y-164300000D01*
X43720000Y-159260000D02*
X43390000Y-159500000D01*
X43390000Y-159020000D01*
X43720000Y-159260000D01*
G36*
X43720000Y-159260000D02*
G01*
X43390000Y-159500000D01*
X43390000Y-159020000D01*
X43720000Y-159260000D01*
G37*
%TO.C,Q6*%
X36200000Y-160540000D02*
X36200000Y-164300000D01*
X36200000Y-164300000D02*
X37460000Y-164300000D01*
X43020000Y-160540000D02*
X43020000Y-164300000D01*
X43020000Y-164300000D02*
X41760000Y-164300000D01*
X36300000Y-159260000D02*
X35970000Y-159500000D01*
X35970000Y-159020000D01*
X36300000Y-159260000D01*
G36*
X36300000Y-159260000D02*
G01*
X35970000Y-159500000D01*
X35970000Y-159020000D01*
X36300000Y-159260000D01*
G37*
%TO.C,R25*%
X44397500Y-156137258D02*
X44397500Y-155662742D01*
X45442500Y-156137258D02*
X45442500Y-155662742D01*
%TO.C,R13*%
X53667500Y-168657258D02*
X53667500Y-168182742D01*
X54712500Y-168657258D02*
X54712500Y-168182742D01*
%TO.C,R6*%
X21177500Y-61527742D02*
X21177500Y-62002258D01*
X22222500Y-61527742D02*
X22222500Y-62002258D01*
%TO.C,R2*%
X56547500Y-45847258D02*
X56547500Y-45372742D01*
X57592500Y-45847258D02*
X57592500Y-45372742D01*
%TO.C,U1*%
X39635000Y-46255000D02*
X37685000Y-46255000D01*
X39635000Y-46255000D02*
X41585000Y-46255000D01*
X39635000Y-51375000D02*
X37685000Y-51375000D01*
X39635000Y-51375000D02*
X41585000Y-51375000D01*
X37175000Y-51610000D02*
X36695000Y-51610000D01*
X36935000Y-51280000D01*
X37175000Y-51610000D01*
G36*
X37175000Y-51610000D02*
G01*
X36695000Y-51610000D01*
X36935000Y-51280000D01*
X37175000Y-51610000D01*
G37*
%TO.C,C1*%
X45438748Y-41645000D02*
X45961252Y-41645000D01*
X45438748Y-43115000D02*
X45961252Y-43115000D01*
%TO.C,R7*%
X34067258Y-48897500D02*
X33592742Y-48897500D01*
X34067258Y-49942500D02*
X33592742Y-49942500D01*
%TO.C,J2*%
X55740000Y-42300000D02*
X55740000Y-43630000D01*
X55740000Y-43630000D02*
X57070000Y-43630000D01*
X58340000Y-40970000D02*
X58340000Y-43630000D01*
X58340000Y-40970000D02*
X60940000Y-40970000D01*
X58340000Y-43630000D02*
X60940000Y-43630000D01*
X60940000Y-40970000D02*
X60940000Y-43630000D01*
%TO.C,R18*%
X38087500Y-155662742D02*
X38087500Y-156137258D01*
X39132500Y-155662742D02*
X39132500Y-156137258D01*
%TO.C,R24*%
X53967500Y-156137258D02*
X53967500Y-155662742D01*
X55012500Y-156137258D02*
X55012500Y-155662742D01*
%TO.C,Q4*%
X51150000Y-160540000D02*
X51150000Y-164300000D01*
X51150000Y-164300000D02*
X52410000Y-164300000D01*
X57970000Y-160540000D02*
X57970000Y-164300000D01*
X57970000Y-164300000D02*
X56710000Y-164300000D01*
X51250000Y-159260000D02*
X50920000Y-159500000D01*
X50920000Y-159020000D01*
X51250000Y-159260000D01*
G36*
X51250000Y-159260000D02*
G01*
X50920000Y-159500000D01*
X50920000Y-159020000D01*
X51250000Y-159260000D01*
G37*
%TO.C,R16*%
X52097500Y-155662742D02*
X52097500Y-156137258D01*
X53142500Y-155662742D02*
X53142500Y-156137258D01*
%TO.C,R10*%
X48652936Y-171700000D02*
X53007064Y-171700000D01*
X48652936Y-175120000D02*
X53007064Y-175120000D01*
%TO.C,F1*%
X38340000Y-73516252D02*
X38340000Y-70743748D01*
X41760000Y-73516252D02*
X41760000Y-70743748D01*
%TO.C,C2*%
X29859420Y-60960000D02*
X30140580Y-60960000D01*
X29859420Y-61980000D02*
X30140580Y-61980000D01*
%TO.C,J3*%
X37360000Y-43630000D02*
X37360000Y-40970000D01*
X39960000Y-40970000D02*
X37360000Y-40970000D01*
X39960000Y-43630000D02*
X37360000Y-43630000D01*
X39960000Y-43630000D02*
X39960000Y-40970000D01*
X42560000Y-40970000D02*
X41230000Y-40970000D01*
X42560000Y-42300000D02*
X42560000Y-40970000D01*
%TO.C,R1*%
X58307500Y-49277258D02*
X58307500Y-48802742D01*
X59352500Y-49277258D02*
X59352500Y-48802742D01*
%TO.C,R12*%
X46467500Y-168657258D02*
X46467500Y-168182742D01*
X47512500Y-168657258D02*
X47512500Y-168182742D01*
%TO.C,J1*%
X18950000Y-43630000D02*
X18950000Y-40970000D01*
X21550000Y-40970000D02*
X18950000Y-40970000D01*
X21550000Y-43630000D02*
X18950000Y-43630000D01*
X21550000Y-43630000D02*
X21550000Y-40970000D01*
X24150000Y-40970000D02*
X22820000Y-40970000D01*
X24150000Y-42300000D02*
X24150000Y-40970000D01*
%TO.C,C5*%
X52998748Y-44660000D02*
X54421252Y-44660000D01*
X52998748Y-46480000D02*
X54421252Y-46480000D01*
%TO.C,R11*%
X39237500Y-168657258D02*
X39237500Y-168182742D01*
X40282500Y-168657258D02*
X40282500Y-168182742D01*
%TO.C,Q1*%
X56122500Y-47395000D02*
X55472500Y-47395000D01*
X56122500Y-47395000D02*
X56772500Y-47395000D01*
X56122500Y-50515000D02*
X55472500Y-50515000D01*
X56122500Y-50515000D02*
X56772500Y-50515000D01*
X57285000Y-47445000D02*
X57045000Y-47115000D01*
X57525000Y-47115000D01*
X57285000Y-47445000D01*
G36*
X57285000Y-47445000D02*
G01*
X57045000Y-47115000D01*
X57525000Y-47115000D01*
X57285000Y-47445000D01*
G37*
%TO.C,U2*%
X26072500Y-59380000D02*
X25272500Y-59380000D01*
X26072500Y-59380000D02*
X26872500Y-59380000D01*
X26072500Y-62500000D02*
X25272500Y-62500000D01*
X26072500Y-62500000D02*
X26872500Y-62500000D01*
X25012500Y-62780000D02*
X24532500Y-62780000D01*
X24772500Y-62450000D01*
X25012500Y-62780000D01*
G36*
X25012500Y-62780000D02*
G01*
X24532500Y-62780000D01*
X24772500Y-62450000D01*
X25012500Y-62780000D01*
G37*
%TO.C,R17*%
X47957500Y-155662742D02*
X47957500Y-156137258D01*
X49002500Y-155662742D02*
X49002500Y-156137258D01*
%TD*%
M02*
