%TF.GenerationSoftware,KiCad,Pcbnew,9.0.4*%
%TF.CreationDate,2026-07-25T18:59:20+02:00*%
%TF.ProjectId,detector-hat,64657465-6374-46f7-922d-6861742e6b69,rev?*%
%TF.SameCoordinates,Original*%
%TF.FileFunction,Legend,Top*%
%TF.FilePolarity,Positive*%
%FSLAX46Y46*%
G04 Gerber Fmt 4.6, Leading zero omitted, Abs format (unit mm)*
G04 Created by KiCad (PCBNEW 9.0.4) date 2026-07-25 18:59:20*
%MOMM*%
%LPD*%
G01*
G04 APERTURE LIST*
%ADD10C,0.350000*%
%ADD11C,0.200000*%
%ADD12C,0.379614*%
%ADD13C,0.150000*%
%ADD14C,0.120000*%
G04 APERTURE END LIST*
D10*
X25685000Y-122540000D02*
G75*
G02*
X25335000Y-122540000I-175000J0D01*
G01*
X25335000Y-122540000D02*
G75*
G02*
X25685000Y-122540000I175000J0D01*
G01*
X25685000Y-113075000D02*
G75*
G02*
X25335000Y-113075000I-175000J0D01*
G01*
X25335000Y-113075000D02*
G75*
G02*
X25685000Y-113075000I175000J0D01*
G01*
X45585000Y-171000000D02*
G75*
G02*
X45235000Y-171000000I-175000J0D01*
G01*
X45235000Y-171000000D02*
G75*
G02*
X45585000Y-171000000I175000J0D01*
G01*
X25685000Y-103610000D02*
G75*
G02*
X25335000Y-103610000I-175000J0D01*
G01*
X25335000Y-103610000D02*
G75*
G02*
X25685000Y-103610000I175000J0D01*
G01*
D11*
X25830457Y-130771428D02*
X25887600Y-130828571D01*
X25887600Y-130828571D02*
X25944742Y-130999999D01*
X25944742Y-130999999D02*
X25944742Y-131114285D01*
X25944742Y-131114285D02*
X25887600Y-131285714D01*
X25887600Y-131285714D02*
X25773314Y-131399999D01*
X25773314Y-131399999D02*
X25659028Y-131457142D01*
X25659028Y-131457142D02*
X25430457Y-131514285D01*
X25430457Y-131514285D02*
X25259028Y-131514285D01*
X25259028Y-131514285D02*
X25030457Y-131457142D01*
X25030457Y-131457142D02*
X24916171Y-131399999D01*
X24916171Y-131399999D02*
X24801885Y-131285714D01*
X24801885Y-131285714D02*
X24744742Y-131114285D01*
X24744742Y-131114285D02*
X24744742Y-130999999D01*
X24744742Y-130999999D02*
X24801885Y-130828571D01*
X24801885Y-130828571D02*
X24859028Y-130771428D01*
X25944742Y-130085714D02*
X25887600Y-130199999D01*
X25887600Y-130199999D02*
X25830457Y-130257142D01*
X25830457Y-130257142D02*
X25716171Y-130314285D01*
X25716171Y-130314285D02*
X25373314Y-130314285D01*
X25373314Y-130314285D02*
X25259028Y-130257142D01*
X25259028Y-130257142D02*
X25201885Y-130199999D01*
X25201885Y-130199999D02*
X25144742Y-130085714D01*
X25144742Y-130085714D02*
X25144742Y-129914285D01*
X25144742Y-129914285D02*
X25201885Y-129799999D01*
X25201885Y-129799999D02*
X25259028Y-129742857D01*
X25259028Y-129742857D02*
X25373314Y-129685714D01*
X25373314Y-129685714D02*
X25716171Y-129685714D01*
X25716171Y-129685714D02*
X25830457Y-129742857D01*
X25830457Y-129742857D02*
X25887600Y-129799999D01*
X25887600Y-129799999D02*
X25944742Y-129914285D01*
X25944742Y-129914285D02*
X25944742Y-130085714D01*
X25144742Y-129171428D02*
X26344742Y-129171428D01*
X25201885Y-129171428D02*
X25144742Y-129057143D01*
X25144742Y-129057143D02*
X25144742Y-128828571D01*
X25144742Y-128828571D02*
X25201885Y-128714285D01*
X25201885Y-128714285D02*
X25259028Y-128657143D01*
X25259028Y-128657143D02*
X25373314Y-128600000D01*
X25373314Y-128600000D02*
X25716171Y-128600000D01*
X25716171Y-128600000D02*
X25830457Y-128657143D01*
X25830457Y-128657143D02*
X25887600Y-128714285D01*
X25887600Y-128714285D02*
X25944742Y-128828571D01*
X25944742Y-128828571D02*
X25944742Y-129057143D01*
X25944742Y-129057143D02*
X25887600Y-129171428D01*
X25144742Y-128200000D02*
X25944742Y-127914286D01*
X25144742Y-127628571D02*
X25944742Y-127914286D01*
X25944742Y-127914286D02*
X26230457Y-128028571D01*
X26230457Y-128028571D02*
X26287600Y-128085714D01*
X26287600Y-128085714D02*
X26344742Y-128200000D01*
X25944742Y-127171428D02*
X25144742Y-127171428D01*
X25373314Y-127171428D02*
X25259028Y-127114285D01*
X25259028Y-127114285D02*
X25201885Y-127057143D01*
X25201885Y-127057143D02*
X25144742Y-126942857D01*
X25144742Y-126942857D02*
X25144742Y-126828571D01*
X25944742Y-126428571D02*
X25144742Y-126428571D01*
X24744742Y-126428571D02*
X24801885Y-126485714D01*
X24801885Y-126485714D02*
X24859028Y-126428571D01*
X24859028Y-126428571D02*
X24801885Y-126371428D01*
X24801885Y-126371428D02*
X24744742Y-126428571D01*
X24744742Y-126428571D02*
X24859028Y-126428571D01*
X25144742Y-125342857D02*
X26116171Y-125342857D01*
X26116171Y-125342857D02*
X26230457Y-125399999D01*
X26230457Y-125399999D02*
X26287600Y-125457142D01*
X26287600Y-125457142D02*
X26344742Y-125571428D01*
X26344742Y-125571428D02*
X26344742Y-125742857D01*
X26344742Y-125742857D02*
X26287600Y-125857142D01*
X25887600Y-125342857D02*
X25944742Y-125457142D01*
X25944742Y-125457142D02*
X25944742Y-125685714D01*
X25944742Y-125685714D02*
X25887600Y-125799999D01*
X25887600Y-125799999D02*
X25830457Y-125857142D01*
X25830457Y-125857142D02*
X25716171Y-125914285D01*
X25716171Y-125914285D02*
X25373314Y-125914285D01*
X25373314Y-125914285D02*
X25259028Y-125857142D01*
X25259028Y-125857142D02*
X25201885Y-125799999D01*
X25201885Y-125799999D02*
X25144742Y-125685714D01*
X25144742Y-125685714D02*
X25144742Y-125457142D01*
X25144742Y-125457142D02*
X25201885Y-125342857D01*
X25944742Y-124771428D02*
X24744742Y-124771428D01*
X25944742Y-124257143D02*
X25316171Y-124257143D01*
X25316171Y-124257143D02*
X25201885Y-124314285D01*
X25201885Y-124314285D02*
X25144742Y-124428571D01*
X25144742Y-124428571D02*
X25144742Y-124600000D01*
X25144742Y-124600000D02*
X25201885Y-124714285D01*
X25201885Y-124714285D02*
X25259028Y-124771428D01*
X25144742Y-123857143D02*
X25144742Y-123400000D01*
X24744742Y-123685714D02*
X25773314Y-123685714D01*
X25773314Y-123685714D02*
X25887600Y-123628571D01*
X25887600Y-123628571D02*
X25944742Y-123514286D01*
X25944742Y-123514286D02*
X25944742Y-123400000D01*
X26401885Y-121742857D02*
X26344742Y-121800000D01*
X26344742Y-121800000D02*
X26173314Y-121914286D01*
X26173314Y-121914286D02*
X26059028Y-121971429D01*
X26059028Y-121971429D02*
X25887600Y-122028571D01*
X25887600Y-122028571D02*
X25601885Y-122085714D01*
X25601885Y-122085714D02*
X25373314Y-122085714D01*
X25373314Y-122085714D02*
X25087600Y-122028571D01*
X25087600Y-122028571D02*
X24916171Y-121971429D01*
X24916171Y-121971429D02*
X24801885Y-121914286D01*
X24801885Y-121914286D02*
X24630457Y-121800000D01*
X24630457Y-121800000D02*
X24573314Y-121742857D01*
X25887600Y-120771429D02*
X25944742Y-120885714D01*
X25944742Y-120885714D02*
X25944742Y-121114286D01*
X25944742Y-121114286D02*
X25887600Y-121228571D01*
X25887600Y-121228571D02*
X25830457Y-121285714D01*
X25830457Y-121285714D02*
X25716171Y-121342857D01*
X25716171Y-121342857D02*
X25373314Y-121342857D01*
X25373314Y-121342857D02*
X25259028Y-121285714D01*
X25259028Y-121285714D02*
X25201885Y-121228571D01*
X25201885Y-121228571D02*
X25144742Y-121114286D01*
X25144742Y-121114286D02*
X25144742Y-120885714D01*
X25144742Y-120885714D02*
X25201885Y-120771429D01*
X26401885Y-120371429D02*
X26344742Y-120314286D01*
X26344742Y-120314286D02*
X26173314Y-120200000D01*
X26173314Y-120200000D02*
X26059028Y-120142858D01*
X26059028Y-120142858D02*
X25887600Y-120085715D01*
X25887600Y-120085715D02*
X25601885Y-120028572D01*
X25601885Y-120028572D02*
X25373314Y-120028572D01*
X25373314Y-120028572D02*
X25087600Y-120085715D01*
X25087600Y-120085715D02*
X24916171Y-120142858D01*
X24916171Y-120142858D02*
X24801885Y-120200000D01*
X24801885Y-120200000D02*
X24630457Y-120314286D01*
X24630457Y-120314286D02*
X24573314Y-120371429D01*
X24859028Y-118600000D02*
X24801885Y-118542857D01*
X24801885Y-118542857D02*
X24744742Y-118428572D01*
X24744742Y-118428572D02*
X24744742Y-118142857D01*
X24744742Y-118142857D02*
X24801885Y-118028572D01*
X24801885Y-118028572D02*
X24859028Y-117971429D01*
X24859028Y-117971429D02*
X24973314Y-117914286D01*
X24973314Y-117914286D02*
X25087600Y-117914286D01*
X25087600Y-117914286D02*
X25259028Y-117971429D01*
X25259028Y-117971429D02*
X25944742Y-118657143D01*
X25944742Y-118657143D02*
X25944742Y-117914286D01*
X24744742Y-117171429D02*
X24744742Y-117057143D01*
X24744742Y-117057143D02*
X24801885Y-116942857D01*
X24801885Y-116942857D02*
X24859028Y-116885715D01*
X24859028Y-116885715D02*
X24973314Y-116828572D01*
X24973314Y-116828572D02*
X25201885Y-116771429D01*
X25201885Y-116771429D02*
X25487600Y-116771429D01*
X25487600Y-116771429D02*
X25716171Y-116828572D01*
X25716171Y-116828572D02*
X25830457Y-116885715D01*
X25830457Y-116885715D02*
X25887600Y-116942857D01*
X25887600Y-116942857D02*
X25944742Y-117057143D01*
X25944742Y-117057143D02*
X25944742Y-117171429D01*
X25944742Y-117171429D02*
X25887600Y-117285715D01*
X25887600Y-117285715D02*
X25830457Y-117342857D01*
X25830457Y-117342857D02*
X25716171Y-117400000D01*
X25716171Y-117400000D02*
X25487600Y-117457143D01*
X25487600Y-117457143D02*
X25201885Y-117457143D01*
X25201885Y-117457143D02*
X24973314Y-117400000D01*
X24973314Y-117400000D02*
X24859028Y-117342857D01*
X24859028Y-117342857D02*
X24801885Y-117285715D01*
X24801885Y-117285715D02*
X24744742Y-117171429D01*
X24859028Y-116314286D02*
X24801885Y-116257143D01*
X24801885Y-116257143D02*
X24744742Y-116142858D01*
X24744742Y-116142858D02*
X24744742Y-115857143D01*
X24744742Y-115857143D02*
X24801885Y-115742858D01*
X24801885Y-115742858D02*
X24859028Y-115685715D01*
X24859028Y-115685715D02*
X24973314Y-115628572D01*
X24973314Y-115628572D02*
X25087600Y-115628572D01*
X25087600Y-115628572D02*
X25259028Y-115685715D01*
X25259028Y-115685715D02*
X25944742Y-116371429D01*
X25944742Y-116371429D02*
X25944742Y-115628572D01*
X24744742Y-114600001D02*
X24744742Y-114828572D01*
X24744742Y-114828572D02*
X24801885Y-114942858D01*
X24801885Y-114942858D02*
X24859028Y-115000001D01*
X24859028Y-115000001D02*
X25030457Y-115114286D01*
X25030457Y-115114286D02*
X25259028Y-115171429D01*
X25259028Y-115171429D02*
X25716171Y-115171429D01*
X25716171Y-115171429D02*
X25830457Y-115114286D01*
X25830457Y-115114286D02*
X25887600Y-115057143D01*
X25887600Y-115057143D02*
X25944742Y-114942858D01*
X25944742Y-114942858D02*
X25944742Y-114714286D01*
X25944742Y-114714286D02*
X25887600Y-114600001D01*
X25887600Y-114600001D02*
X25830457Y-114542858D01*
X25830457Y-114542858D02*
X25716171Y-114485715D01*
X25716171Y-114485715D02*
X25430457Y-114485715D01*
X25430457Y-114485715D02*
X25316171Y-114542858D01*
X25316171Y-114542858D02*
X25259028Y-114600001D01*
X25259028Y-114600001D02*
X25201885Y-114714286D01*
X25201885Y-114714286D02*
X25201885Y-114942858D01*
X25201885Y-114942858D02*
X25259028Y-115057143D01*
X25259028Y-115057143D02*
X25316171Y-115114286D01*
X25316171Y-115114286D02*
X25430457Y-115171429D01*
X24744742Y-113228572D02*
X24744742Y-112542858D01*
X25944742Y-112885715D02*
X24744742Y-112885715D01*
X25944742Y-112142857D02*
X25144742Y-112142857D01*
X24744742Y-112142857D02*
X24801885Y-112200000D01*
X24801885Y-112200000D02*
X24859028Y-112142857D01*
X24859028Y-112142857D02*
X24801885Y-112085714D01*
X24801885Y-112085714D02*
X24744742Y-112142857D01*
X24744742Y-112142857D02*
X24859028Y-112142857D01*
X25944742Y-111571428D02*
X25144742Y-111571428D01*
X25259028Y-111571428D02*
X25201885Y-111514285D01*
X25201885Y-111514285D02*
X25144742Y-111400000D01*
X25144742Y-111400000D02*
X25144742Y-111228571D01*
X25144742Y-111228571D02*
X25201885Y-111114285D01*
X25201885Y-111114285D02*
X25316171Y-111057143D01*
X25316171Y-111057143D02*
X25944742Y-111057143D01*
X25316171Y-111057143D02*
X25201885Y-111000000D01*
X25201885Y-111000000D02*
X25144742Y-110885714D01*
X25144742Y-110885714D02*
X25144742Y-110714285D01*
X25144742Y-110714285D02*
X25201885Y-110600000D01*
X25201885Y-110600000D02*
X25316171Y-110542857D01*
X25316171Y-110542857D02*
X25944742Y-110542857D01*
X25144742Y-109971428D02*
X26344742Y-109971428D01*
X25201885Y-109971428D02*
X25144742Y-109857143D01*
X25144742Y-109857143D02*
X25144742Y-109628571D01*
X25144742Y-109628571D02*
X25201885Y-109514285D01*
X25201885Y-109514285D02*
X25259028Y-109457143D01*
X25259028Y-109457143D02*
X25373314Y-109400000D01*
X25373314Y-109400000D02*
X25716171Y-109400000D01*
X25716171Y-109400000D02*
X25830457Y-109457143D01*
X25830457Y-109457143D02*
X25887600Y-109514285D01*
X25887600Y-109514285D02*
X25944742Y-109628571D01*
X25944742Y-109628571D02*
X25944742Y-109857143D01*
X25944742Y-109857143D02*
X25887600Y-109971428D01*
X25144742Y-109000000D02*
X25944742Y-108714286D01*
X25144742Y-108428571D02*
X25944742Y-108714286D01*
X25944742Y-108714286D02*
X26230457Y-108828571D01*
X26230457Y-108828571D02*
X26287600Y-108885714D01*
X26287600Y-108885714D02*
X26344742Y-109000000D01*
X25944742Y-107057142D02*
X24744742Y-107057142D01*
X25316171Y-107057142D02*
X25316171Y-106371428D01*
X25944742Y-106371428D02*
X24744742Y-106371428D01*
X25944742Y-105628571D02*
X25887600Y-105742856D01*
X25887600Y-105742856D02*
X25830457Y-105799999D01*
X25830457Y-105799999D02*
X25716171Y-105857142D01*
X25716171Y-105857142D02*
X25373314Y-105857142D01*
X25373314Y-105857142D02*
X25259028Y-105799999D01*
X25259028Y-105799999D02*
X25201885Y-105742856D01*
X25201885Y-105742856D02*
X25144742Y-105628571D01*
X25144742Y-105628571D02*
X25144742Y-105457142D01*
X25144742Y-105457142D02*
X25201885Y-105342856D01*
X25201885Y-105342856D02*
X25259028Y-105285714D01*
X25259028Y-105285714D02*
X25373314Y-105228571D01*
X25373314Y-105228571D02*
X25716171Y-105228571D01*
X25716171Y-105228571D02*
X25830457Y-105285714D01*
X25830457Y-105285714D02*
X25887600Y-105342856D01*
X25887600Y-105342856D02*
X25944742Y-105457142D01*
X25944742Y-105457142D02*
X25944742Y-105628571D01*
X25944742Y-104542857D02*
X25887600Y-104657142D01*
X25887600Y-104657142D02*
X25773314Y-104714285D01*
X25773314Y-104714285D02*
X24744742Y-104714285D01*
X25944742Y-103571429D02*
X24744742Y-103571429D01*
X25887600Y-103571429D02*
X25944742Y-103685714D01*
X25944742Y-103685714D02*
X25944742Y-103914286D01*
X25944742Y-103914286D02*
X25887600Y-104028571D01*
X25887600Y-104028571D02*
X25830457Y-104085714D01*
X25830457Y-104085714D02*
X25716171Y-104142857D01*
X25716171Y-104142857D02*
X25373314Y-104142857D01*
X25373314Y-104142857D02*
X25259028Y-104085714D01*
X25259028Y-104085714D02*
X25201885Y-104028571D01*
X25201885Y-104028571D02*
X25144742Y-103914286D01*
X25144742Y-103914286D02*
X25144742Y-103685714D01*
X25144742Y-103685714D02*
X25201885Y-103571429D01*
X25944742Y-103000000D02*
X25144742Y-103000000D01*
X24744742Y-103000000D02*
X24801885Y-103057143D01*
X24801885Y-103057143D02*
X24859028Y-103000000D01*
X24859028Y-103000000D02*
X24801885Y-102942857D01*
X24801885Y-102942857D02*
X24744742Y-103000000D01*
X24744742Y-103000000D02*
X24859028Y-103000000D01*
X25144742Y-102428571D02*
X25944742Y-102428571D01*
X25259028Y-102428571D02*
X25201885Y-102371428D01*
X25201885Y-102371428D02*
X25144742Y-102257143D01*
X25144742Y-102257143D02*
X25144742Y-102085714D01*
X25144742Y-102085714D02*
X25201885Y-101971428D01*
X25201885Y-101971428D02*
X25316171Y-101914286D01*
X25316171Y-101914286D02*
X25944742Y-101914286D01*
X25144742Y-100828572D02*
X26116171Y-100828572D01*
X26116171Y-100828572D02*
X26230457Y-100885714D01*
X26230457Y-100885714D02*
X26287600Y-100942857D01*
X26287600Y-100942857D02*
X26344742Y-101057143D01*
X26344742Y-101057143D02*
X26344742Y-101228572D01*
X26344742Y-101228572D02*
X26287600Y-101342857D01*
X25887600Y-100828572D02*
X25944742Y-100942857D01*
X25944742Y-100942857D02*
X25944742Y-101171429D01*
X25944742Y-101171429D02*
X25887600Y-101285714D01*
X25887600Y-101285714D02*
X25830457Y-101342857D01*
X25830457Y-101342857D02*
X25716171Y-101400000D01*
X25716171Y-101400000D02*
X25373314Y-101400000D01*
X25373314Y-101400000D02*
X25259028Y-101342857D01*
X25259028Y-101342857D02*
X25201885Y-101285714D01*
X25201885Y-101285714D02*
X25144742Y-101171429D01*
X25144742Y-101171429D02*
X25144742Y-100942857D01*
X25144742Y-100942857D02*
X25201885Y-100828572D01*
X25316171Y-98942857D02*
X25373314Y-98771429D01*
X25373314Y-98771429D02*
X25430457Y-98714286D01*
X25430457Y-98714286D02*
X25544742Y-98657143D01*
X25544742Y-98657143D02*
X25716171Y-98657143D01*
X25716171Y-98657143D02*
X25830457Y-98714286D01*
X25830457Y-98714286D02*
X25887600Y-98771429D01*
X25887600Y-98771429D02*
X25944742Y-98885714D01*
X25944742Y-98885714D02*
X25944742Y-99342857D01*
X25944742Y-99342857D02*
X24744742Y-99342857D01*
X24744742Y-99342857D02*
X24744742Y-98942857D01*
X24744742Y-98942857D02*
X24801885Y-98828572D01*
X24801885Y-98828572D02*
X24859028Y-98771429D01*
X24859028Y-98771429D02*
X24973314Y-98714286D01*
X24973314Y-98714286D02*
X25087600Y-98714286D01*
X25087600Y-98714286D02*
X25201885Y-98771429D01*
X25201885Y-98771429D02*
X25259028Y-98828572D01*
X25259028Y-98828572D02*
X25316171Y-98942857D01*
X25316171Y-98942857D02*
X25316171Y-99342857D01*
X25830457Y-98142857D02*
X25887600Y-98085714D01*
X25887600Y-98085714D02*
X25944742Y-98142857D01*
X25944742Y-98142857D02*
X25887600Y-98200000D01*
X25887600Y-98200000D02*
X25830457Y-98142857D01*
X25830457Y-98142857D02*
X25944742Y-98142857D01*
X24744742Y-97742857D02*
X25944742Y-97342857D01*
X25944742Y-97342857D02*
X24744742Y-96942857D01*
X25830457Y-96542857D02*
X25887600Y-96485714D01*
X25887600Y-96485714D02*
X25944742Y-96542857D01*
X25944742Y-96542857D02*
X25887600Y-96600000D01*
X25887600Y-96600000D02*
X25830457Y-96542857D01*
X25830457Y-96542857D02*
X25944742Y-96542857D01*
D12*
X20977748Y-138721555D02*
X22789241Y-138721555D01*
X22789241Y-138721555D02*
X23002358Y-138614997D01*
X23002358Y-138614997D02*
X23108917Y-138508439D01*
X23108917Y-138508439D02*
X23215475Y-138295322D01*
X23215475Y-138295322D02*
X23215475Y-137869088D01*
X23215475Y-137869088D02*
X23108917Y-137655971D01*
X23108917Y-137655971D02*
X23002358Y-137549413D01*
X23002358Y-137549413D02*
X22789241Y-137442854D01*
X22789241Y-137442854D02*
X20977748Y-137442854D01*
X21723657Y-136377270D02*
X23215475Y-136377270D01*
X21936774Y-136377270D02*
X21830215Y-136270712D01*
X21830215Y-136270712D02*
X21723657Y-136057595D01*
X21723657Y-136057595D02*
X21723657Y-135737920D01*
X21723657Y-135737920D02*
X21830215Y-135524803D01*
X21830215Y-135524803D02*
X22043332Y-135418245D01*
X22043332Y-135418245D02*
X23215475Y-135418245D01*
X23215475Y-133393635D02*
X20977748Y-133393635D01*
X23108917Y-133393635D02*
X23215475Y-133606751D01*
X23215475Y-133606751D02*
X23215475Y-134032985D01*
X23215475Y-134032985D02*
X23108917Y-134246102D01*
X23108917Y-134246102D02*
X23002358Y-134352660D01*
X23002358Y-134352660D02*
X22789241Y-134459219D01*
X22789241Y-134459219D02*
X22149891Y-134459219D01*
X22149891Y-134459219D02*
X21936774Y-134352660D01*
X21936774Y-134352660D02*
X21830215Y-134246102D01*
X21830215Y-134246102D02*
X21723657Y-134032985D01*
X21723657Y-134032985D02*
X21723657Y-133606751D01*
X21723657Y-133606751D02*
X21830215Y-133393635D01*
X23108917Y-131475583D02*
X23215475Y-131688700D01*
X23215475Y-131688700D02*
X23215475Y-132114934D01*
X23215475Y-132114934D02*
X23108917Y-132328050D01*
X23108917Y-132328050D02*
X22895800Y-132434609D01*
X22895800Y-132434609D02*
X22043332Y-132434609D01*
X22043332Y-132434609D02*
X21830215Y-132328050D01*
X21830215Y-132328050D02*
X21723657Y-132114934D01*
X21723657Y-132114934D02*
X21723657Y-131688700D01*
X21723657Y-131688700D02*
X21830215Y-131475583D01*
X21830215Y-131475583D02*
X22043332Y-131369025D01*
X22043332Y-131369025D02*
X22256449Y-131369025D01*
X22256449Y-131369025D02*
X22469566Y-132434609D01*
X23215475Y-130409998D02*
X21723657Y-130409998D01*
X22149891Y-130409998D02*
X21936774Y-130303440D01*
X21936774Y-130303440D02*
X21830215Y-130196882D01*
X21830215Y-130196882D02*
X21723657Y-129983765D01*
X21723657Y-129983765D02*
X21723657Y-129770648D01*
X21723657Y-129237855D02*
X23215475Y-128811622D01*
X23215475Y-128811622D02*
X22149891Y-128385388D01*
X22149891Y-128385388D02*
X23215475Y-127959154D01*
X23215475Y-127959154D02*
X21723657Y-127532920D01*
X23215475Y-125721428D02*
X22043332Y-125721428D01*
X22043332Y-125721428D02*
X21830215Y-125827986D01*
X21830215Y-125827986D02*
X21723657Y-126041103D01*
X21723657Y-126041103D02*
X21723657Y-126467337D01*
X21723657Y-126467337D02*
X21830215Y-126680453D01*
X23108917Y-125721428D02*
X23215475Y-125934544D01*
X23215475Y-125934544D02*
X23215475Y-126467337D01*
X23215475Y-126467337D02*
X23108917Y-126680453D01*
X23108917Y-126680453D02*
X22895800Y-126787012D01*
X22895800Y-126787012D02*
X22682683Y-126787012D01*
X22682683Y-126787012D02*
X22469566Y-126680453D01*
X22469566Y-126680453D02*
X22363008Y-126467337D01*
X22363008Y-126467337D02*
X22363008Y-125934544D01*
X22363008Y-125934544D02*
X22256449Y-125721428D01*
X21723657Y-124975519D02*
X21723657Y-124123051D01*
X20977748Y-124655843D02*
X22895800Y-124655843D01*
X22895800Y-124655843D02*
X23108917Y-124549285D01*
X23108917Y-124549285D02*
X23215475Y-124336168D01*
X23215475Y-124336168D02*
X23215475Y-124123051D01*
X23108917Y-122524675D02*
X23215475Y-122737792D01*
X23215475Y-122737792D02*
X23215475Y-123164026D01*
X23215475Y-123164026D02*
X23108917Y-123377142D01*
X23108917Y-123377142D02*
X22895800Y-123483701D01*
X22895800Y-123483701D02*
X22043332Y-123483701D01*
X22043332Y-123483701D02*
X21830215Y-123377142D01*
X21830215Y-123377142D02*
X21723657Y-123164026D01*
X21723657Y-123164026D02*
X21723657Y-122737792D01*
X21723657Y-122737792D02*
X21830215Y-122524675D01*
X21830215Y-122524675D02*
X22043332Y-122418117D01*
X22043332Y-122418117D02*
X22256449Y-122418117D01*
X22256449Y-122418117D02*
X22469566Y-123483701D01*
X23215475Y-121459090D02*
X21723657Y-121459090D01*
X22149891Y-121459090D02*
X21936774Y-121352532D01*
X21936774Y-121352532D02*
X21830215Y-121245974D01*
X21830215Y-121245974D02*
X21723657Y-121032857D01*
X21723657Y-121032857D02*
X21723657Y-120819740D01*
X23215475Y-120073830D02*
X20977748Y-120073830D01*
X20977748Y-120073830D02*
X22576124Y-119327921D01*
X22576124Y-119327921D02*
X20977748Y-118582012D01*
X20977748Y-118582012D02*
X23215475Y-118582012D01*
X23108917Y-116663961D02*
X23215475Y-116877078D01*
X23215475Y-116877078D02*
X23215475Y-117303312D01*
X23215475Y-117303312D02*
X23108917Y-117516428D01*
X23108917Y-117516428D02*
X22895800Y-117622987D01*
X22895800Y-117622987D02*
X22043332Y-117622987D01*
X22043332Y-117622987D02*
X21830215Y-117516428D01*
X21830215Y-117516428D02*
X21723657Y-117303312D01*
X21723657Y-117303312D02*
X21723657Y-116877078D01*
X21723657Y-116877078D02*
X21830215Y-116663961D01*
X21830215Y-116663961D02*
X22043332Y-116557403D01*
X22043332Y-116557403D02*
X22256449Y-116557403D01*
X22256449Y-116557403D02*
X22469566Y-117622987D01*
X21723657Y-115918052D02*
X21723657Y-115065584D01*
X20977748Y-115598376D02*
X22895800Y-115598376D01*
X22895800Y-115598376D02*
X23108917Y-115491818D01*
X23108917Y-115491818D02*
X23215475Y-115278701D01*
X23215475Y-115278701D02*
X23215475Y-115065584D01*
X23215475Y-113360650D02*
X22043332Y-113360650D01*
X22043332Y-113360650D02*
X21830215Y-113467208D01*
X21830215Y-113467208D02*
X21723657Y-113680325D01*
X21723657Y-113680325D02*
X21723657Y-114106559D01*
X21723657Y-114106559D02*
X21830215Y-114319675D01*
X23108917Y-113360650D02*
X23215475Y-113573766D01*
X23215475Y-113573766D02*
X23215475Y-114106559D01*
X23215475Y-114106559D02*
X23108917Y-114319675D01*
X23108917Y-114319675D02*
X22895800Y-114426234D01*
X22895800Y-114426234D02*
X22682683Y-114426234D01*
X22682683Y-114426234D02*
X22469566Y-114319675D01*
X22469566Y-114319675D02*
X22363008Y-114106559D01*
X22363008Y-114106559D02*
X22363008Y-113573766D01*
X22363008Y-113573766D02*
X22256449Y-113360650D01*
X23215475Y-111975390D02*
X23108917Y-112188507D01*
X23108917Y-112188507D02*
X22895800Y-112295065D01*
X22895800Y-112295065D02*
X20977748Y-112295065D01*
X23215475Y-111122922D02*
X20977748Y-111122922D01*
X20977748Y-111122922D02*
X20977748Y-110590130D01*
X20977748Y-110590130D02*
X21084306Y-110270455D01*
X21084306Y-110270455D02*
X21297423Y-110057338D01*
X21297423Y-110057338D02*
X21510540Y-109950780D01*
X21510540Y-109950780D02*
X21936774Y-109844221D01*
X21936774Y-109844221D02*
X22256449Y-109844221D01*
X22256449Y-109844221D02*
X22682683Y-109950780D01*
X22682683Y-109950780D02*
X22895800Y-110057338D01*
X22895800Y-110057338D02*
X23108917Y-110270455D01*
X23108917Y-110270455D02*
X23215475Y-110590130D01*
X23215475Y-110590130D02*
X23215475Y-111122922D01*
X23108917Y-108032728D02*
X23215475Y-108245845D01*
X23215475Y-108245845D02*
X23215475Y-108672079D01*
X23215475Y-108672079D02*
X23108917Y-108885195D01*
X23108917Y-108885195D02*
X22895800Y-108991754D01*
X22895800Y-108991754D02*
X22043332Y-108991754D01*
X22043332Y-108991754D02*
X21830215Y-108885195D01*
X21830215Y-108885195D02*
X21723657Y-108672079D01*
X21723657Y-108672079D02*
X21723657Y-108245845D01*
X21723657Y-108245845D02*
X21830215Y-108032728D01*
X21830215Y-108032728D02*
X22043332Y-107926170D01*
X22043332Y-107926170D02*
X22256449Y-107926170D01*
X22256449Y-107926170D02*
X22469566Y-108991754D01*
X21723657Y-107286819D02*
X21723657Y-106434351D01*
X20977748Y-106967143D02*
X22895800Y-106967143D01*
X22895800Y-106967143D02*
X23108917Y-106860585D01*
X23108917Y-106860585D02*
X23215475Y-106647468D01*
X23215475Y-106647468D02*
X23215475Y-106434351D01*
X23108917Y-104835975D02*
X23215475Y-105049092D01*
X23215475Y-105049092D02*
X23215475Y-105475326D01*
X23215475Y-105475326D02*
X23108917Y-105688442D01*
X23108917Y-105688442D02*
X22895800Y-105795001D01*
X22895800Y-105795001D02*
X22043332Y-105795001D01*
X22043332Y-105795001D02*
X21830215Y-105688442D01*
X21830215Y-105688442D02*
X21723657Y-105475326D01*
X21723657Y-105475326D02*
X21723657Y-105049092D01*
X21723657Y-105049092D02*
X21830215Y-104835975D01*
X21830215Y-104835975D02*
X22043332Y-104729417D01*
X22043332Y-104729417D02*
X22256449Y-104729417D01*
X22256449Y-104729417D02*
X22469566Y-105795001D01*
X23108917Y-102811365D02*
X23215475Y-103024481D01*
X23215475Y-103024481D02*
X23215475Y-103450715D01*
X23215475Y-103450715D02*
X23108917Y-103663832D01*
X23108917Y-103663832D02*
X23002358Y-103770390D01*
X23002358Y-103770390D02*
X22789241Y-103876949D01*
X22789241Y-103876949D02*
X22149891Y-103876949D01*
X22149891Y-103876949D02*
X21936774Y-103770390D01*
X21936774Y-103770390D02*
X21830215Y-103663832D01*
X21830215Y-103663832D02*
X21723657Y-103450715D01*
X21723657Y-103450715D02*
X21723657Y-103024481D01*
X21723657Y-103024481D02*
X21830215Y-102811365D01*
X21723657Y-102172014D02*
X21723657Y-101319546D01*
X20977748Y-101852338D02*
X22895800Y-101852338D01*
X22895800Y-101852338D02*
X23108917Y-101745780D01*
X23108917Y-101745780D02*
X23215475Y-101532663D01*
X23215475Y-101532663D02*
X23215475Y-101319546D01*
X23215475Y-100253962D02*
X23108917Y-100467079D01*
X23108917Y-100467079D02*
X23002358Y-100573637D01*
X23002358Y-100573637D02*
X22789241Y-100680196D01*
X22789241Y-100680196D02*
X22149891Y-100680196D01*
X22149891Y-100680196D02*
X21936774Y-100573637D01*
X21936774Y-100573637D02*
X21830215Y-100467079D01*
X21830215Y-100467079D02*
X21723657Y-100253962D01*
X21723657Y-100253962D02*
X21723657Y-99934287D01*
X21723657Y-99934287D02*
X21830215Y-99721170D01*
X21830215Y-99721170D02*
X21936774Y-99614612D01*
X21936774Y-99614612D02*
X22149891Y-99508053D01*
X22149891Y-99508053D02*
X22789241Y-99508053D01*
X22789241Y-99508053D02*
X23002358Y-99614612D01*
X23002358Y-99614612D02*
X23108917Y-99721170D01*
X23108917Y-99721170D02*
X23215475Y-99934287D01*
X23215475Y-99934287D02*
X23215475Y-100253962D01*
X23215475Y-98549027D02*
X21723657Y-98549027D01*
X22149891Y-98549027D02*
X21936774Y-98442469D01*
X21936774Y-98442469D02*
X21830215Y-98335911D01*
X21830215Y-98335911D02*
X21723657Y-98122794D01*
X21723657Y-98122794D02*
X21723657Y-97909677D01*
X20977748Y-95778508D02*
X23215475Y-95032599D01*
X23215475Y-95032599D02*
X20977748Y-94286690D01*
X23215475Y-92368638D02*
X23215475Y-93647339D01*
X23215475Y-93007988D02*
X20977748Y-93007988D01*
X20977748Y-93007988D02*
X21297423Y-93221105D01*
X21297423Y-93221105D02*
X21510540Y-93434222D01*
X21510540Y-93434222D02*
X21617099Y-93647339D01*
X23002358Y-91409611D02*
X23108917Y-91303053D01*
X23108917Y-91303053D02*
X23215475Y-91409611D01*
X23215475Y-91409611D02*
X23108917Y-91516170D01*
X23108917Y-91516170D02*
X23002358Y-91409611D01*
X23002358Y-91409611D02*
X23215475Y-91409611D01*
X20977748Y-89917794D02*
X20977748Y-89704677D01*
X20977748Y-89704677D02*
X21084306Y-89491560D01*
X21084306Y-89491560D02*
X21190865Y-89385002D01*
X21190865Y-89385002D02*
X21403982Y-89278443D01*
X21403982Y-89278443D02*
X21830215Y-89171885D01*
X21830215Y-89171885D02*
X22363008Y-89171885D01*
X22363008Y-89171885D02*
X22789241Y-89278443D01*
X22789241Y-89278443D02*
X23002358Y-89385002D01*
X23002358Y-89385002D02*
X23108917Y-89491560D01*
X23108917Y-89491560D02*
X23215475Y-89704677D01*
X23215475Y-89704677D02*
X23215475Y-89917794D01*
X23215475Y-89917794D02*
X23108917Y-90130911D01*
X23108917Y-90130911D02*
X23002358Y-90237469D01*
X23002358Y-90237469D02*
X22789241Y-90344027D01*
X22789241Y-90344027D02*
X22363008Y-90450586D01*
X22363008Y-90450586D02*
X21830215Y-90450586D01*
X21830215Y-90450586D02*
X21403982Y-90344027D01*
X21403982Y-90344027D02*
X21190865Y-90237469D01*
X21190865Y-90237469D02*
X21084306Y-90130911D01*
X21084306Y-90130911D02*
X20977748Y-89917794D01*
D13*
X38651905Y-86454819D02*
X38651905Y-87264342D01*
X38651905Y-87264342D02*
X38699524Y-87359580D01*
X38699524Y-87359580D02*
X38747143Y-87407200D01*
X38747143Y-87407200D02*
X38842381Y-87454819D01*
X38842381Y-87454819D02*
X39032857Y-87454819D01*
X39032857Y-87454819D02*
X39128095Y-87407200D01*
X39128095Y-87407200D02*
X39175714Y-87359580D01*
X39175714Y-87359580D02*
X39223333Y-87264342D01*
X39223333Y-87264342D02*
X39223333Y-86454819D01*
X40223333Y-87454819D02*
X39651905Y-87454819D01*
X39937619Y-87454819D02*
X39937619Y-86454819D01*
X39937619Y-86454819D02*
X39842381Y-86597676D01*
X39842381Y-86597676D02*
X39747143Y-86692914D01*
X39747143Y-86692914D02*
X39651905Y-86740533D01*
X40842381Y-86454819D02*
X40937619Y-86454819D01*
X40937619Y-86454819D02*
X41032857Y-86502438D01*
X41032857Y-86502438D02*
X41080476Y-86550057D01*
X41080476Y-86550057D02*
X41128095Y-86645295D01*
X41128095Y-86645295D02*
X41175714Y-86835771D01*
X41175714Y-86835771D02*
X41175714Y-87073866D01*
X41175714Y-87073866D02*
X41128095Y-87264342D01*
X41128095Y-87264342D02*
X41080476Y-87359580D01*
X41080476Y-87359580D02*
X41032857Y-87407200D01*
X41032857Y-87407200D02*
X40937619Y-87454819D01*
X40937619Y-87454819D02*
X40842381Y-87454819D01*
X40842381Y-87454819D02*
X40747143Y-87407200D01*
X40747143Y-87407200D02*
X40699524Y-87359580D01*
X40699524Y-87359580D02*
X40651905Y-87264342D01*
X40651905Y-87264342D02*
X40604286Y-87073866D01*
X40604286Y-87073866D02*
X40604286Y-86835771D01*
X40604286Y-86835771D02*
X40651905Y-86645295D01*
X40651905Y-86645295D02*
X40699524Y-86550057D01*
X40699524Y-86550057D02*
X40747143Y-86502438D01*
X40747143Y-86502438D02*
X40842381Y-86454819D01*
D14*
%TO.C,R15*%
X27647742Y-73367500D02*
X28122258Y-73367500D01*
X27647742Y-74412500D02*
X28122258Y-74412500D01*
%TO.C,R41*%
X56062258Y-145977500D02*
X55587742Y-145977500D01*
X56062258Y-147022500D02*
X55587742Y-147022500D01*
%TO.C,D6*%
X55970000Y-94010000D02*
X55970000Y-90000000D01*
X55970000Y-94010000D02*
X57970000Y-94010000D01*
X57970000Y-94010000D02*
X57970000Y-90000000D01*
%TO.C,C18*%
X34425000Y-43001252D02*
X34425000Y-42478748D01*
X35895000Y-43001252D02*
X35895000Y-42478748D01*
%TO.C,R48*%
X56957742Y-134977500D02*
X57432258Y-134977500D01*
X56957742Y-136022500D02*
X57432258Y-136022500D01*
%TO.C,R9*%
X53972258Y-59377500D02*
X53497742Y-59377500D01*
X53972258Y-60422500D02*
X53497742Y-60422500D01*
%TO.C,R20*%
X51442742Y-166157500D02*
X51917258Y-166157500D01*
X51442742Y-167202500D02*
X51917258Y-167202500D01*
%TO.C,U4*%
X21270000Y-74062500D02*
X21270000Y-73262500D01*
X21270000Y-74062500D02*
X21270000Y-74862500D01*
X24390000Y-74062500D02*
X24390000Y-73262500D01*
X24390000Y-74062500D02*
X24390000Y-74862500D01*
X24670000Y-73002500D02*
X24340000Y-72762500D01*
X24670000Y-72522500D01*
X24670000Y-73002500D01*
G36*
X24670000Y-73002500D02*
G01*
X24340000Y-72762500D01*
X24670000Y-72522500D01*
X24670000Y-73002500D01*
G37*
%TO.C,C17*%
X34244420Y-46260000D02*
X34525580Y-46260000D01*
X34244420Y-47280000D02*
X34525580Y-47280000D01*
%TO.C,C8*%
X21960000Y-157780000D02*
X21960000Y-160630000D01*
X21960000Y-166500000D02*
X21960000Y-163650000D01*
X29615563Y-157780000D02*
X21960000Y-157780000D01*
X29615563Y-166500000D02*
X21960000Y-166500000D01*
X30680000Y-158844437D02*
X29615563Y-157780000D01*
X30680000Y-158844437D02*
X30680000Y-160630000D01*
X30680000Y-165435563D02*
X29615563Y-166500000D01*
X30680000Y-165435563D02*
X30680000Y-163650000D01*
X31420000Y-165150000D02*
X31420000Y-164150000D01*
X31920000Y-164650000D02*
X30920000Y-164650000D01*
%TO.C,C7*%
X21960000Y-166880000D02*
X21960000Y-169730000D01*
X21960000Y-175600000D02*
X21960000Y-172750000D01*
X29615563Y-166880000D02*
X21960000Y-166880000D01*
X29615563Y-175600000D02*
X21960000Y-175600000D01*
X30680000Y-167944437D02*
X29615563Y-166880000D01*
X30680000Y-167944437D02*
X30680000Y-169730000D01*
X30680000Y-174535563D02*
X29615563Y-175600000D01*
X30680000Y-174535563D02*
X30680000Y-172750000D01*
X31420000Y-174250000D02*
X31420000Y-173250000D01*
X31920000Y-173750000D02*
X30920000Y-173750000D01*
%TO.C,C13*%
X54050580Y-110280000D02*
X53769420Y-110280000D01*
X54050580Y-111300000D02*
X53769420Y-111300000D01*
%TO.C,J6*%
X19350000Y-115165000D02*
X19350000Y-109235000D01*
X22220000Y-107965000D02*
X23820000Y-107965000D01*
X22220000Y-116435000D02*
X23820000Y-116435000D01*
X23820000Y-107965000D02*
X23820000Y-109765000D01*
X23820000Y-114635000D02*
X24760000Y-114635000D01*
X23820000Y-116435000D02*
X23820000Y-114635000D01*
%TO.C,D5*%
X51010000Y-92300000D02*
X51010000Y-94300000D01*
X51010000Y-92300000D02*
X55020000Y-92300000D01*
X51010000Y-94300000D02*
X55020000Y-94300000D01*
%TO.C,C14*%
X51959420Y-107060000D02*
X52240580Y-107060000D01*
X51959420Y-108080000D02*
X52240580Y-108080000D01*
%TO.C,U6*%
X52940000Y-141000000D02*
X52940000Y-139050000D01*
X52940000Y-141000000D02*
X52940000Y-142950000D01*
X58060000Y-141000000D02*
X58060000Y-139050000D01*
X58060000Y-141000000D02*
X58060000Y-142950000D01*
X53035000Y-143700000D02*
X52705000Y-143940000D01*
X52705000Y-143460000D01*
X53035000Y-143700000D01*
G36*
X53035000Y-143700000D02*
G01*
X52705000Y-143940000D01*
X52705000Y-143460000D01*
X53035000Y-143700000D01*
G37*
%TO.C,U10*%
X29390000Y-88500000D02*
X50390000Y-88500000D01*
X29390000Y-139500000D02*
X29390000Y-88500000D01*
X50390000Y-88500000D02*
X50390000Y-139500000D01*
X50390000Y-139500000D02*
X29390000Y-139500000D01*
%TO.C,D2*%
X48680000Y-174920000D02*
X48680000Y-169110000D01*
X48680000Y-174920000D02*
X52980000Y-174920000D01*
X52980000Y-174920000D02*
X52980000Y-169110000D01*
%TO.C,D1*%
X57310000Y-55150000D02*
X51800000Y-55150000D01*
X57310000Y-58450000D02*
X51800000Y-58450000D01*
X57310000Y-58450000D02*
X57310000Y-55150000D01*
%TO.C,D8*%
X43610000Y-60580000D02*
X38100000Y-60580000D01*
X43610000Y-63880000D02*
X38100000Y-63880000D01*
X43610000Y-63880000D02*
X43610000Y-60580000D01*
%TO.C,R43*%
X54677742Y-114027500D02*
X55152258Y-114027500D01*
X54677742Y-115072500D02*
X55152258Y-115072500D01*
%TO.C,C3*%
X22180000Y-50591252D02*
X22180000Y-49168748D01*
X24000000Y-50591252D02*
X24000000Y-49168748D01*
%TO.C,R23*%
X37167258Y-156207500D02*
X36692742Y-156207500D01*
X37167258Y-157252500D02*
X36692742Y-157252500D01*
%TO.C,R49*%
X56762742Y-150477500D02*
X57237258Y-150477500D01*
X56762742Y-151522500D02*
X57237258Y-151522500D01*
%TO.C,R8*%
X58122258Y-59177500D02*
X57647742Y-59177500D01*
X58122258Y-60222500D02*
X57647742Y-60222500D01*
%TO.C,Q2*%
X23345000Y-67427500D02*
X23345000Y-65227500D01*
X23345000Y-67427500D02*
X23345000Y-69627500D01*
X26565000Y-67427500D02*
X26565000Y-65227500D01*
X26565000Y-67427500D02*
X26565000Y-69627500D01*
X26720000Y-64767500D02*
X26390000Y-64527500D01*
X26720000Y-64287500D01*
X26720000Y-64767500D01*
G36*
X26720000Y-64767500D02*
G01*
X26390000Y-64527500D01*
X26720000Y-64287500D01*
X26720000Y-64767500D01*
G37*
%TO.C,R32*%
X26707500Y-119957742D02*
X26707500Y-120432258D01*
X27752500Y-119957742D02*
X27752500Y-120432258D01*
%TO.C,C20*%
X19040000Y-79500000D02*
X19040000Y-81850000D01*
X19040000Y-86320000D02*
X19040000Y-83970000D01*
X24795563Y-79500000D02*
X19040000Y-79500000D01*
X24795563Y-86320000D02*
X19040000Y-86320000D01*
X25860000Y-80564437D02*
X24795563Y-79500000D01*
X25860000Y-80564437D02*
X25860000Y-81850000D01*
X25860000Y-85255563D02*
X24795563Y-86320000D01*
X25860000Y-85255563D02*
X25860000Y-83970000D01*
X26493750Y-85151250D02*
X26493750Y-84363750D01*
X26887500Y-84757500D02*
X26100000Y-84757500D01*
%TO.C,R47*%
X56802742Y-105297500D02*
X57277258Y-105297500D01*
X56802742Y-106342500D02*
X57277258Y-106342500D01*
%TO.C,J8*%
X19350000Y-105700000D02*
X19350000Y-101020000D01*
X22220000Y-99750000D02*
X23820000Y-99750000D01*
X22220000Y-106970000D02*
X23820000Y-106970000D01*
X23820000Y-99750000D02*
X23820000Y-101550000D01*
X23820000Y-105170000D02*
X24760000Y-105170000D01*
X23820000Y-106970000D02*
X23820000Y-105170000D01*
%TO.C,C19*%
X52540000Y-64915580D02*
X52540000Y-64634420D01*
X53560000Y-64915580D02*
X53560000Y-64634420D01*
%TO.C,R22*%
X54147258Y-108797500D02*
X53672742Y-108797500D01*
X54147258Y-109842500D02*
X53672742Y-109842500D01*
%TO.C,R30*%
X26477500Y-130062258D02*
X26477500Y-129587742D01*
X27522500Y-130062258D02*
X27522500Y-129587742D01*
%TO.C,U9*%
X52845000Y-98505000D02*
X52845000Y-96555000D01*
X52845000Y-98505000D02*
X52845000Y-100455000D01*
X57965000Y-98505000D02*
X57965000Y-96555000D01*
X57965000Y-98505000D02*
X57965000Y-100455000D01*
X52940000Y-101205000D02*
X52610000Y-101445000D01*
X52610000Y-100965000D01*
X52940000Y-101205000D01*
G36*
X52940000Y-101205000D02*
G01*
X52610000Y-101445000D01*
X52610000Y-100965000D01*
X52940000Y-101205000D01*
G37*
%TO.C,Q3*%
X36690000Y-159050000D02*
X36690000Y-159320000D01*
X36690000Y-165950000D02*
X36690000Y-165680000D01*
X43110000Y-159050000D02*
X36690000Y-159050000D01*
X43110000Y-165950000D02*
X36690000Y-165950000D01*
X34960000Y-159360000D02*
X34620000Y-158890000D01*
X35300000Y-158890000D01*
X34960000Y-159360000D01*
G36*
X34960000Y-159360000D02*
G01*
X34620000Y-158890000D01*
X35300000Y-158890000D01*
X34960000Y-159360000D01*
G37*
%TO.C,U7*%
X52940000Y-123250000D02*
X52940000Y-121300000D01*
X52940000Y-123250000D02*
X52940000Y-125200000D01*
X58060000Y-123250000D02*
X58060000Y-121300000D01*
X58060000Y-123250000D02*
X58060000Y-125200000D01*
X53035000Y-125950000D02*
X52705000Y-126190000D01*
X52705000Y-125710000D01*
X53035000Y-125950000D01*
G36*
X53035000Y-125950000D02*
G01*
X52705000Y-126190000D01*
X52705000Y-125710000D01*
X53035000Y-125950000D01*
G37*
%TO.C,R45*%
X54107258Y-105427500D02*
X53632742Y-105427500D01*
X54107258Y-106472500D02*
X53632742Y-106472500D01*
%TO.C,D9*%
X53965000Y-131000000D02*
X53965000Y-133000000D01*
X53965000Y-131000000D02*
X57975000Y-131000000D01*
X53965000Y-133000000D02*
X57975000Y-133000000D01*
%TO.C,C4*%
X58170000Y-56101252D02*
X58170000Y-54678748D01*
X59990000Y-56101252D02*
X59990000Y-54678748D01*
%TO.C,D10*%
X53965000Y-127500000D02*
X53965000Y-129500000D01*
X53965000Y-127500000D02*
X57975000Y-127500000D01*
X53965000Y-129500000D02*
X57975000Y-129500000D01*
%TO.C,J4*%
X34810000Y-173390000D02*
X34810000Y-176150000D01*
X34810000Y-176150000D02*
X45190000Y-176150000D01*
X35760000Y-173077358D02*
X35760000Y-173390000D01*
X35760000Y-182150000D02*
X35760000Y-176150000D01*
X36620000Y-173077358D02*
X36620000Y-173390000D01*
X36620000Y-176150000D02*
X36620000Y-182150000D01*
X36620000Y-182150000D02*
X35760000Y-182150000D01*
X37460000Y-173390000D02*
X37460000Y-176150000D01*
X38300000Y-173077358D02*
X38300000Y-173390000D01*
X38300000Y-182150000D02*
X38300000Y-176150000D01*
X39160000Y-173077358D02*
X39160000Y-173390000D01*
X39160000Y-176150000D02*
X39160000Y-182150000D01*
X39160000Y-182150000D02*
X38300000Y-182150000D01*
X40000000Y-173390000D02*
X40000000Y-176150000D01*
X40840000Y-173077358D02*
X40840000Y-173390000D01*
X40840000Y-182150000D02*
X40840000Y-176150000D01*
X41700000Y-173077358D02*
X41700000Y-173390000D01*
X41700000Y-176150000D02*
X41700000Y-182150000D01*
X41700000Y-182150000D02*
X40840000Y-182150000D01*
X42540000Y-173390000D02*
X42540000Y-176150000D01*
X43380000Y-173160000D02*
X43380000Y-173390000D01*
X43810000Y-170730000D02*
X45080000Y-170730000D01*
X44240000Y-173160000D02*
X44240000Y-173390000D01*
X45080000Y-170730000D02*
X45080000Y-172000000D01*
X45190000Y-173390000D02*
X34810000Y-173390000D01*
X45190000Y-176150000D02*
X45190000Y-173390000D01*
X44240000Y-176150000D02*
X43380000Y-176150000D01*
X43380000Y-182150000D01*
X44240000Y-182150000D01*
X44240000Y-176150000D01*
G36*
X44240000Y-176150000D02*
G01*
X43380000Y-176150000D01*
X43380000Y-182150000D01*
X44240000Y-182150000D01*
X44240000Y-176150000D01*
G37*
%TO.C,C10*%
X56439420Y-173520000D02*
X56720580Y-173520000D01*
X56439420Y-174540000D02*
X56720580Y-174540000D01*
%TO.C,R44*%
X53582742Y-103697500D02*
X54057258Y-103697500D01*
X53582742Y-104742500D02*
X54057258Y-104742500D01*
%TO.C,C11*%
X57090580Y-155490000D02*
X56809420Y-155490000D01*
X57090580Y-156510000D02*
X56809420Y-156510000D01*
%TO.C,C12*%
X53359420Y-133740000D02*
X53640580Y-133740000D01*
X53359420Y-134760000D02*
X53640580Y-134760000D01*
%TO.C,D4*%
X58685000Y-161500000D02*
X54675000Y-161500000D01*
X58685000Y-163500000D02*
X54675000Y-163500000D01*
X58685000Y-163500000D02*
X58685000Y-161500000D01*
%TO.C,C6*%
X48013748Y-61110000D02*
X49436252Y-61110000D01*
X48013748Y-62930000D02*
X49436252Y-62930000D01*
%TO.C,J7*%
X19350000Y-124630000D02*
X19350000Y-118700000D01*
X22220000Y-117430000D02*
X23820000Y-117430000D01*
X22220000Y-125900000D02*
X23820000Y-125900000D01*
X23820000Y-117430000D02*
X23820000Y-119230000D01*
X23820000Y-124100000D02*
X24760000Y-124100000D01*
X23820000Y-125900000D02*
X23820000Y-124100000D01*
%TO.C,L1*%
X41500000Y-51090000D02*
X41600000Y-51090000D01*
X41500000Y-59310000D02*
X41500000Y-51090000D01*
X41600000Y-59310000D02*
X41500000Y-59310000D01*
X49620000Y-51090000D02*
X49720000Y-51090000D01*
X49720000Y-51090000D02*
X49720000Y-59310000D01*
X49720000Y-59310000D02*
X49620000Y-59310000D01*
%TO.C,U5*%
X43365000Y-153475000D02*
X41415000Y-153475000D01*
X43365000Y-153475000D02*
X45315000Y-153475000D01*
X43365000Y-158595000D02*
X41415000Y-158595000D01*
X43365000Y-158595000D02*
X45315000Y-158595000D01*
X46305000Y-158830000D02*
X45825000Y-158830000D01*
X46065000Y-158500000D01*
X46305000Y-158830000D01*
G36*
X46305000Y-158830000D02*
G01*
X45825000Y-158830000D01*
X46065000Y-158500000D01*
X46305000Y-158830000D01*
G37*
%TO.C,J9*%
X55770000Y-68680000D02*
X55770000Y-70480000D01*
X55770000Y-74100000D02*
X54780000Y-74100000D01*
X55770000Y-75900000D02*
X55770000Y-74100000D01*
X57220000Y-68680000D02*
X55770000Y-68680000D01*
X57220000Y-75900000D02*
X55770000Y-75900000D01*
X60040000Y-74630000D02*
X60040000Y-69950000D01*
%TO.C,L2*%
X26420000Y-50180000D02*
X26520000Y-50180000D01*
X26420000Y-58400000D02*
X26420000Y-50180000D01*
X26520000Y-58400000D02*
X26420000Y-58400000D01*
X34540000Y-50180000D02*
X34640000Y-50180000D01*
X34640000Y-50180000D02*
X34640000Y-58400000D01*
X34640000Y-58400000D02*
X34540000Y-58400000D01*
%TO.C,R40*%
X56957742Y-148727500D02*
X57432258Y-148727500D01*
X56957742Y-149772500D02*
X57432258Y-149772500D01*
%TO.C,C16*%
X54759420Y-115560000D02*
X55040580Y-115560000D01*
X54759420Y-116580000D02*
X55040580Y-116580000D01*
%TO.C,R14*%
X27957258Y-77657500D02*
X27482742Y-77657500D01*
X27957258Y-78702500D02*
X27482742Y-78702500D01*
%TO.C,D3*%
X53952000Y-164088000D02*
X53952000Y-166088000D01*
X53952000Y-164088000D02*
X57962000Y-164088000D01*
X53952000Y-166088000D02*
X57962000Y-166088000D01*
%TO.C,R31*%
X26767500Y-113767258D02*
X26767500Y-113292742D01*
X27812500Y-113767258D02*
X27812500Y-113292742D01*
D13*
%TO.C,U8*%
X27065000Y-41880000D02*
X31565000Y-41880000D01*
X27065000Y-47330000D02*
X31565000Y-47330000D01*
D14*
X26515000Y-41855000D02*
X26275000Y-41525000D01*
X26755000Y-41525000D01*
X26515000Y-41855000D01*
G36*
X26515000Y-41855000D02*
G01*
X26275000Y-41525000D01*
X26755000Y-41525000D01*
X26515000Y-41855000D01*
G37*
%TO.C,C9*%
X21960000Y-148730000D02*
X21960000Y-151580000D01*
X21960000Y-157450000D02*
X21960000Y-154600000D01*
X29615563Y-148730000D02*
X21960000Y-148730000D01*
X29615563Y-157450000D02*
X21960000Y-157450000D01*
X30680000Y-149794437D02*
X29615563Y-148730000D01*
X30680000Y-149794437D02*
X30680000Y-151580000D01*
X30680000Y-156385563D02*
X29615563Y-157450000D01*
X30680000Y-156385563D02*
X30680000Y-154600000D01*
X31420000Y-156100000D02*
X31420000Y-155100000D01*
X31920000Y-155600000D02*
X30920000Y-155600000D01*
%TO.C,U3*%
X36880000Y-54922500D02*
X36880000Y-54122500D01*
X36880000Y-54922500D02*
X36880000Y-55722500D01*
X40000000Y-54922500D02*
X40000000Y-54122500D01*
X40000000Y-54922500D02*
X40000000Y-55722500D01*
X36930000Y-56222500D02*
X36600000Y-56462500D01*
X36600000Y-55982500D01*
X36930000Y-56222500D01*
G36*
X36930000Y-56222500D02*
G01*
X36600000Y-56462500D01*
X36600000Y-55982500D01*
X36930000Y-56222500D01*
G37*
%TO.C,R21*%
X54832742Y-107047500D02*
X55307258Y-107047500D01*
X54832742Y-108092500D02*
X55307258Y-108092500D01*
%TO.C,R42*%
X51377500Y-119737258D02*
X51377500Y-119262742D01*
X52422500Y-119737258D02*
X52422500Y-119262742D01*
%TD*%
M02*
