M48
; DRILL file {KiCad 9.0.4} date 2026-07-25T18:59:20+0200
; FORMAT={-:-/ absolute / metric / decimal}
; #@! TF.CreationDate,2026-07-25T18:59:20+02:00
; #@! TF.GenerationSoftware,Kicad,Pcbnew,9.0.4
; #@! TF.FileFunction,Plated,1,2,PTH
FMAT,2
METRIC
; #@! TA.AperFunction,Plated,PTH,ViaDrill
T1C0.300
; #@! TA.AperFunction,Plated,PTH,ViaDrill
T2C0.400
; #@! TA.AperFunction,Plated,PTH,ComponentDrill
T3C1.000
; #@! TA.AperFunction,Plated,PTH,ComponentDrill
T4C1.300
%
G90
G05
T1
X20.0Y-44.0
X20.0Y-150.5
X23.18Y-59.58
X25.383Y-41.883
X25.659Y-63.009
X26.597Y-52.905
X27.563Y-59.111
X27.998Y-111.871
X28.135Y-116.068
X28.456Y-68.309
X28.833Y-113.797
X31.56Y-54.123
X33.068Y-42.701
X35.91Y-68.819
X37.441Y-59.93
X37.607Y-57.627
X38.868Y-68.662
X43.426Y-158.365
X49.33Y-157.49
X52.523Y-111.851
X53.413Y-122.471
X53.877Y-154.014
X54.059Y-112.756
X54.362Y-68.819
X54.425Y-87.273
X54.942Y-123.972
X55.5Y-134.25
X56.027Y-103.982
X56.379Y-123.972
X57.162Y-116.665
X57.396Y-115.847
X57.405Y-127.45
X57.581Y-97.597
T2
X26.735Y-63.647
X32.348Y-53.304
X37.603Y-51.837
X45.627Y-50.407
X45.627Y-174.575
T3
X20.28Y-42.3
X22.82Y-42.3
X31.0Y-89.87
X31.0Y-92.41
X31.0Y-94.95
X31.0Y-97.49
X31.0Y-100.03
X31.0Y-102.57
X31.0Y-105.11
X31.0Y-107.65
X31.0Y-110.19
X31.0Y-112.73
X31.0Y-115.27
X31.0Y-117.81
X31.0Y-120.35
X31.0Y-122.89
X31.0Y-125.43
X31.0Y-127.97
X31.0Y-130.51
X31.0Y-133.05
X31.0Y-135.59
X31.0Y-138.13
X36.19Y-172.0
X38.69Y-42.3
X38.73Y-172.0
X41.23Y-42.3
X41.27Y-172.0
X43.81Y-172.0
X48.78Y-89.87
X48.78Y-92.41
X48.78Y-94.95
X48.78Y-97.49
X48.78Y-100.03
X48.78Y-102.57
X48.78Y-105.11
X48.78Y-107.65
X48.78Y-110.19
X48.78Y-112.73
X48.78Y-115.27
X48.78Y-117.81
X48.78Y-120.35
X48.78Y-122.89
X48.78Y-125.43
X48.78Y-127.97
X48.78Y-130.51
X48.78Y-133.05
X48.78Y-135.59
X48.78Y-138.13
X57.07Y-42.3
X59.61Y-42.3
T4
X39.35Y-78.275G85X40.65Y-78.275
G05
X39.35Y-149.725G85X40.65Y-149.725
G05
M30
