%TF.GenerationSoftware,KiCad,Pcbnew,9.0.4*%
%TF.CreationDate,2026-07-25T18:59:20+02:00*%
%TF.ProjectId,detector-hat,64657465-6374-46f7-922d-6861742e6b69,rev?*%
%TF.SameCoordinates,Original*%
%TF.FileFunction,Copper,L2,Bot*%
%TF.FilePolarity,Positive*%
%FSLAX46Y46*%
G04 Gerber Fmt 4.6, Leading zero omitted, Abs format (unit mm)*
G04 Created by KiCad (PCBNEW 9.0.4) date 2026-07-25 18:59:20*
%MOMM*%
%LPD*%
G01*
G04 APERTURE LIST*
G04 Aperture macros list*
%AMRoundRect*
0 Rectangle with rounded corners*
0 $1 Rounding radius*
0 $2 $3 $4 $5 $6 $7 $8 $9 X,Y pos of 4 corners*
0 Add a 4 corners polygon primitive as box body*
4,1,4,$2,$3,$4,$5,$6,$7,$8,$9,$2,$3,0*
0 Add four circle primitives for the rounded corners*
1,1,$1+$1,$2,$3*
1,1,$1+$1,$4,$5*
1,1,$1+$1,$6,$7*
1,1,$1+$1,$8,$9*
0 Add four rect primitives between the rounded corners*
20,1,$1+$1,$2,$3,$4,$5,0*
20,1,$1+$1,$4,$5,$6,$7,0*
20,1,$1+$1,$6,$7,$8,$9,0*
20,1,$1+$1,$8,$9,$2,$3,0*%
G04 Aperture macros list end*
%TA.AperFunction,ComponentPad*%
%ADD10R,1.700000X1.700000*%
%TD*%
%TA.AperFunction,ComponentPad*%
%ADD11C,1.700000*%
%TD*%
%TA.AperFunction,SMDPad,CuDef*%
%ADD12RoundRect,0.200000X0.275000X-0.200000X0.275000X0.200000X-0.275000X0.200000X-0.275000X-0.200000X0*%
%TD*%
%TA.AperFunction,SMDPad,CuDef*%
%ADD13RoundRect,0.250000X0.650000X-1.000000X0.650000X1.000000X-0.650000X1.000000X-0.650000X-1.000000X0*%
%TD*%
%TA.AperFunction,SMDPad,CuDef*%
%ADD14RoundRect,0.200000X0.200000X0.275000X-0.200000X0.275000X-0.200000X-0.275000X0.200000X-0.275000X0*%
%TD*%
%TA.AperFunction,SMDPad,CuDef*%
%ADD15RoundRect,0.375000X-0.375000X0.625000X-0.375000X-0.625000X0.375000X-0.625000X0.375000X0.625000X0*%
%TD*%
%TA.AperFunction,SMDPad,CuDef*%
%ADD16RoundRect,0.500000X-1.400000X0.500000X-1.400000X-0.500000X1.400000X-0.500000X1.400000X0.500000X0*%
%TD*%
%TA.AperFunction,SMDPad,CuDef*%
%ADD17RoundRect,0.200000X-0.275000X0.200000X-0.275000X-0.200000X0.275000X-0.200000X0.275000X0.200000X0*%
%TD*%
%TA.AperFunction,SMDPad,CuDef*%
%ADD18RoundRect,0.150000X-0.725000X-0.150000X0.725000X-0.150000X0.725000X0.150000X-0.725000X0.150000X0*%
%TD*%
%TA.AperFunction,SMDPad,CuDef*%
%ADD19RoundRect,0.250000X-0.250000X-0.475000X0.250000X-0.475000X0.250000X0.475000X-0.250000X0.475000X0*%
%TD*%
%TA.AperFunction,ComponentPad*%
%ADD20R,2.900000X1.600000*%
%TD*%
%TA.AperFunction,SMDPad,CuDef*%
%ADD21RoundRect,0.250000X-0.362500X-1.425000X0.362500X-1.425000X0.362500X1.425000X-0.362500X1.425000X0*%
%TD*%
%TA.AperFunction,SMDPad,CuDef*%
%ADD22RoundRect,0.250000X1.450000X-0.312500X1.450000X0.312500X-1.450000X0.312500X-1.450000X-0.312500X0*%
%TD*%
%TA.AperFunction,SMDPad,CuDef*%
%ADD23RoundRect,0.225000X-0.225000X-0.250000X0.225000X-0.250000X0.225000X0.250000X-0.225000X0.250000X0*%
%TD*%
%TA.AperFunction,SMDPad,CuDef*%
%ADD24RoundRect,0.250000X-0.325000X-0.650000X0.325000X-0.650000X0.325000X0.650000X-0.325000X0.650000X0*%
%TD*%
%TA.AperFunction,SMDPad,CuDef*%
%ADD25RoundRect,0.150000X0.587500X0.150000X-0.587500X0.150000X-0.587500X-0.150000X0.587500X-0.150000X0*%
%TD*%
%TA.AperFunction,SMDPad,CuDef*%
%ADD26RoundRect,0.150000X-0.512500X-0.150000X0.512500X-0.150000X0.512500X0.150000X-0.512500X0.150000X0*%
%TD*%
%TA.AperFunction,ViaPad*%
%ADD27C,0.600000*%
%TD*%
%TA.AperFunction,ViaPad*%
%ADD28C,0.800000*%
%TD*%
%TA.AperFunction,Conductor*%
%ADD29C,0.250000*%
%TD*%
%TA.AperFunction,Conductor*%
%ADD30C,0.600000*%
%TD*%
%TA.AperFunction,Conductor*%
%ADD31C,0.500000*%
%TD*%
%TA.AperFunction,Conductor*%
%ADD32C,0.400000*%
%TD*%
G04 APERTURE END LIST*
D10*
%TO.P,U10,1*%
%TO.N,UART_TX*%
X31000000Y-89870000D03*
D11*
%TO.P,U10,2*%
%TO.N,UART_RX*%
X31000000Y-92410000D03*
%TO.P,U10,3*%
%TO.N,GND*%
X31000000Y-94950000D03*
%TO.P,U10,4*%
%TO.N,SPI_SCK*%
X31000000Y-97490000D03*
%TO.P,U10,5*%
%TO.N,SPI_MOSI*%
X31000000Y-100030000D03*
%TO.P,U10,6*%
%TO.N,unconnected-(U10-GP4-Pad6)*%
X31000000Y-102570000D03*
%TO.P,U10,7*%
%TO.N,unconnected-(U10-GP5-Pad7)*%
X31000000Y-105110000D03*
%TO.P,U10,8*%
%TO.N,GND*%
X31000000Y-107650000D03*
%TO.P,U10,9*%
%TO.N,POT_CS*%
X31000000Y-110190000D03*
%TO.P,U10,10*%
%TO.N,unconnected-(U10-GP7-Pad10)*%
X31000000Y-112730000D03*
%TO.P,U10,11*%
%TO.N,I2C_SDA*%
X31000000Y-115270000D03*
%TO.P,U10,12*%
%TO.N,I2C_SCL*%
X31000000Y-117810000D03*
%TO.P,U10,13*%
%TO.N,GND*%
X31000000Y-120350000D03*
%TO.P,U10,14*%
%TO.N,DAMP0*%
X31000000Y-122890000D03*
%TO.P,U10,15*%
%TO.N,DAMP1*%
X31000000Y-125430000D03*
%TO.P,U10,16*%
%TO.N,DAMP2*%
X31000000Y-127970000D03*
%TO.P,U10,17*%
%TO.N,WS_GP*%
X31000000Y-130510000D03*
%TO.P,U10,18*%
%TO.N,GND*%
X31000000Y-133050000D03*
%TO.P,U10,19*%
%TO.N,SND_A*%
X31000000Y-135590000D03*
%TO.P,U10,20*%
%TO.N,SND_B*%
X31000000Y-138130000D03*
%TO.P,U10,21*%
%TO.N,unconnected-(U10-GP16-Pad21)*%
X48780000Y-138130000D03*
%TO.P,U10,22*%
%TO.N,TX_GATE*%
X48780000Y-135590000D03*
%TO.P,U10,23*%
%TO.N,GND*%
X48780000Y-133050000D03*
%TO.P,U10,24*%
%TO.N,unconnected-(U10-GP18-Pad24)*%
X48780000Y-130510000D03*
%TO.P,U10,25*%
%TO.N,unconnected-(U10-GP19-Pad25)*%
X48780000Y-127970000D03*
%TO.P,U10,26*%
%TO.N,unconnected-(U10-GP20-Pad26)*%
X48780000Y-125430000D03*
%TO.P,U10,27*%
%TO.N,unconnected-(U10-GP21-Pad27)*%
X48780000Y-122890000D03*
%TO.P,U10,28*%
%TO.N,GND*%
X48780000Y-120350000D03*
%TO.P,U10,29*%
%TO.N,unconnected-(U10-GP22-Pad29)*%
X48780000Y-117810000D03*
%TO.P,U10,30*%
%TO.N,unconnected-(U10-RUN-Pad30)*%
X48780000Y-115270000D03*
%TO.P,U10,31*%
%TO.N,RX_ADC*%
X48780000Y-112730000D03*
%TO.P,U10,32*%
%TO.N,unconnected-(U10-GP27-Pad32)*%
X48780000Y-110190000D03*
%TO.P,U10,33*%
%TO.N,GND*%
X48780000Y-107650000D03*
%TO.P,U10,34*%
%TO.N,unconnected-(U10-GP28-Pad34)*%
X48780000Y-105110000D03*
%TO.P,U10,35*%
%TO.N,unconnected-(U10-ADC_VREF-Pad35)*%
X48780000Y-102570000D03*
%TO.P,U10,36*%
%TO.N,3V3*%
X48780000Y-100030000D03*
%TO.P,U10,37*%
%TO.N,unconnected-(U10-3V3_EN-Pad37)*%
X48780000Y-97490000D03*
%TO.P,U10,38*%
%TO.N,GND*%
X48780000Y-94950000D03*
%TO.P,U10,39*%
%TO.N,VSYS_PICO*%
X48780000Y-92410000D03*
%TO.P,U10,40*%
%TO.N,unconnected-(U10-VBUS-Pad40)*%
X48780000Y-89870000D03*
%TD*%
D10*
%TO.P,J4,1*%
%TO.N,COIL_A*%
X43810000Y-172000000D03*
D11*
%TO.P,J4,2*%
%TO.N,N/C*%
X41270000Y-172000000D03*
%TO.P,J4,3*%
X38730000Y-172000000D03*
%TO.P,J4,4*%
%TO.N,V12_TX*%
X36190000Y-172000000D03*
%TD*%
D12*
%TO.P,R26,1*%
%TO.N,DG2*%
X36400000Y-156725000D03*
%TO.P,R26,2*%
%TO.N,GND*%
X36400000Y-155075000D03*
%TD*%
D13*
%TO.P,D7,1*%
%TO.N,VSYS_PICO*%
X52200000Y-52940000D03*
%TO.P,D7,2*%
%TO.N,VBAT_SW*%
X52200000Y-48940000D03*
%TD*%
D14*
%TO.P,R5,1*%
%TO.N,VBAT_P*%
X30825000Y-60010000D03*
%TO.P,R5,2*%
%TO.N,DW_VCC*%
X29175000Y-60010000D03*
%TD*%
D15*
%TO.P,Q5,1*%
%TO.N,DG1*%
X44730000Y-159240000D03*
%TO.P,Q5,2*%
%TO.N,DMP1*%
X47030000Y-159240000D03*
%TO.P,Q5,3*%
%TO.N,GND*%
X49330000Y-159240000D03*
D16*
%TO.P,Q5,4*%
%TO.N,DMP1*%
X47030000Y-165540000D03*
%TD*%
D15*
%TO.P,Q6,1*%
%TO.N,DG2*%
X37310000Y-159240000D03*
%TO.P,Q6,2*%
%TO.N,DMP2*%
X39610000Y-159240000D03*
%TO.P,Q6,3*%
%TO.N,GND*%
X41910000Y-159240000D03*
D16*
%TO.P,Q6,4*%
%TO.N,DMP2*%
X39610000Y-165540000D03*
%TD*%
D12*
%TO.P,R25,1*%
%TO.N,DG1*%
X44920000Y-156725000D03*
%TO.P,R25,2*%
%TO.N,GND*%
X44920000Y-155075000D03*
%TD*%
%TO.P,R13,1*%
%TO.N,COIL_A*%
X54190000Y-169245000D03*
%TO.P,R13,2*%
%TO.N,DMP2*%
X54190000Y-167595000D03*
%TD*%
D17*
%TO.P,R6,1*%
%TO.N,DW_CS*%
X21700000Y-60940000D03*
%TO.P,R6,2*%
%TO.N,GND*%
X21700000Y-62590000D03*
%TD*%
D12*
%TO.P,R2,1*%
%TO.N,Q1_G*%
X57070000Y-46435000D03*
%TO.P,R2,2*%
%TO.N,REED*%
X57070000Y-44785000D03*
%TD*%
D18*
%TO.P,U1,1*%
%TO.N,GND*%
X37060000Y-50720000D03*
%TO.P,U1,2*%
%TO.N,TP_PROG*%
X37060000Y-49450000D03*
%TO.P,U1,3*%
%TO.N,GND*%
X37060000Y-48180000D03*
%TO.P,U1,4*%
%TO.N,VBUS_C*%
X37060000Y-46910000D03*
%TO.P,U1,5*%
%TO.N,VBAT_P*%
X42210000Y-46910000D03*
%TO.P,U1,6*%
%TO.N,unconnected-(U1-STDBY-Pad6)*%
X42210000Y-48180000D03*
%TO.P,U1,7*%
%TO.N,unconnected-(U1-CHRG-Pad7)*%
X42210000Y-49450000D03*
%TO.P,U1,8*%
%TO.N,VBUS_C*%
X42210000Y-50720000D03*
%TD*%
D19*
%TO.P,C1,1*%
%TO.N,VBUS_C*%
X44750000Y-42380000D03*
%TO.P,C1,2*%
%TO.N,GND*%
X46650000Y-42380000D03*
%TD*%
D14*
%TO.P,R7,1*%
%TO.N,TP_PROG*%
X34655000Y-49420000D03*
%TO.P,R7,2*%
%TO.N,GND*%
X33005000Y-49420000D03*
%TD*%
D10*
%TO.P,J2,1*%
%TO.N,REED*%
X57070000Y-42300000D03*
D11*
%TO.P,J2,2*%
%TO.N,GND*%
X59610000Y-42300000D03*
%TD*%
D17*
%TO.P,R18,1*%
%TO.N,DAMP2*%
X38610000Y-155075000D03*
%TO.P,R18,2*%
%TO.N,DG2*%
X38610000Y-156725000D03*
%TD*%
D12*
%TO.P,R24,1*%
%TO.N,DG0*%
X54490000Y-156725000D03*
%TO.P,R24,2*%
%TO.N,GND*%
X54490000Y-155075000D03*
%TD*%
D20*
%TO.P,BT1,1*%
%TO.N,VBAT_RAW*%
X40000000Y-78275000D03*
%TO.P,BT1,2*%
%TO.N,BAT_NEG*%
X40000000Y-149725000D03*
%TD*%
D15*
%TO.P,Q4,1*%
%TO.N,DG0*%
X52260000Y-159240000D03*
%TO.P,Q4,2*%
%TO.N,DMP0*%
X54560000Y-159240000D03*
%TO.P,Q4,3*%
%TO.N,GND*%
X56860000Y-159240000D03*
D16*
%TO.P,Q4,4*%
%TO.N,DMP0*%
X54560000Y-165540000D03*
%TD*%
D17*
%TO.P,R16,1*%
%TO.N,DAMP0*%
X52620000Y-155075000D03*
%TO.P,R16,2*%
%TO.N,DG0*%
X52620000Y-156725000D03*
%TD*%
D21*
%TO.P,R10,1*%
%TO.N,COIL_A*%
X47867500Y-173410000D03*
%TO.P,R10,2*%
%TO.N,GND*%
X53792500Y-173410000D03*
%TD*%
D22*
%TO.P,F1,1*%
%TO.N,VBAT_RAW*%
X40050000Y-74267500D03*
%TO.P,F1,2*%
%TO.N,VBAT_P*%
X40050000Y-69992500D03*
%TD*%
D23*
%TO.P,C2,1*%
%TO.N,DW_VCC*%
X29225000Y-61470000D03*
%TO.P,C2,2*%
%TO.N,BAT_NEG*%
X30775000Y-61470000D03*
%TD*%
D10*
%TO.P,J3,1*%
%TO.N,VBUS_C*%
X41230000Y-42300000D03*
D11*
%TO.P,J3,2*%
%TO.N,GND*%
X38690000Y-42300000D03*
%TD*%
D12*
%TO.P,R1,1*%
%TO.N,VBAT_P*%
X58830000Y-49865000D03*
%TO.P,R1,2*%
%TO.N,Q1_G*%
X58830000Y-48215000D03*
%TD*%
%TO.P,R12,1*%
%TO.N,COIL_A*%
X46990000Y-169245000D03*
%TO.P,R12,2*%
%TO.N,DMP1*%
X46990000Y-167595000D03*
%TD*%
D10*
%TO.P,J1,1*%
%TO.N,PIEZO_P*%
X22820000Y-42300000D03*
D11*
%TO.P,J1,2*%
%TO.N,PIEZO_N*%
X20280000Y-42300000D03*
%TD*%
D24*
%TO.P,C5,1*%
%TO.N,VBAT_SW*%
X52235000Y-45570000D03*
%TO.P,C5,2*%
%TO.N,GND*%
X55185000Y-45570000D03*
%TD*%
D12*
%TO.P,R11,1*%
%TO.N,COIL_A*%
X39760000Y-169245000D03*
%TO.P,R11,2*%
%TO.N,DMP0*%
X39760000Y-167595000D03*
%TD*%
D25*
%TO.P,Q1,1*%
%TO.N,Q1_G*%
X57060000Y-48005000D03*
%TO.P,Q1,2*%
%TO.N,VBAT_P*%
X57060000Y-49905000D03*
%TO.P,Q1,3*%
%TO.N,VBAT_SW*%
X55185000Y-48955000D03*
%TD*%
D26*
%TO.P,U2,1*%
%TO.N,DW_OD*%
X24935000Y-61890000D03*
%TO.P,U2,2*%
%TO.N,DW_CS*%
X24935000Y-60940000D03*
%TO.P,U2,3*%
%TO.N,DW_OC*%
X24935000Y-59990000D03*
%TO.P,U2,4*%
%TO.N,unconnected-(U2-TD-Pad4)*%
X27210000Y-59990000D03*
%TO.P,U2,5*%
%TO.N,DW_VCC*%
X27210000Y-60940000D03*
%TO.P,U2,6*%
%TO.N,BAT_NEG*%
X27210000Y-61890000D03*
%TD*%
D17*
%TO.P,R17,1*%
%TO.N,DAMP1*%
X48480000Y-155075000D03*
%TO.P,R17,2*%
%TO.N,DG1*%
X48480000Y-156725000D03*
%TD*%
D27*
%TO.N,3V3*%
X28456200Y-68309000D03*
X27562600Y-59110700D03*
X28833400Y-113796700D03*
X25383400Y-41882500D03*
X57395900Y-115846600D03*
D28*
%TO.N,BAT_NEG*%
X26735300Y-63647400D03*
D27*
%TO.N,DW_OC*%
X23179800Y-59579700D03*
%TO.N,DW_OD*%
X25659300Y-63008800D03*
%TO.N,GND*%
X55500000Y-134250000D03*
X43425544Y-158365000D03*
X53877500Y-154014118D03*
X28135300Y-116068328D03*
X26596700Y-52905500D03*
X20000500Y-44000500D03*
X20000500Y-150500000D03*
X57405000Y-127450000D03*
X49330000Y-157490000D03*
X57581000Y-97596866D03*
X52522500Y-111850881D03*
%TO.N,I2C_SCL*%
X27998500Y-111870900D03*
%TO.N,POT_CS*%
X53412600Y-122471200D03*
%TO.N,RX_ADC*%
X54058800Y-112755900D03*
%TO.N,SND_B*%
X33067700Y-42701200D03*
X37606900Y-57627500D03*
%TO.N,SPI_MOSI*%
X56379200Y-123971900D03*
%TO.N,SPI_SCK*%
X54942400Y-123971900D03*
%TO.N,STG2_IN*%
X57161800Y-116665400D03*
X56027400Y-103982100D03*
%TO.N,SW2*%
X31560300Y-54123200D03*
X37441400Y-59930500D03*
%TO.N,UART_RX*%
X54362100Y-68819200D03*
%TO.N,UART_TX*%
X54425300Y-87273200D03*
%TO.N,V9_SND*%
X35909800Y-68819200D03*
X38868300Y-68662100D03*
D28*
%TO.N,V12_TX*%
X45627300Y-174575400D03*
%TO.N,VBAT_SW*%
X32347800Y-53304300D03*
X37602700Y-51837100D03*
X45627300Y-50406700D03*
%TD*%
D29*
%TO.N,3V3*%
X30559600Y-96321200D02*
X28833400Y-98047400D01*
X25383400Y-41882500D02*
X25383400Y-56931500D01*
X28456200Y-68309000D02*
X28456200Y-94217800D01*
X25383400Y-56931500D02*
X27562600Y-59110700D01*
X45071200Y-96321200D02*
X30559600Y-96321200D01*
X48780000Y-100030000D02*
X45071200Y-96321200D01*
X57395900Y-108645900D02*
X57395900Y-115846600D01*
X28833400Y-98047400D02*
X28833400Y-113796700D01*
X28456200Y-94217800D02*
X30559600Y-96321200D01*
X48780000Y-100030000D02*
X57395900Y-108645900D01*
D30*
%TO.N,BAT_NEG*%
X26735300Y-63647400D02*
X27196800Y-63647400D01*
X29788600Y-62456400D02*
X27210000Y-62456400D01*
X27196800Y-136270900D02*
X27196800Y-63647400D01*
X40000000Y-149725000D02*
X40000000Y-148423300D01*
X27196800Y-63647400D02*
X27210000Y-63634200D01*
X39349200Y-148423300D02*
X27196800Y-136270900D01*
X27210000Y-62456400D02*
X27210000Y-61890000D01*
X40000000Y-148423300D02*
X39349200Y-148423300D01*
X27210000Y-63634200D02*
X27210000Y-62456400D01*
X30775000Y-61470000D02*
X29788600Y-62456400D01*
D31*
%TO.N,COIL_A*%
X40292500Y-169777500D02*
X39760000Y-169245000D01*
X46457500Y-169777500D02*
X40292500Y-169777500D01*
X54190000Y-169245000D02*
X46990000Y-169245000D01*
X46457500Y-169777500D02*
X46990000Y-169245000D01*
X46457500Y-172000000D02*
X47867500Y-173410000D01*
X46457500Y-172000000D02*
X46457500Y-169777500D01*
X43810000Y-172000000D02*
X46457500Y-172000000D01*
D29*
%TO.N,DAMP0*%
X52620000Y-144557400D02*
X52620000Y-155075000D01*
X47602500Y-139539900D02*
X52620000Y-144557400D01*
X31000000Y-122890000D02*
X33235000Y-122890000D01*
X47602500Y-137257500D02*
X47602500Y-139539900D01*
X33235000Y-122890000D02*
X47602500Y-137257500D01*
%TO.N,DAMP1*%
X48480000Y-142910000D02*
X48480000Y-155075000D01*
X31000000Y-125430000D02*
X48480000Y-142910000D01*
%TO.N,DAMP2*%
X41776700Y-138746700D02*
X41776700Y-151908300D01*
X41776700Y-151908300D02*
X38610000Y-155075000D01*
X31000000Y-127970000D02*
X41776700Y-138746700D01*
%TO.N,DG0*%
X52620000Y-158880000D02*
X52620000Y-156725000D01*
X52260000Y-159240000D02*
X52620000Y-158880000D01*
X54490000Y-156725000D02*
X52620000Y-156725000D01*
%TO.N,DG1*%
X44730000Y-159240000D02*
X44920000Y-159050000D01*
X44920000Y-156725000D02*
X48480000Y-156725000D01*
X44920000Y-159050000D02*
X44920000Y-156725000D01*
%TO.N,DG2*%
X37310000Y-159240000D02*
X36400000Y-158330000D01*
X36400000Y-158330000D02*
X36400000Y-156725000D01*
X36400000Y-156725000D02*
X38610000Y-156725000D01*
%TO.N,DMP0*%
X37405300Y-161247700D02*
X38460000Y-160193000D01*
X38460000Y-158427600D02*
X40870200Y-156017400D01*
X54959000Y-156017400D02*
X55286900Y-156345300D01*
X54560000Y-165540000D02*
X54560000Y-159240000D01*
X55286900Y-156345300D02*
X55286900Y-158513100D01*
X40870200Y-156017400D02*
X54959000Y-156017400D01*
X39760000Y-167595000D02*
X38611200Y-167595000D01*
X37405300Y-166389100D02*
X37405300Y-161247700D01*
X38460000Y-160193000D02*
X38460000Y-158427600D01*
X38611200Y-167595000D02*
X37405300Y-166389100D01*
X55286900Y-158513100D02*
X54560000Y-159240000D01*
%TO.N,DMP1*%
X47030000Y-165540000D02*
X47030000Y-167555000D01*
X47030000Y-167555000D02*
X46990000Y-167595000D01*
X47030000Y-165540000D02*
X47030000Y-159240000D01*
%TO.N,DMP2*%
X47690200Y-157955200D02*
X46384800Y-157955200D01*
X39610000Y-165540000D02*
X39610000Y-160525400D01*
X39610000Y-160525400D02*
X39610000Y-159240000D01*
X48241800Y-162297600D02*
X48241800Y-158506800D01*
X45880000Y-160026600D02*
X45381200Y-160525400D01*
X46384800Y-157955200D02*
X45880000Y-158460000D01*
X54190000Y-167595000D02*
X53539200Y-167595000D01*
X45880000Y-158460000D02*
X45880000Y-160026600D01*
X48241800Y-158506800D02*
X47690200Y-157955200D01*
X45381200Y-160525400D02*
X39610000Y-160525400D01*
X53539200Y-167595000D02*
X48241800Y-162297600D01*
%TO.N,DW_CS*%
X24935000Y-60940000D02*
X21700000Y-60940000D01*
%TO.N,DW_OC*%
X23179800Y-59579700D02*
X24524700Y-59579700D01*
X24524700Y-59579700D02*
X24935000Y-59990000D01*
%TO.N,DW_OD*%
X25659300Y-63008800D02*
X24935000Y-62284500D01*
X24935000Y-62284500D02*
X24935000Y-61890000D01*
%TO.N,DW_VCC*%
X28695000Y-60940000D02*
X27210000Y-60940000D01*
X29175000Y-60460000D02*
X29175000Y-60010000D01*
X28695000Y-60940000D02*
X29175000Y-60460000D01*
X29225000Y-61470000D02*
X28695000Y-60940000D01*
%TO.N,I2C_SCL*%
X31000000Y-117810000D02*
X27998500Y-114808500D01*
X27998500Y-114808500D02*
X27998500Y-111870900D01*
%TO.N,POT_CS*%
X34810000Y-114000000D02*
X49140100Y-114000000D01*
X53412600Y-118272500D02*
X53412600Y-122471200D01*
X31000000Y-110190000D02*
X34810000Y-114000000D01*
X49140100Y-114000000D02*
X53412600Y-118272500D01*
%TO.N,Q1_G*%
X57060000Y-46445000D02*
X57060000Y-48005000D01*
X58620000Y-48005000D02*
X58830000Y-48215000D01*
X57070000Y-46435000D02*
X57060000Y-46445000D01*
X57060000Y-48005000D02*
X58620000Y-48005000D01*
%TO.N,REED*%
X57070000Y-42300000D02*
X57070000Y-44785000D01*
%TO.N,RX_ADC*%
X54032900Y-112730000D02*
X54058800Y-112755900D01*
X48780000Y-112730000D02*
X54032900Y-112730000D01*
%TO.N,SND_B*%
X37994600Y-48815000D02*
X36168300Y-48815000D01*
X37606900Y-57627500D02*
X38346300Y-56888100D01*
X36168300Y-48815000D02*
X33067700Y-45714400D01*
X33067700Y-45714400D02*
X33067700Y-42701200D01*
X38346300Y-49166700D02*
X37994600Y-48815000D01*
X38346300Y-56888100D02*
X38346300Y-49166700D01*
%TO.N,SPI_MOSI*%
X39890000Y-108920000D02*
X51046900Y-108920000D01*
X51046900Y-108920000D02*
X56379200Y-114252300D01*
X31000000Y-100030000D02*
X39890000Y-108920000D01*
X56379200Y-114252300D02*
X56379200Y-123971900D01*
%TO.N,SPI_SCK*%
X29850700Y-110714500D02*
X29850700Y-98639300D01*
X54942400Y-123971900D02*
X52404400Y-123971900D01*
X52404400Y-123971900D02*
X50052500Y-121620000D01*
X29850700Y-98639300D02*
X31000000Y-97490000D01*
X31467300Y-111318400D02*
X30454600Y-111318400D01*
X41768900Y-121620000D02*
X31467300Y-111318400D01*
X50052500Y-121620000D02*
X41768900Y-121620000D01*
X30454600Y-111318400D02*
X29850700Y-110714500D01*
%TO.N,STG2_IN*%
X57450600Y-116665400D02*
X57989900Y-116126100D01*
X57161800Y-116665400D02*
X57450600Y-116665400D01*
X57989900Y-116126100D02*
X57989900Y-105944600D01*
X57989900Y-105944600D02*
X56027400Y-103982100D01*
%TO.N,SW2*%
X31634100Y-54123200D02*
X31560300Y-54123200D01*
X37441400Y-59930500D02*
X31634100Y-54123200D01*
%TO.N,TP_PROG*%
X37030000Y-49420000D02*
X37060000Y-49450000D01*
X34655000Y-49420000D02*
X37030000Y-49420000D01*
%TO.N,UART_RX*%
X44490200Y-94225200D02*
X46394200Y-96129200D01*
X46394200Y-96129200D02*
X49208800Y-96129200D01*
X31000000Y-92410000D02*
X32815200Y-94225200D01*
X55016000Y-90322000D02*
X55016000Y-69473100D01*
X32815200Y-94225200D02*
X44490200Y-94225200D01*
X55016000Y-69473100D02*
X54362100Y-68819200D01*
X49208800Y-96129200D02*
X55016000Y-90322000D01*
%TO.N,UART_TX*%
X49266500Y-93594500D02*
X35006200Y-93594500D01*
X35006200Y-93594500D02*
X32126700Y-90715000D01*
X32126700Y-90715000D02*
X32126700Y-89870000D01*
X31000000Y-89870000D02*
X32126700Y-89870000D01*
X54425300Y-87273200D02*
X54425300Y-88435700D01*
X54425300Y-88435700D02*
X49266500Y-93594500D01*
D32*
%TO.N,V9_SND*%
X35909800Y-68819200D02*
X38711200Y-68819200D01*
X38711200Y-68819200D02*
X38868300Y-68662100D01*
D30*
%TO.N,V12_TX*%
X45627300Y-174575400D02*
X38765400Y-174575400D01*
X38765400Y-174575400D02*
X36190000Y-172000000D01*
%TO.N,VBAT_P*%
X47559400Y-50939900D02*
X47183500Y-51315800D01*
X57060000Y-49905000D02*
X56025100Y-50939900D01*
X40050000Y-68708500D02*
X34933500Y-63592000D01*
X40050000Y-69992500D02*
X40050000Y-68708500D01*
X30825000Y-60010000D02*
X34407000Y-63592000D01*
X34407000Y-63592000D02*
X34933500Y-63592000D01*
X57060000Y-49905000D02*
X58790000Y-49905000D01*
X47183500Y-51315800D02*
X45236400Y-51315800D01*
X42804500Y-46910000D02*
X42210000Y-46910000D01*
X44587700Y-48693200D02*
X42804500Y-46910000D01*
X45236400Y-51315800D02*
X44587700Y-50667100D01*
X44587700Y-50667100D02*
X44587700Y-48693200D01*
X56025100Y-50939900D02*
X47559400Y-50939900D01*
X45236400Y-53289100D02*
X45236400Y-51315800D01*
X58790000Y-49905000D02*
X58830000Y-49865000D01*
X34933500Y-63592000D02*
X45236400Y-53289100D01*
%TO.N,VBAT_RAW*%
X40050000Y-76923300D02*
X40050000Y-74267500D01*
X40000000Y-76973300D02*
X40050000Y-76923300D01*
X40000000Y-78275000D02*
X40000000Y-76973300D01*
%TO.N,VBAT_SW*%
X47094000Y-48940000D02*
X45627300Y-50406700D01*
X52200000Y-45605000D02*
X52200000Y-48940000D01*
X52200000Y-48940000D02*
X55170000Y-48940000D01*
X36135500Y-53304300D02*
X37602700Y-51837100D01*
X52235000Y-45570000D02*
X52200000Y-45605000D01*
X55170000Y-48940000D02*
X55185000Y-48955000D01*
X52200000Y-48940000D02*
X47094000Y-48940000D01*
X32347800Y-53304300D02*
X36135500Y-53304300D01*
%TO.N,VBUS_C*%
X41230000Y-42300000D02*
X44670000Y-42300000D01*
X41230000Y-42300000D02*
X41230000Y-43651700D01*
X42210000Y-50720000D02*
X41675500Y-50720000D01*
X40318300Y-43651700D02*
X37060000Y-46910000D01*
X37865500Y-46910000D02*
X37060000Y-46910000D01*
X41675500Y-50720000D02*
X37865500Y-46910000D01*
X44670000Y-42300000D02*
X44750000Y-42380000D01*
X41230000Y-43651700D02*
X40318300Y-43651700D01*
%TO.N,VSYS_PICO*%
X47410000Y-57730000D02*
X52200000Y-52940000D01*
X47410000Y-91040000D02*
X47410000Y-57730000D01*
X48780000Y-92410000D02*
X47410000Y-91040000D01*
%TD*%
%TA.AperFunction,Conductor*%
%TO.N,GND*%
G36*
X38299500Y-150549674D02*
G01*
X38314034Y-150622740D01*
X38369399Y-150705601D01*
X38452260Y-150760966D01*
X38525326Y-150775500D01*
X41327200Y-150775500D01*
X41379526Y-150797174D01*
X41401200Y-150849500D01*
X41401200Y-151722111D01*
X41379526Y-151774437D01*
X38751137Y-154402826D01*
X38698811Y-154424500D01*
X38280734Y-154424500D01*
X38250301Y-154427354D01*
X38250299Y-154427354D01*
X38250295Y-154427355D01*
X38122118Y-154472206D01*
X38122116Y-154472207D01*
X38012853Y-154552846D01*
X38012846Y-154552853D01*
X37932207Y-154662116D01*
X37932206Y-154662118D01*
X37887355Y-154790295D01*
X37887354Y-154790299D01*
X37887354Y-154790301D01*
X37884500Y-154820734D01*
X37884500Y-155329266D01*
X37887354Y-155359699D01*
X37887354Y-155359701D01*
X37887355Y-155359704D01*
X37932206Y-155487881D01*
X37932207Y-155487883D01*
X38012846Y-155597146D01*
X38012853Y-155597153D01*
X38122116Y-155677792D01*
X38122118Y-155677793D01*
X38250295Y-155722644D01*
X38250301Y-155722646D01*
X38280734Y-155725500D01*
X38280741Y-155725500D01*
X38939258Y-155725500D01*
X38939266Y-155725500D01*
X38969699Y-155722646D01*
X39097882Y-155677793D01*
X39207150Y-155597150D01*
X39287793Y-155487882D01*
X39332646Y-155359699D01*
X39335500Y-155329266D01*
X39335500Y-154911189D01*
X39357174Y-154858863D01*
X39883777Y-154332260D01*
X41012319Y-154332260D01*
X41523959Y-154843900D01*
X41914981Y-154843900D01*
X42569412Y-154189469D01*
X43697955Y-154189469D01*
X44304811Y-154796325D01*
X44313377Y-154753263D01*
X44324426Y-154726587D01*
X44385207Y-154635623D01*
X44405623Y-154615207D01*
X44496587Y-154554426D01*
X44523263Y-154543377D01*
X44603475Y-154527422D01*
X44617912Y-154526000D01*
X45061308Y-154526000D01*
X45397839Y-154189469D01*
X46526382Y-154189469D01*
X46974006Y-154637093D01*
X46982898Y-154596364D01*
X46983991Y-154591998D01*
X46994760Y-154553943D01*
X46996117Y-154549652D01*
X47058855Y-154370359D01*
X47060877Y-154365207D01*
X47080333Y-154320615D01*
X47082734Y-154315629D01*
X47110647Y-154262818D01*
X47113414Y-154258026D01*
X47139288Y-154216849D01*
X47142405Y-154212278D01*
X47258516Y-154054952D01*
X47261966Y-154050625D01*
X47293695Y-154013755D01*
X47297459Y-154009698D01*
X47306500Y-154000657D01*
X47306500Y-153409351D01*
X46526382Y-154189469D01*
X45397839Y-154189469D01*
X44547897Y-153339527D01*
X43697955Y-154189469D01*
X42569412Y-154189469D01*
X41862261Y-153482318D01*
X41012319Y-154332260D01*
X39883777Y-154332260D01*
X40590840Y-153625197D01*
X41297991Y-152918046D01*
X42426532Y-152918046D01*
X43133683Y-153625197D01*
X43983625Y-152775255D01*
X45112168Y-152775255D01*
X45962110Y-153625197D01*
X46812052Y-152775255D01*
X45962110Y-151925312D01*
X45112168Y-152775255D01*
X43983625Y-152775255D01*
X43133682Y-151925312D01*
X42932410Y-152126584D01*
X42930873Y-152134314D01*
X42929772Y-152139032D01*
X42890656Y-152285014D01*
X42889251Y-152289648D01*
X42875573Y-152329941D01*
X42873868Y-152334471D01*
X42853871Y-152382751D01*
X42851872Y-152387163D01*
X42833047Y-152425337D01*
X42830764Y-152429608D01*
X42755201Y-152560487D01*
X42752644Y-152564599D01*
X42729006Y-152599976D01*
X42726187Y-152603910D01*
X42694376Y-152645370D01*
X42691303Y-152649115D01*
X42663237Y-152681119D01*
X42659926Y-152684654D01*
X42426532Y-152918046D01*
X41297991Y-152918046D01*
X42077174Y-152138863D01*
X42077175Y-152138862D01*
X42126610Y-152053238D01*
X42152199Y-151957737D01*
X42152200Y-151957737D01*
X42152200Y-151361042D01*
X43697955Y-151361042D01*
X44547897Y-152210984D01*
X45397839Y-151361042D01*
X46526382Y-151361042D01*
X47306500Y-152141160D01*
X47306500Y-150874000D01*
X47013424Y-150874000D01*
X46526382Y-151361042D01*
X45397839Y-151361042D01*
X44910797Y-150874000D01*
X44184997Y-150874000D01*
X43697955Y-151361042D01*
X42152200Y-151361042D01*
X42152200Y-150000000D01*
X48104500Y-150000000D01*
X48104500Y-154380376D01*
X48082826Y-154432702D01*
X48054941Y-154450223D01*
X47992118Y-154472206D01*
X47992116Y-154472207D01*
X47882853Y-154552846D01*
X47882846Y-154552853D01*
X47802207Y-154662116D01*
X47802206Y-154662118D01*
X47757355Y-154790295D01*
X47757354Y-154790299D01*
X47757354Y-154790301D01*
X47754500Y-154820734D01*
X47754500Y-155329266D01*
X47757354Y-155359699D01*
X47757354Y-155359701D01*
X47757355Y-155359704D01*
X47802205Y-155487880D01*
X47814748Y-155504875D01*
X47828832Y-155523958D01*
X47842466Y-155578929D01*
X47813235Y-155627440D01*
X47769292Y-155641900D01*
X40919636Y-155641900D01*
X40820764Y-155641900D01*
X40725263Y-155667489D01*
X40725262Y-155667489D01*
X40725260Y-155667490D01*
X40725258Y-155667491D01*
X40639641Y-155716922D01*
X39461826Y-156894736D01*
X39409500Y-156916410D01*
X39357174Y-156894736D01*
X39335500Y-156842410D01*
X39335500Y-156470740D01*
X39335500Y-156470739D01*
X39335500Y-156470734D01*
X39332646Y-156440301D01*
X39300873Y-156349500D01*
X39287793Y-156312118D01*
X39287792Y-156312116D01*
X39207153Y-156202853D01*
X39207146Y-156202846D01*
X39097883Y-156122207D01*
X39097881Y-156122206D01*
X38969704Y-156077355D01*
X38969705Y-156077355D01*
X38969700Y-156077354D01*
X38969699Y-156077354D01*
X38939266Y-156074500D01*
X38280734Y-156074500D01*
X38250301Y-156077354D01*
X38250299Y-156077354D01*
X38250295Y-156077355D01*
X38122118Y-156122206D01*
X38122116Y-156122207D01*
X38012853Y-156202846D01*
X38012849Y-156202850D01*
X37928913Y-156316581D01*
X37927071Y-156315221D01*
X37889685Y-156346209D01*
X37867861Y-156349500D01*
X37142139Y-156349500D01*
X37089813Y-156327826D01*
X37081364Y-156316376D01*
X37081087Y-156316581D01*
X36997150Y-156202850D01*
X36997146Y-156202846D01*
X36887883Y-156122207D01*
X36887881Y-156122206D01*
X36759704Y-156077355D01*
X36759705Y-156077355D01*
X36759700Y-156077354D01*
X36759699Y-156077354D01*
X36729266Y-156074500D01*
X36070734Y-156074500D01*
X36040301Y-156077354D01*
X36040299Y-156077354D01*
X36040295Y-156077355D01*
X35912118Y-156122206D01*
X35912116Y-156122207D01*
X35802853Y-156202846D01*
X35802846Y-156202853D01*
X35722207Y-156312116D01*
X35722206Y-156312118D01*
X35677355Y-156440295D01*
X35677354Y-156440299D01*
X35677354Y-156440301D01*
X35674500Y-156470734D01*
X35674500Y-156979266D01*
X35677354Y-157009699D01*
X35677354Y-157009701D01*
X35677355Y-157009704D01*
X35722206Y-157137881D01*
X35722207Y-157137883D01*
X35802846Y-157247146D01*
X35802853Y-157247153D01*
X35912115Y-157327791D01*
X35912118Y-157327793D01*
X35974942Y-157349776D01*
X36017171Y-157387514D01*
X36024500Y-157419622D01*
X36024500Y-158379437D01*
X36050088Y-158474934D01*
X36050090Y-158474939D01*
X36099525Y-158560562D01*
X36287826Y-158748863D01*
X36309500Y-158801189D01*
X36309500Y-159928160D01*
X36309501Y-159928162D01*
X36312291Y-159963629D01*
X36356382Y-160115391D01*
X36422234Y-160226739D01*
X36436830Y-160251420D01*
X36548580Y-160363170D01*
X36684610Y-160443618D01*
X36836370Y-160487708D01*
X36836369Y-160487708D01*
X36836373Y-160487709D01*
X36871837Y-160490500D01*
X37452811Y-160490499D01*
X37505137Y-160512173D01*
X37526811Y-160564499D01*
X37505137Y-160616825D01*
X37174738Y-160947225D01*
X37104825Y-161017137D01*
X37055390Y-161102760D01*
X37055388Y-161102765D01*
X37029800Y-161198262D01*
X37029800Y-166438537D01*
X37055388Y-166534034D01*
X37055390Y-166534039D01*
X37104825Y-166619662D01*
X37104826Y-166619663D01*
X38310725Y-167825562D01*
X38380638Y-167895475D01*
X38466262Y-167944910D01*
X38514013Y-167957705D01*
X38534319Y-167963146D01*
X38561763Y-167970500D01*
X38561764Y-167970500D01*
X38561765Y-167970500D01*
X39017861Y-167970500D01*
X39070187Y-167992174D01*
X39078635Y-168003623D01*
X39078913Y-168003419D01*
X39162849Y-168117149D01*
X39162850Y-168117150D01*
X39227117Y-168164581D01*
X39256347Y-168213092D01*
X39242714Y-168268064D01*
X39207615Y-168293968D01*
X39135479Y-168319209D01*
X38982739Y-168415183D01*
X38855183Y-168542739D01*
X38759209Y-168695479D01*
X38699634Y-168865736D01*
X38699633Y-168865742D01*
X38699632Y-168865745D01*
X38684500Y-169000046D01*
X38684500Y-169489954D01*
X38699632Y-169624254D01*
X38699634Y-169624263D01*
X38759209Y-169794520D01*
X38780027Y-169827651D01*
X38855184Y-169947262D01*
X38982738Y-170074816D01*
X39033709Y-170106843D01*
X39135479Y-170170790D01*
X39305736Y-170230365D01*
X39305745Y-170230368D01*
X39440046Y-170245500D01*
X39527059Y-170245500D01*
X39579385Y-170267174D01*
X39750338Y-170438127D01*
X39889637Y-170531204D01*
X39971123Y-170564956D01*
X40044418Y-170595316D01*
X40208733Y-170628000D01*
X42453573Y-170628000D01*
X42505899Y-170649674D01*
X42527573Y-170702000D01*
X42512281Y-170747048D01*
X42435464Y-170847158D01*
X42374955Y-170993238D01*
X42359500Y-171110640D01*
X42359500Y-171405971D01*
X42337826Y-171458297D01*
X42285500Y-171479971D01*
X42233174Y-171458297D01*
X42219566Y-171439566D01*
X42211237Y-171423221D01*
X42211232Y-171423212D01*
X42109417Y-171283076D01*
X42109416Y-171283075D01*
X42109414Y-171283072D01*
X41986928Y-171160586D01*
X41986925Y-171160583D01*
X41986923Y-171160582D01*
X41846787Y-171058767D01*
X41692446Y-170980127D01*
X41692442Y-170980125D01*
X41527711Y-170926600D01*
X41527698Y-170926597D01*
X41356612Y-170899500D01*
X41356611Y-170899500D01*
X41183389Y-170899500D01*
X41183388Y-170899500D01*
X41012301Y-170926597D01*
X41012288Y-170926600D01*
X40847557Y-170980125D01*
X40847553Y-170980127D01*
X40693212Y-171058767D01*
X40553076Y-171160582D01*
X40430582Y-171283076D01*
X40328767Y-171423212D01*
X40250127Y-171577553D01*
X40250125Y-171577557D01*
X40196600Y-171742288D01*
X40196597Y-171742301D01*
X40169500Y-171913388D01*
X40169500Y-172086611D01*
X40196597Y-172257698D01*
X40196600Y-172257711D01*
X40250125Y-172422442D01*
X40250127Y-172422446D01*
X40328767Y-172576787D01*
X40347808Y-172602995D01*
X40430586Y-172716928D01*
X40553072Y-172839414D01*
X40553075Y-172839416D01*
X40553076Y-172839417D01*
X40693212Y-172941232D01*
X40847553Y-173019872D01*
X40847557Y-173019874D01*
X41012288Y-173073399D01*
X41012294Y-173073400D01*
X41012299Y-173073402D01*
X41126359Y-173091467D01*
X41183388Y-173100500D01*
X41183389Y-173100500D01*
X41356612Y-173100500D01*
X41409318Y-173092152D01*
X41527701Y-173073402D01*
X41527708Y-173073399D01*
X41527711Y-173073399D01*
X41692442Y-173019874D01*
X41692442Y-173019873D01*
X41692445Y-173019873D01*
X41846788Y-172941232D01*
X41986928Y-172839414D01*
X42109414Y-172716928D01*
X42211232Y-172576788D01*
X42219565Y-172560432D01*
X42262630Y-172523650D01*
X42319093Y-172528091D01*
X42355877Y-172571157D01*
X42359500Y-172594027D01*
X42359500Y-172889359D01*
X42374955Y-173006759D01*
X42374956Y-173006763D01*
X42435463Y-173152840D01*
X42531715Y-173278279D01*
X42531720Y-173278284D01*
X42560781Y-173300583D01*
X42657159Y-173374536D01*
X42803238Y-173435044D01*
X42920639Y-173450500D01*
X44699360Y-173450499D01*
X44816762Y-173435044D01*
X44962841Y-173374536D01*
X45088282Y-173278282D01*
X45184536Y-173152841D01*
X45245044Y-173006762D01*
X45257145Y-172914841D01*
X45285463Y-172865792D01*
X45330512Y-172850500D01*
X46074559Y-172850500D01*
X46126885Y-172872174D01*
X46632826Y-173378114D01*
X46654500Y-173430440D01*
X46654500Y-174908958D01*
X46657316Y-174950490D01*
X46657316Y-174950493D01*
X46657317Y-174950495D01*
X46701963Y-175130021D01*
X46784158Y-175295753D01*
X46784159Y-175295754D01*
X46784161Y-175295757D01*
X46851185Y-175379138D01*
X46867075Y-175433500D01*
X46839871Y-175483176D01*
X46793509Y-175499500D01*
X19574500Y-175499500D01*
X19522174Y-175477826D01*
X19500500Y-175425500D01*
X19500500Y-173988459D01*
X21070538Y-173988459D01*
X21783579Y-174701500D01*
X22057381Y-174701500D01*
X22770422Y-173988459D01*
X23898965Y-173988459D01*
X24612006Y-174701500D01*
X24885808Y-174701500D01*
X25598849Y-173988459D01*
X26727392Y-173988459D01*
X27440433Y-174701500D01*
X27714235Y-174701500D01*
X28427276Y-173988459D01*
X29555819Y-173988459D01*
X30268860Y-174701500D01*
X30542662Y-174701500D01*
X31255703Y-173988459D01*
X32384246Y-173988459D01*
X33097287Y-174701500D01*
X33371089Y-174701500D01*
X34084130Y-173988458D01*
X35212672Y-173988458D01*
X35925715Y-174701500D01*
X36199517Y-174701500D01*
X36556619Y-174344397D01*
X36160722Y-173948500D01*
X36083789Y-173948500D01*
X36080886Y-173948443D01*
X36055390Y-173947442D01*
X36052490Y-173947271D01*
X36021243Y-173944813D01*
X36018349Y-173944528D01*
X35992984Y-173941526D01*
X35990105Y-173941128D01*
X35780288Y-173907896D01*
X35777431Y-173907386D01*
X35752414Y-173902411D01*
X35749576Y-173901788D01*
X35719099Y-173894473D01*
X35716286Y-173893740D01*
X35691696Y-173886806D01*
X35688913Y-173885961D01*
X35486852Y-173820308D01*
X35484106Y-173819356D01*
X35460134Y-173810512D01*
X35457423Y-173809451D01*
X35428464Y-173797453D01*
X35425804Y-173796289D01*
X35411456Y-173789674D01*
X35212672Y-173988458D01*
X34084130Y-173988458D01*
X33234188Y-173138516D01*
X32384246Y-173988459D01*
X31255703Y-173988459D01*
X30405761Y-173138517D01*
X29555819Y-173988459D01*
X28427276Y-173988459D01*
X27577334Y-173138517D01*
X26727392Y-173988459D01*
X25598849Y-173988459D01*
X24748907Y-173138517D01*
X23898965Y-173988459D01*
X22770422Y-173988459D01*
X21920480Y-173138517D01*
X21070538Y-173988459D01*
X19500500Y-173988459D01*
X19500500Y-171932069D01*
X20298500Y-171932069D01*
X20298500Y-173216421D01*
X20506266Y-173424187D01*
X21356208Y-172574245D01*
X22484751Y-172574245D01*
X23334693Y-173424187D01*
X24184635Y-172574245D01*
X25313178Y-172574245D01*
X26163120Y-173424187D01*
X27013063Y-172574245D01*
X28141606Y-172574245D01*
X28991548Y-173424187D01*
X29841490Y-172574245D01*
X30970033Y-172574245D01*
X31819975Y-173424187D01*
X32669917Y-172574245D01*
X33798460Y-172574245D01*
X34648401Y-173424186D01*
X34753496Y-173319092D01*
X34737083Y-173302679D01*
X34735068Y-173300583D01*
X34717718Y-173281813D01*
X34715784Y-173279637D01*
X34695430Y-173255801D01*
X34693589Y-173253557D01*
X34677805Y-173233533D01*
X34676054Y-173231219D01*
X34551193Y-173059362D01*
X34549530Y-173056976D01*
X34535341Y-173035739D01*
X34533775Y-173033293D01*
X34517399Y-173006569D01*
X34515929Y-173004060D01*
X34503463Y-172981798D01*
X34502095Y-172979238D01*
X34405658Y-172789971D01*
X34404391Y-172787360D01*
X34393711Y-172764196D01*
X34392547Y-172761536D01*
X34380549Y-172732577D01*
X34379488Y-172729866D01*
X34370644Y-172705894D01*
X34369692Y-172703148D01*
X34304039Y-172501087D01*
X34303194Y-172498304D01*
X34296260Y-172473714D01*
X34295527Y-172470901D01*
X34288212Y-172440424D01*
X34287589Y-172437586D01*
X34282614Y-172412569D01*
X34282104Y-172409712D01*
X34248872Y-172199895D01*
X34248474Y-172197016D01*
X34245472Y-172171651D01*
X34245187Y-172168757D01*
X34242729Y-172137510D01*
X34242558Y-172134610D01*
X34242389Y-172130315D01*
X33798460Y-172574245D01*
X32669917Y-172574245D01*
X31819975Y-171724303D01*
X30970033Y-172574245D01*
X29841490Y-172574245D01*
X28991548Y-171724303D01*
X28141606Y-172574245D01*
X27013063Y-172574245D01*
X26163120Y-171724302D01*
X25313178Y-172574245D01*
X24184635Y-172574245D01*
X23334693Y-171724302D01*
X22484751Y-172574245D01*
X21356208Y-172574245D01*
X20506266Y-171724302D01*
X20298500Y-171932069D01*
X19500500Y-171932069D01*
X19500500Y-171160031D01*
X21070537Y-171160031D01*
X21920480Y-172009974D01*
X22770422Y-171160031D01*
X23898964Y-171160031D01*
X24748907Y-172009974D01*
X25598849Y-171160031D01*
X26727391Y-171160031D01*
X27577334Y-172009974D01*
X28427276Y-171160031D01*
X29555818Y-171160031D01*
X30405761Y-172009974D01*
X31255703Y-171160031D01*
X32384245Y-171160031D01*
X33234188Y-172009974D01*
X33334709Y-171909453D01*
X35039500Y-171909453D01*
X35039500Y-172090546D01*
X35067828Y-172269406D01*
X35067831Y-172269419D01*
X35123787Y-172441635D01*
X35123788Y-172441638D01*
X35123789Y-172441639D01*
X35206004Y-172602994D01*
X35312447Y-172749501D01*
X35440499Y-172877553D01*
X35528146Y-172941232D01*
X35583980Y-172981798D01*
X35587006Y-172983996D01*
X35748361Y-173066211D01*
X35748364Y-173066212D01*
X35748363Y-173066212D01*
X35920580Y-173122168D01*
X35920586Y-173122169D01*
X35920591Y-173122171D01*
X36023790Y-173138516D01*
X36099453Y-173150500D01*
X36099454Y-173150500D01*
X36280547Y-173150500D01*
X36356210Y-173138516D01*
X36425212Y-173127587D01*
X36480284Y-173140809D01*
X36489114Y-173148350D01*
X38396684Y-175055920D01*
X38506833Y-175119514D01*
X38533618Y-175134978D01*
X38640970Y-175163743D01*
X38686340Y-175175900D01*
X38686341Y-175175901D01*
X38686343Y-175175901D01*
X38848988Y-175175901D01*
X38849004Y-175175900D01*
X45242697Y-175175900D01*
X45283809Y-175188371D01*
X45295489Y-175196175D01*
X45422972Y-175248980D01*
X45558307Y-175275900D01*
X45558309Y-175275900D01*
X45696291Y-175275900D01*
X45696293Y-175275900D01*
X45831628Y-175248980D01*
X45959111Y-175196175D01*
X46073842Y-175119514D01*
X46171414Y-175021942D01*
X46248075Y-174907211D01*
X46300880Y-174779728D01*
X46327800Y-174644393D01*
X46327800Y-174506407D01*
X46300880Y-174371072D01*
X46248075Y-174243589D01*
X46171414Y-174128858D01*
X46073842Y-174031286D01*
X45970790Y-173962429D01*
X45959108Y-173954623D01*
X45831632Y-173901821D01*
X45831622Y-173901818D01*
X45740994Y-173883791D01*
X45696293Y-173874900D01*
X45558307Y-173874900D01*
X45519942Y-173882531D01*
X45422977Y-173901818D01*
X45422967Y-173901821D01*
X45295489Y-173954624D01*
X45283809Y-173962429D01*
X45242697Y-173974900D01*
X39044788Y-173974900D01*
X38992462Y-173953226D01*
X38131388Y-173092152D01*
X38109714Y-173039826D01*
X38131388Y-172987500D01*
X38183714Y-172965826D01*
X38217309Y-172973891D01*
X38307553Y-173019872D01*
X38307557Y-173019874D01*
X38472288Y-173073399D01*
X38472294Y-173073400D01*
X38472299Y-173073402D01*
X38586359Y-173091467D01*
X38643388Y-173100500D01*
X38643389Y-173100500D01*
X38816612Y-173100500D01*
X38869318Y-173092152D01*
X38987701Y-173073402D01*
X38987708Y-173073399D01*
X38987711Y-173073399D01*
X39152442Y-173019874D01*
X39152442Y-173019873D01*
X39152445Y-173019873D01*
X39306788Y-172941232D01*
X39446928Y-172839414D01*
X39569414Y-172716928D01*
X39671232Y-172576788D01*
X39749873Y-172422445D01*
X39803402Y-172257701D01*
X39830500Y-172086611D01*
X39830500Y-171913389D01*
X39803402Y-171742299D01*
X39803400Y-171742294D01*
X39803399Y-171742288D01*
X39749874Y-171577557D01*
X39749872Y-171577553D01*
X39671232Y-171423212D01*
X39569417Y-171283076D01*
X39569416Y-171283075D01*
X39569414Y-171283072D01*
X39446928Y-171160586D01*
X39446925Y-171160583D01*
X39446923Y-171160582D01*
X39306787Y-171058767D01*
X39152446Y-170980127D01*
X39152442Y-170980125D01*
X38987711Y-170926600D01*
X38987698Y-170926597D01*
X38816612Y-170899500D01*
X38816611Y-170899500D01*
X38643389Y-170899500D01*
X38643388Y-170899500D01*
X38472301Y-170926597D01*
X38472288Y-170926600D01*
X38307557Y-170980125D01*
X38307553Y-170980127D01*
X38153212Y-171058767D01*
X38013076Y-171160582D01*
X37890582Y-171283076D01*
X37788767Y-171423212D01*
X37710127Y-171577553D01*
X37710125Y-171577557D01*
X37656600Y-171742288D01*
X37656597Y-171742301D01*
X37629500Y-171913388D01*
X37629500Y-172086611D01*
X37656597Y-172257698D01*
X37656600Y-172257711D01*
X37710125Y-172422442D01*
X37710127Y-172422446D01*
X37756108Y-172512690D01*
X37760551Y-172569153D01*
X37723768Y-172612220D01*
X37667305Y-172616663D01*
X37637847Y-172598611D01*
X37338350Y-172299114D01*
X37316676Y-172246788D01*
X37317587Y-172235212D01*
X37340500Y-172090546D01*
X37340500Y-171909453D01*
X37318477Y-171770408D01*
X37312171Y-171730591D01*
X37312169Y-171730586D01*
X37312168Y-171730580D01*
X37256212Y-171558364D01*
X37256211Y-171558363D01*
X37256211Y-171558361D01*
X37173996Y-171397006D01*
X37067553Y-171250499D01*
X36939501Y-171122447D01*
X36851853Y-171058767D01*
X36792996Y-171016005D01*
X36631635Y-170933787D01*
X36631636Y-170933787D01*
X36459419Y-170877831D01*
X36459406Y-170877828D01*
X36280547Y-170849500D01*
X36280546Y-170849500D01*
X36099454Y-170849500D01*
X36099453Y-170849500D01*
X35920593Y-170877828D01*
X35920580Y-170877831D01*
X35748364Y-170933787D01*
X35587004Y-171016005D01*
X35587003Y-171016005D01*
X35491823Y-171085158D01*
X35440499Y-171122447D01*
X35312447Y-171250499D01*
X35312444Y-171250502D01*
X35312444Y-171250503D01*
X35206005Y-171397003D01*
X35206005Y-171397004D01*
X35123787Y-171558364D01*
X35067831Y-171730580D01*
X35067828Y-171730593D01*
X35039500Y-171909453D01*
X33334709Y-171909453D01*
X34084130Y-171160031D01*
X33234188Y-170310089D01*
X32384245Y-171160031D01*
X31255703Y-171160031D01*
X30405761Y-170310089D01*
X29555818Y-171160031D01*
X28427276Y-171160031D01*
X27577334Y-170310089D01*
X26727391Y-171160031D01*
X25598849Y-171160031D01*
X24748907Y-170310089D01*
X23898964Y-171160031D01*
X22770422Y-171160031D01*
X21920480Y-170310089D01*
X21070537Y-171160031D01*
X19500500Y-171160031D01*
X19500500Y-169103642D01*
X20298500Y-169103642D01*
X20298500Y-170387994D01*
X20506266Y-170595760D01*
X21356208Y-169745818D01*
X22484751Y-169745818D01*
X23334693Y-170595760D01*
X24184635Y-169745818D01*
X25313178Y-169745818D01*
X26163120Y-170595760D01*
X27013063Y-169745818D01*
X28141606Y-169745818D01*
X28991548Y-170595760D01*
X29841490Y-169745818D01*
X30970033Y-169745818D01*
X31819975Y-170595760D01*
X32669917Y-169745818D01*
X33798460Y-169745818D01*
X34648402Y-170595760D01*
X35498344Y-169745818D01*
X36626887Y-169745818D01*
X37227760Y-170346691D01*
X37246976Y-170359530D01*
X37249362Y-170361193D01*
X37421219Y-170486054D01*
X37423533Y-170487805D01*
X37443557Y-170503589D01*
X37445801Y-170505430D01*
X37469637Y-170525784D01*
X37471813Y-170527718D01*
X37490583Y-170545068D01*
X37492679Y-170547083D01*
X37497274Y-170551678D01*
X37506771Y-170543570D01*
X37509015Y-170541729D01*
X37529039Y-170525945D01*
X37531352Y-170524194D01*
X37593676Y-170478911D01*
X38008198Y-170064389D01*
X37939015Y-169866672D01*
X37937754Y-169862717D01*
X37927652Y-169827651D01*
X37926614Y-169823628D01*
X37916651Y-169779965D01*
X37915842Y-169775897D01*
X37909736Y-169739955D01*
X37909156Y-169735846D01*
X37890265Y-169568185D01*
X37890062Y-169566122D01*
X37888530Y-169547966D01*
X37888385Y-169545896D01*
X37887129Y-169523545D01*
X37887041Y-169521469D01*
X37886529Y-169503229D01*
X37886500Y-169501153D01*
X37886500Y-169305547D01*
X37476829Y-168895876D01*
X36626887Y-169745818D01*
X35498344Y-169745818D01*
X34648402Y-168895876D01*
X33798460Y-169745818D01*
X32669917Y-169745818D01*
X31819975Y-168895876D01*
X30970033Y-169745818D01*
X29841490Y-169745818D01*
X28991548Y-168895876D01*
X28141606Y-169745818D01*
X27013063Y-169745818D01*
X26163120Y-168895875D01*
X25313178Y-169745818D01*
X24184635Y-169745818D01*
X23334693Y-168895875D01*
X22484751Y-169745818D01*
X21356208Y-169745818D01*
X20506266Y-168895875D01*
X20298500Y-169103642D01*
X19500500Y-169103642D01*
X19500500Y-168331604D01*
X21070537Y-168331604D01*
X21920480Y-169181546D01*
X22770422Y-168331604D01*
X23898964Y-168331604D01*
X24748907Y-169181546D01*
X25598849Y-168331604D01*
X26727391Y-168331604D01*
X27577334Y-169181546D01*
X28427276Y-168331604D01*
X29555818Y-168331604D01*
X30405761Y-169181546D01*
X31255703Y-168331604D01*
X32384245Y-168331604D01*
X33234188Y-169181546D01*
X34084130Y-168331604D01*
X35212673Y-168331604D01*
X36062615Y-169181546D01*
X36912558Y-168331604D01*
X36062615Y-167481661D01*
X35212673Y-168331604D01*
X34084130Y-168331604D01*
X33234188Y-167481661D01*
X32384245Y-168331604D01*
X31255703Y-168331604D01*
X30405761Y-167481662D01*
X29555818Y-168331604D01*
X28427276Y-168331604D01*
X27577334Y-167481662D01*
X26727391Y-168331604D01*
X25598849Y-168331604D01*
X24748907Y-167481662D01*
X23898964Y-168331604D01*
X22770422Y-168331604D01*
X21920480Y-167481662D01*
X21070537Y-168331604D01*
X19500500Y-168331604D01*
X19500500Y-166275215D01*
X20298500Y-166275215D01*
X20298500Y-167559567D01*
X20506266Y-167767333D01*
X21356208Y-166917391D01*
X22484751Y-166917391D01*
X23334693Y-167767333D01*
X24184635Y-166917391D01*
X25313178Y-166917391D01*
X26163120Y-167767333D01*
X27013063Y-166917391D01*
X28141606Y-166917391D01*
X28991548Y-167767333D01*
X29841490Y-166917391D01*
X30970033Y-166917391D01*
X31819975Y-167767333D01*
X32669917Y-166917391D01*
X33798460Y-166917391D01*
X34648402Y-167767333D01*
X35498344Y-166917391D01*
X34648402Y-166067449D01*
X33798460Y-166917391D01*
X32669917Y-166917391D01*
X31819975Y-166067449D01*
X30970033Y-166917391D01*
X29841490Y-166917391D01*
X28991548Y-166067449D01*
X28141606Y-166917391D01*
X27013063Y-166917391D01*
X26163120Y-166067448D01*
X25313178Y-166917391D01*
X24184635Y-166917391D01*
X23334693Y-166067448D01*
X22484751Y-166917391D01*
X21356208Y-166917391D01*
X20506266Y-166067448D01*
X20298500Y-166275215D01*
X19500500Y-166275215D01*
X19500500Y-165503177D01*
X21070538Y-165503177D01*
X21920480Y-166353119D01*
X22770422Y-165503177D01*
X23898965Y-165503177D01*
X24748907Y-166353119D01*
X25598849Y-165503177D01*
X26727392Y-165503177D01*
X27577334Y-166353119D01*
X28427276Y-165503177D01*
X29555819Y-165503177D01*
X30405761Y-166353119D01*
X31255703Y-165503177D01*
X32384246Y-165503177D01*
X33234188Y-166353119D01*
X34084130Y-165503177D01*
X35212673Y-165503177D01*
X36062615Y-166353119D01*
X36231800Y-166183935D01*
X36231800Y-164822419D01*
X36062615Y-164653234D01*
X35212673Y-165503177D01*
X34084130Y-165503177D01*
X33234188Y-164653234D01*
X32384246Y-165503177D01*
X31255703Y-165503177D01*
X30405761Y-164653235D01*
X29555819Y-165503177D01*
X28427276Y-165503177D01*
X27577334Y-164653235D01*
X26727392Y-165503177D01*
X25598849Y-165503177D01*
X24748907Y-164653235D01*
X23898965Y-165503177D01*
X22770422Y-165503177D01*
X21920480Y-164653235D01*
X21070538Y-165503177D01*
X19500500Y-165503177D01*
X19500500Y-163446788D01*
X20298500Y-163446788D01*
X20298500Y-164731140D01*
X20506266Y-164938906D01*
X21356208Y-164088964D01*
X22484751Y-164088964D01*
X23334693Y-164938906D01*
X24184635Y-164088964D01*
X25313178Y-164088964D01*
X26163120Y-164938906D01*
X27013063Y-164088964D01*
X28141606Y-164088964D01*
X28991548Y-164938906D01*
X29841490Y-164088964D01*
X30970033Y-164088964D01*
X31819975Y-164938906D01*
X32669917Y-164088964D01*
X33798460Y-164088964D01*
X34648402Y-164938906D01*
X35498344Y-164088964D01*
X34648402Y-163239022D01*
X33798460Y-164088964D01*
X32669917Y-164088964D01*
X31819975Y-163239022D01*
X30970033Y-164088964D01*
X29841490Y-164088964D01*
X28991548Y-163239022D01*
X28141606Y-164088964D01*
X27013063Y-164088964D01*
X26163120Y-163239021D01*
X25313178Y-164088964D01*
X24184635Y-164088964D01*
X23334693Y-163239021D01*
X22484751Y-164088964D01*
X21356208Y-164088964D01*
X20506266Y-163239021D01*
X20298500Y-163446788D01*
X19500500Y-163446788D01*
X19500500Y-162674750D01*
X21070538Y-162674750D01*
X21920480Y-163524692D01*
X22770422Y-162674750D01*
X23898965Y-162674750D01*
X24748907Y-163524692D01*
X25598849Y-162674750D01*
X26727392Y-162674750D01*
X27577334Y-163524692D01*
X28427276Y-162674750D01*
X29555819Y-162674750D01*
X30405761Y-163524692D01*
X31255703Y-162674750D01*
X32384246Y-162674750D01*
X33234188Y-163524692D01*
X34084130Y-162674750D01*
X35212673Y-162674750D01*
X36062615Y-163524692D01*
X36231800Y-163355508D01*
X36231800Y-161993992D01*
X36062615Y-161824807D01*
X35212673Y-162674750D01*
X34084130Y-162674750D01*
X33234188Y-161824807D01*
X32384246Y-162674750D01*
X31255703Y-162674750D01*
X30405761Y-161824808D01*
X29555819Y-162674750D01*
X28427276Y-162674750D01*
X27577334Y-161824808D01*
X26727392Y-162674750D01*
X25598849Y-162674750D01*
X24748907Y-161824808D01*
X23898965Y-162674750D01*
X22770422Y-162674750D01*
X21920480Y-161824808D01*
X21070538Y-162674750D01*
X19500500Y-162674750D01*
X19500500Y-160618360D01*
X20298500Y-160618360D01*
X20298500Y-161902713D01*
X20506266Y-162110479D01*
X21356208Y-161260536D01*
X22484750Y-161260536D01*
X23334693Y-162110479D01*
X24184635Y-161260536D01*
X25313178Y-161260536D01*
X26163120Y-162110479D01*
X27013063Y-161260536D01*
X28141605Y-161260536D01*
X28991548Y-162110479D01*
X29841490Y-161260536D01*
X30970032Y-161260536D01*
X31819975Y-162110479D01*
X32669917Y-161260536D01*
X33798459Y-161260536D01*
X34648402Y-162110479D01*
X35498344Y-161260536D01*
X34648402Y-160410594D01*
X33798459Y-161260536D01*
X32669917Y-161260536D01*
X31819975Y-160410594D01*
X30970032Y-161260536D01*
X29841490Y-161260536D01*
X28991548Y-160410594D01*
X28141605Y-161260536D01*
X27013063Y-161260536D01*
X26163120Y-160410594D01*
X25313178Y-161260536D01*
X24184635Y-161260536D01*
X23334693Y-160410594D01*
X22484750Y-161260536D01*
X21356208Y-161260536D01*
X20506266Y-160410594D01*
X20298500Y-160618360D01*
X19500500Y-160618360D01*
X19500500Y-159846323D01*
X21070538Y-159846323D01*
X21920480Y-160696265D01*
X22770422Y-159846323D01*
X23898965Y-159846323D01*
X24748907Y-160696265D01*
X25598849Y-159846323D01*
X26727392Y-159846323D01*
X27577334Y-160696265D01*
X28427276Y-159846323D01*
X29555819Y-159846323D01*
X30405761Y-160696265D01*
X31255703Y-159846323D01*
X32384246Y-159846323D01*
X33234188Y-160696265D01*
X34084130Y-159846323D01*
X33234188Y-158996380D01*
X32384246Y-159846323D01*
X31255703Y-159846323D01*
X30405761Y-158996381D01*
X29555819Y-159846323D01*
X28427276Y-159846323D01*
X27577334Y-158996381D01*
X26727392Y-159846323D01*
X25598849Y-159846323D01*
X24748907Y-158996381D01*
X23898965Y-159846323D01*
X22770422Y-159846323D01*
X21920480Y-158996381D01*
X21070538Y-159846323D01*
X19500500Y-159846323D01*
X19500500Y-157789933D01*
X20298500Y-157789933D01*
X20298500Y-159074286D01*
X20506266Y-159282052D01*
X21356208Y-158432109D01*
X22484750Y-158432109D01*
X23334693Y-159282052D01*
X24184635Y-158432109D01*
X25313178Y-158432109D01*
X26163120Y-159282052D01*
X27013063Y-158432109D01*
X28141605Y-158432109D01*
X28991548Y-159282052D01*
X29841490Y-158432109D01*
X30970032Y-158432109D01*
X31819975Y-159282052D01*
X32669917Y-158432109D01*
X33798459Y-158432109D01*
X34648401Y-159282051D01*
X35272876Y-158657576D01*
X35246927Y-158560731D01*
X35245828Y-158556015D01*
X35237524Y-158514267D01*
X35236735Y-158509488D01*
X35229915Y-158457676D01*
X35229440Y-158452857D01*
X35226658Y-158410398D01*
X35226500Y-158405560D01*
X35226500Y-158160265D01*
X34648402Y-157582167D01*
X33798459Y-158432109D01*
X32669917Y-158432109D01*
X31819975Y-157582167D01*
X30970032Y-158432109D01*
X29841490Y-158432109D01*
X28991548Y-157582167D01*
X28141605Y-158432109D01*
X27013063Y-158432109D01*
X26163120Y-157582167D01*
X25313178Y-158432109D01*
X24184635Y-158432109D01*
X23334693Y-157582167D01*
X22484750Y-158432109D01*
X21356208Y-158432109D01*
X20506266Y-157582167D01*
X20298500Y-157789933D01*
X19500500Y-157789933D01*
X19500500Y-157017896D01*
X21070538Y-157017896D01*
X21920480Y-157867838D01*
X22770422Y-157017896D01*
X23898965Y-157017896D01*
X24748907Y-157867838D01*
X25598849Y-157017896D01*
X26727392Y-157017896D01*
X27577334Y-157867838D01*
X28427276Y-157017896D01*
X29555819Y-157017896D01*
X30405761Y-157867838D01*
X31255703Y-157017896D01*
X32384246Y-157017896D01*
X33234188Y-157867838D01*
X34084130Y-157017896D01*
X33234188Y-156167953D01*
X32384246Y-157017896D01*
X31255703Y-157017896D01*
X30405761Y-156167954D01*
X29555819Y-157017896D01*
X28427276Y-157017896D01*
X27577334Y-156167954D01*
X26727392Y-157017896D01*
X25598849Y-157017896D01*
X24748907Y-156167954D01*
X23898965Y-157017896D01*
X22770422Y-157017896D01*
X21920480Y-156167954D01*
X21070538Y-157017896D01*
X19500500Y-157017896D01*
X19500500Y-154961506D01*
X20298500Y-154961506D01*
X20298500Y-156245858D01*
X20506266Y-156453624D01*
X21356208Y-155603682D01*
X22484750Y-155603682D01*
X23334693Y-156453624D01*
X24184635Y-155603682D01*
X25313178Y-155603682D01*
X26163120Y-156453624D01*
X27013063Y-155603682D01*
X28141605Y-155603682D01*
X28991548Y-156453624D01*
X29841490Y-155603682D01*
X30970032Y-155603682D01*
X31819975Y-156453624D01*
X32669917Y-155603682D01*
X33798459Y-155603682D01*
X34648401Y-156453624D01*
X34923513Y-156178512D01*
X34978855Y-156020359D01*
X34980877Y-156015207D01*
X35000333Y-155970615D01*
X35002734Y-155965629D01*
X35030647Y-155912818D01*
X35033414Y-155908026D01*
X35059288Y-155866849D01*
X35062405Y-155862278D01*
X35178516Y-155704952D01*
X35181966Y-155700625D01*
X35213695Y-155663755D01*
X35217459Y-155659698D01*
X35259698Y-155617459D01*
X35263755Y-155613695D01*
X35300625Y-155581966D01*
X35304952Y-155578516D01*
X35401743Y-155507081D01*
X34648402Y-154753740D01*
X33798459Y-155603682D01*
X32669917Y-155603682D01*
X31819975Y-154753740D01*
X30970032Y-155603682D01*
X29841490Y-155603682D01*
X28991548Y-154753740D01*
X28141605Y-155603682D01*
X27013063Y-155603682D01*
X26163120Y-154753739D01*
X25313178Y-155603682D01*
X24184635Y-155603682D01*
X23334693Y-154753739D01*
X22484750Y-155603682D01*
X21356208Y-155603682D01*
X20506266Y-154753739D01*
X20298500Y-154961506D01*
X19500500Y-154961506D01*
X19500500Y-154189469D01*
X21070538Y-154189469D01*
X21920480Y-155039411D01*
X22770422Y-154189469D01*
X23898965Y-154189469D01*
X24748907Y-155039411D01*
X25598849Y-154189469D01*
X26727392Y-154189469D01*
X27577334Y-155039411D01*
X28427276Y-154189469D01*
X29555819Y-154189469D01*
X30405761Y-155039411D01*
X31255703Y-154189469D01*
X32384246Y-154189469D01*
X33234188Y-155039411D01*
X34084130Y-154189469D01*
X34084129Y-154189468D01*
X35212673Y-154189468D01*
X35790571Y-154767366D01*
X35793377Y-154753263D01*
X35804426Y-154726587D01*
X35865207Y-154635623D01*
X35885623Y-154615207D01*
X35976587Y-154554426D01*
X36003263Y-154543377D01*
X36083475Y-154527422D01*
X36097912Y-154526000D01*
X36576027Y-154526000D01*
X36912558Y-154189469D01*
X36062615Y-153339526D01*
X35212673Y-154189468D01*
X34084129Y-154189468D01*
X33234188Y-153339526D01*
X32384246Y-154189469D01*
X31255703Y-154189469D01*
X30405761Y-153339527D01*
X29555819Y-154189469D01*
X28427276Y-154189469D01*
X27577334Y-153339527D01*
X26727392Y-154189469D01*
X25598849Y-154189469D01*
X24748907Y-153339527D01*
X23898965Y-154189469D01*
X22770422Y-154189469D01*
X21920480Y-153339527D01*
X21070538Y-154189469D01*
X19500500Y-154189469D01*
X19500500Y-152133079D01*
X20298500Y-152133079D01*
X20298500Y-153417431D01*
X20506266Y-153625197D01*
X21356208Y-152775255D01*
X22484751Y-152775255D01*
X23334693Y-153625197D01*
X24184635Y-152775255D01*
X25313178Y-152775255D01*
X26163120Y-153625197D01*
X27013063Y-152775255D01*
X28141606Y-152775255D01*
X28991548Y-153625197D01*
X29841490Y-152775255D01*
X30970033Y-152775255D01*
X31819975Y-153625197D01*
X32669917Y-152775255D01*
X33798460Y-152775255D01*
X34648402Y-153625197D01*
X35498344Y-152775255D01*
X36626887Y-152775255D01*
X37476829Y-153625197D01*
X38326771Y-152775255D01*
X37476829Y-151925313D01*
X36626887Y-152775255D01*
X35498344Y-152775255D01*
X34648402Y-151925313D01*
X33798460Y-152775255D01*
X32669917Y-152775255D01*
X31819975Y-151925313D01*
X30970033Y-152775255D01*
X29841490Y-152775255D01*
X28991548Y-151925313D01*
X28141606Y-152775255D01*
X27013063Y-152775255D01*
X26163120Y-151925312D01*
X25313178Y-152775255D01*
X24184635Y-152775255D01*
X23334693Y-151925312D01*
X22484751Y-152775255D01*
X21356208Y-152775255D01*
X20506266Y-151925312D01*
X20298500Y-152133079D01*
X19500500Y-152133079D01*
X19500500Y-151361042D01*
X21070538Y-151361042D01*
X21920480Y-152210984D01*
X22770422Y-151361042D01*
X23898965Y-151361042D01*
X24748907Y-152210984D01*
X25598849Y-151361042D01*
X26727392Y-151361042D01*
X27577334Y-152210984D01*
X28427276Y-151361042D01*
X29555819Y-151361042D01*
X30405761Y-152210984D01*
X31255703Y-151361042D01*
X32384246Y-151361042D01*
X33234188Y-152210984D01*
X34084130Y-151361042D01*
X35212673Y-151361042D01*
X36062615Y-152210984D01*
X36755403Y-151518197D01*
X38198256Y-151518197D01*
X38891043Y-152210984D01*
X39528527Y-151573500D01*
X38505727Y-151573500D01*
X38502095Y-151573411D01*
X38470207Y-151571844D01*
X38466582Y-151571576D01*
X38427586Y-151567733D01*
X38423984Y-151567289D01*
X38392430Y-151562608D01*
X38388852Y-151561987D01*
X38258112Y-151535981D01*
X38251068Y-151534217D01*
X38198256Y-151518197D01*
X36755403Y-151518197D01*
X36912558Y-151361042D01*
X36425516Y-150874000D01*
X35699716Y-150874000D01*
X35212673Y-151361042D01*
X34084130Y-151361042D01*
X33597088Y-150874000D01*
X32871288Y-150874000D01*
X32384246Y-151361042D01*
X31255703Y-151361042D01*
X30768661Y-150874000D01*
X30042861Y-150874000D01*
X29555819Y-151361042D01*
X28427276Y-151361042D01*
X27940234Y-150874000D01*
X27214434Y-150874000D01*
X26727392Y-151361042D01*
X25598849Y-151361042D01*
X25111807Y-150874000D01*
X24386007Y-150874000D01*
X23898965Y-151361042D01*
X22770422Y-151361042D01*
X22283380Y-150874000D01*
X21557580Y-150874000D01*
X21070538Y-151361042D01*
X19500500Y-151361042D01*
X19500500Y-150000000D01*
X38299500Y-150000000D01*
X38299500Y-150549674D01*
G37*
%TD.AperFunction*%
%TA.AperFunction,Conductor*%
G36*
X60499500Y-175425500D02*
G01*
X60477826Y-175477826D01*
X60425500Y-175499500D01*
X48941491Y-175499500D01*
X48889165Y-175477826D01*
X48867491Y-175425500D01*
X48883815Y-175379138D01*
X48908560Y-175348353D01*
X48950842Y-175295753D01*
X49033037Y-175130021D01*
X49077683Y-174950495D01*
X49080500Y-174908954D01*
X49080500Y-173464768D01*
X49878500Y-173464768D01*
X49878500Y-174512150D01*
X50067850Y-174701500D01*
X50341652Y-174701500D01*
X51054693Y-173988459D01*
X52183236Y-173988459D01*
X52896277Y-174701500D01*
X53106000Y-174701500D01*
X53106000Y-173988459D01*
X55011663Y-173988459D01*
X55724704Y-174701500D01*
X55998506Y-174701500D01*
X56711547Y-173988458D01*
X57840090Y-173988458D01*
X58553132Y-174701500D01*
X58826934Y-174701500D01*
X59539975Y-173988459D01*
X58690032Y-173138516D01*
X57840090Y-173988458D01*
X56711547Y-173988458D01*
X55861605Y-173138516D01*
X55011663Y-173988459D01*
X53106000Y-173988459D01*
X53106000Y-173211339D01*
X53033178Y-173138517D01*
X52183236Y-173988459D01*
X51054693Y-173988459D01*
X50204751Y-173138517D01*
X49878500Y-173464768D01*
X49080500Y-173464768D01*
X49080500Y-172574245D01*
X50769023Y-172574245D01*
X51618965Y-173424187D01*
X52468907Y-172574245D01*
X51618965Y-171724303D01*
X50769023Y-172574245D01*
X49080500Y-172574245D01*
X49080500Y-171911046D01*
X49077683Y-171869505D01*
X49033037Y-171689979D01*
X48950842Y-171524247D01*
X48915252Y-171479971D01*
X48834942Y-171380062D01*
X48834937Y-171380057D01*
X48690757Y-171264161D01*
X48690754Y-171264159D01*
X48690753Y-171264158D01*
X48525021Y-171181963D01*
X48345495Y-171137317D01*
X48345493Y-171137316D01*
X48345490Y-171137316D01*
X48303959Y-171134500D01*
X48303954Y-171134500D01*
X47431046Y-171134500D01*
X47407505Y-171136096D01*
X47387005Y-171137486D01*
X47333333Y-171119400D01*
X47308169Y-171068660D01*
X47308000Y-171063655D01*
X47308000Y-170978685D01*
X49536153Y-170978685D01*
X49586359Y-171041143D01*
X49588786Y-171044335D01*
X49609335Y-171072944D01*
X49611584Y-171076262D01*
X49634872Y-171112698D01*
X49636938Y-171116131D01*
X49654267Y-171146782D01*
X49656144Y-171150322D01*
X49757554Y-171354796D01*
X49759237Y-171358436D01*
X49773159Y-171390803D01*
X49774643Y-171394527D01*
X49789552Y-171435116D01*
X49790831Y-171438913D01*
X49801161Y-171472560D01*
X49802233Y-171476419D01*
X49845606Y-171650829D01*
X50204751Y-172009974D01*
X51054693Y-171160032D01*
X52183236Y-171160032D01*
X53033178Y-172009974D01*
X53109956Y-171933195D01*
X53121927Y-171873018D01*
X53132976Y-171846343D01*
X53183714Y-171770408D01*
X54401286Y-171770408D01*
X54452024Y-171846343D01*
X54463073Y-171873018D01*
X54477578Y-171945939D01*
X54479000Y-171960376D01*
X54479000Y-173392579D01*
X55297334Y-172574245D01*
X56425877Y-172574245D01*
X57275819Y-173424187D01*
X58125761Y-172574245D01*
X57275819Y-171724303D01*
X56425877Y-172574245D01*
X55297334Y-172574245D01*
X54447391Y-171724302D01*
X54401286Y-171770408D01*
X53183714Y-171770408D01*
X53188231Y-171763648D01*
X53208648Y-171743231D01*
X53291343Y-171687976D01*
X53318018Y-171676927D01*
X53378195Y-171664956D01*
X53883120Y-171160031D01*
X55011662Y-171160031D01*
X55861605Y-172009974D01*
X56711547Y-171160031D01*
X57840090Y-171160031D01*
X58690032Y-172009974D01*
X59539975Y-171160031D01*
X58690032Y-170310089D01*
X57840090Y-171160031D01*
X56711547Y-171160031D01*
X55861605Y-170310089D01*
X55011662Y-171160031D01*
X53883120Y-171160031D01*
X53759141Y-171036052D01*
X53624154Y-171020844D01*
X53620045Y-171020264D01*
X53584103Y-171014158D01*
X53580035Y-171013349D01*
X53536372Y-171003386D01*
X53532349Y-171002348D01*
X53497283Y-170992246D01*
X53493328Y-170990985D01*
X53280788Y-170916615D01*
X53276910Y-170915135D01*
X53243229Y-170901184D01*
X53239443Y-170899490D01*
X53227003Y-170893500D01*
X52449768Y-170893500D01*
X52183236Y-171160032D01*
X51054693Y-171160032D01*
X50788161Y-170893500D01*
X49621341Y-170893500D01*
X49536153Y-170978685D01*
X47308000Y-170978685D01*
X47308000Y-170311850D01*
X47329674Y-170259524D01*
X47373712Y-170238316D01*
X47444255Y-170230368D01*
X47614522Y-170170789D01*
X47716292Y-170106843D01*
X47755663Y-170095500D01*
X53424337Y-170095500D01*
X53463708Y-170106843D01*
X53565478Y-170170789D01*
X53735745Y-170230368D01*
X53870046Y-170245500D01*
X53870050Y-170245500D01*
X54509950Y-170245500D01*
X54509954Y-170245500D01*
X54644255Y-170230368D01*
X54712481Y-170206494D01*
X54814520Y-170170790D01*
X54814522Y-170170789D01*
X54967262Y-170074816D01*
X55094816Y-169947262D01*
X55190789Y-169794522D01*
X55207831Y-169745818D01*
X56425877Y-169745818D01*
X57275819Y-170595760D01*
X58125761Y-169745818D01*
X57275819Y-168895876D01*
X56425877Y-169745818D01*
X55207831Y-169745818D01*
X55250368Y-169624255D01*
X55265500Y-169489954D01*
X55265500Y-169000046D01*
X55250368Y-168865745D01*
X55209883Y-168750045D01*
X55190790Y-168695479D01*
X55145454Y-168623328D01*
X55094816Y-168542738D01*
X54967262Y-168415184D01*
X54900491Y-168373229D01*
X54814520Y-168319209D01*
X54742384Y-168293968D01*
X54700153Y-168256228D01*
X54696978Y-168199680D01*
X54722881Y-168164582D01*
X54787150Y-168117150D01*
X54858488Y-168020490D01*
X55698482Y-168020490D01*
X55702045Y-168024477D01*
X55704720Y-168027645D01*
X55732647Y-168062657D01*
X55735145Y-168065976D01*
X55756271Y-168095747D01*
X55758580Y-168099201D01*
X55878394Y-168289883D01*
X55880504Y-168293461D01*
X55898155Y-168325401D01*
X55900061Y-168329091D01*
X55919491Y-168369444D01*
X55921184Y-168373229D01*
X55935135Y-168406910D01*
X55936615Y-168410788D01*
X56010985Y-168623328D01*
X56012246Y-168627283D01*
X56022348Y-168662349D01*
X56023386Y-168666372D01*
X56033349Y-168710035D01*
X56034158Y-168714103D01*
X56040264Y-168750045D01*
X56040844Y-168754154D01*
X56059735Y-168921815D01*
X56059938Y-168923878D01*
X56061470Y-168942034D01*
X56061615Y-168944104D01*
X56062871Y-168966455D01*
X56062959Y-168968531D01*
X56063277Y-168979874D01*
X56711547Y-168331604D01*
X57840090Y-168331604D01*
X58690032Y-169181546D01*
X59539975Y-168331604D01*
X58690032Y-167481661D01*
X57840090Y-168331604D01*
X56711547Y-168331604D01*
X55968442Y-167588499D01*
X55754768Y-167588499D01*
X55713500Y-167629767D01*
X55713500Y-167858606D01*
X55713480Y-167860337D01*
X55713124Y-167875552D01*
X55713063Y-167877288D01*
X55712189Y-167895924D01*
X55712088Y-167897642D01*
X55711025Y-167912777D01*
X55710884Y-167914502D01*
X55704896Y-167978347D01*
X55704341Y-167982805D01*
X55698482Y-168020490D01*
X54858488Y-168020490D01*
X54867793Y-168007882D01*
X54912646Y-167879699D01*
X54915500Y-167849266D01*
X54915500Y-167340734D01*
X54913769Y-167322278D01*
X56830764Y-167322278D01*
X57275819Y-167767333D01*
X58125761Y-166917391D01*
X57492791Y-166284421D01*
X57491655Y-166295550D01*
X57491136Y-166299549D01*
X57485618Y-166334562D01*
X57484881Y-166338530D01*
X57475768Y-166381107D01*
X57474816Y-166385029D01*
X57465510Y-166419266D01*
X57464345Y-166423133D01*
X57395003Y-166632392D01*
X57393530Y-166636437D01*
X57379562Y-166671595D01*
X57377857Y-166675548D01*
X57358228Y-166717641D01*
X57356296Y-166721488D01*
X57338347Y-166754774D01*
X57336196Y-166758500D01*
X57219719Y-166947341D01*
X57217354Y-166950936D01*
X57195669Y-166981907D01*
X57193101Y-166985357D01*
X57164296Y-167021792D01*
X57161528Y-167025092D01*
X57136368Y-167053366D01*
X57133412Y-167056499D01*
X56976499Y-167213412D01*
X56973366Y-167216368D01*
X56945092Y-167241528D01*
X56941792Y-167244296D01*
X56905357Y-167273101D01*
X56901907Y-167275669D01*
X56870936Y-167297354D01*
X56867340Y-167299719D01*
X56830764Y-167322278D01*
X54913769Y-167322278D01*
X54912646Y-167310301D01*
X54880873Y-167219500D01*
X54867793Y-167182118D01*
X54867792Y-167182116D01*
X54787153Y-167072853D01*
X54787146Y-167072846D01*
X54677883Y-166992207D01*
X54677881Y-166992206D01*
X54549704Y-166947355D01*
X54549705Y-166947355D01*
X54549700Y-166947354D01*
X54549699Y-166947354D01*
X54519266Y-166944500D01*
X53860734Y-166944500D01*
X53830301Y-166947354D01*
X53830299Y-166947354D01*
X53830295Y-166947355D01*
X53702118Y-166992206D01*
X53702116Y-166992207D01*
X53618333Y-167054042D01*
X53563362Y-167067675D01*
X53522065Y-167046828D01*
X53392062Y-166916825D01*
X53370388Y-166864499D01*
X53392062Y-166812173D01*
X53444388Y-166790499D01*
X56010001Y-166790499D01*
X56010008Y-166790499D01*
X56112797Y-166779999D01*
X56279334Y-166724814D01*
X56428656Y-166632712D01*
X56552712Y-166508656D01*
X56644814Y-166359334D01*
X56699999Y-166192797D01*
X56710500Y-166090009D01*
X56710499Y-165503177D01*
X57840090Y-165503177D01*
X58690032Y-166353119D01*
X59539975Y-165503177D01*
X58690032Y-164653234D01*
X57840090Y-165503177D01*
X56710499Y-165503177D01*
X56710499Y-164989992D01*
X56699999Y-164887203D01*
X56644814Y-164720666D01*
X56552712Y-164571344D01*
X56428656Y-164447288D01*
X56279334Y-164355186D01*
X56177677Y-164321500D01*
X56112798Y-164300001D01*
X56092239Y-164297900D01*
X56010009Y-164289500D01*
X56010005Y-164289500D01*
X55009500Y-164289500D01*
X54957174Y-164267826D01*
X54935500Y-164215500D01*
X54935500Y-163729625D01*
X56785214Y-163729625D01*
X56867341Y-163780281D01*
X56870936Y-163782646D01*
X56901907Y-163804331D01*
X56905357Y-163806899D01*
X56941792Y-163835704D01*
X56945092Y-163838472D01*
X56973366Y-163863632D01*
X56976499Y-163866588D01*
X57133412Y-164023501D01*
X57136368Y-164026634D01*
X57161528Y-164054908D01*
X57164296Y-164058208D01*
X57193101Y-164094643D01*
X57195669Y-164098093D01*
X57217354Y-164129064D01*
X57219719Y-164132659D01*
X57336196Y-164321500D01*
X57338347Y-164325226D01*
X57356296Y-164358512D01*
X57358228Y-164362359D01*
X57377857Y-164404452D01*
X57379562Y-164408405D01*
X57393530Y-164443563D01*
X57395003Y-164447608D01*
X57464345Y-164656867D01*
X57465510Y-164660734D01*
X57474816Y-164694971D01*
X57475768Y-164698894D01*
X57482830Y-164731893D01*
X58125760Y-164088963D01*
X57275818Y-163239021D01*
X56785214Y-163729625D01*
X54935500Y-163729625D01*
X54935500Y-161952913D01*
X55733500Y-161952913D01*
X55733500Y-163396587D01*
X55828413Y-163491500D01*
X55894797Y-163491500D01*
X56711546Y-162674750D01*
X57840090Y-162674750D01*
X58690032Y-163524692D01*
X59539975Y-162674750D01*
X58690032Y-161824807D01*
X57840090Y-162674750D01*
X56711546Y-162674750D01*
X56711547Y-162674749D01*
X55861605Y-161824807D01*
X55733500Y-161952913D01*
X54935500Y-161952913D01*
X54935500Y-161260536D01*
X56425876Y-161260536D01*
X57275819Y-162110479D01*
X58125761Y-161260536D01*
X57275819Y-160410594D01*
X56425876Y-161260536D01*
X54935500Y-161260536D01*
X54935500Y-160563835D01*
X54957174Y-160511509D01*
X55003695Y-160490063D01*
X55033627Y-160487709D01*
X55185390Y-160443618D01*
X55321420Y-160363170D01*
X55433170Y-160251420D01*
X55513618Y-160115390D01*
X55557709Y-159963627D01*
X55560500Y-159928163D01*
X55560500Y-159846323D01*
X57840090Y-159846323D01*
X58690032Y-160696265D01*
X59539975Y-159846323D01*
X58690032Y-158996380D01*
X57840090Y-159846323D01*
X55560500Y-159846323D01*
X55560499Y-158801189D01*
X55582172Y-158748865D01*
X55587375Y-158743663D01*
X55624182Y-158679910D01*
X55636810Y-158658038D01*
X55662399Y-158562537D01*
X55662400Y-158562537D01*
X55662400Y-158166000D01*
X56691986Y-158166000D01*
X57270588Y-158166000D01*
X57281257Y-158166773D01*
X57354150Y-158177393D01*
X57375982Y-158184139D01*
X57488418Y-158239106D01*
X57508243Y-158253261D01*
X57596739Y-158341757D01*
X57610894Y-158361582D01*
X57665861Y-158474018D01*
X57672607Y-158495850D01*
X57683227Y-158568743D01*
X57684000Y-158579412D01*
X57684000Y-158873871D01*
X58125761Y-158432109D01*
X57275818Y-157582167D01*
X56691986Y-158166000D01*
X55662400Y-158166000D01*
X55662400Y-157017896D01*
X57840090Y-157017896D01*
X58690032Y-157867838D01*
X59539975Y-157017896D01*
X58690032Y-156167953D01*
X57840090Y-157017896D01*
X55662400Y-157017896D01*
X55662400Y-156295866D01*
X55649565Y-156247963D01*
X55649565Y-156247962D01*
X55636812Y-156200367D01*
X55636811Y-156200363D01*
X55587375Y-156114737D01*
X55189563Y-155716926D01*
X55189562Y-155716925D01*
X55161330Y-155700625D01*
X55103942Y-155667492D01*
X55103933Y-155667488D01*
X55056185Y-155654694D01*
X55056184Y-155654694D01*
X55008438Y-155641900D01*
X55008436Y-155641900D01*
X55008435Y-155641900D01*
X53330708Y-155641900D01*
X53278382Y-155620226D01*
X53271529Y-155603682D01*
X56425876Y-155603682D01*
X57275819Y-156453624D01*
X58125761Y-155603682D01*
X57275819Y-154753740D01*
X56425876Y-155603682D01*
X53271529Y-155603682D01*
X53256708Y-155567900D01*
X53271167Y-155523958D01*
X53297793Y-155487882D01*
X53342646Y-155359699D01*
X53345500Y-155329266D01*
X53345500Y-154820734D01*
X53342646Y-154790301D01*
X53336367Y-154772358D01*
X53297793Y-154662118D01*
X53297792Y-154662116D01*
X53217153Y-154552853D01*
X53217146Y-154552846D01*
X53107883Y-154472207D01*
X53107881Y-154472206D01*
X53045059Y-154450223D01*
X53002828Y-154412483D01*
X52995500Y-154380376D01*
X52995500Y-154189469D01*
X55011663Y-154189469D01*
X55861605Y-155039411D01*
X56711547Y-154189469D01*
X57840090Y-154189469D01*
X58690032Y-155039411D01*
X59539975Y-154189469D01*
X58690032Y-153339526D01*
X57840090Y-154189469D01*
X56711547Y-154189469D01*
X55861605Y-153339526D01*
X55011663Y-154189469D01*
X52995500Y-154189469D01*
X52995500Y-152579205D01*
X53793500Y-152579205D01*
X53793500Y-152971305D01*
X53812313Y-152990118D01*
X53971067Y-152990118D01*
X53985504Y-152991540D01*
X54169042Y-153028048D01*
X54182924Y-153032259D01*
X54355813Y-153103872D01*
X54368606Y-153110710D01*
X54524202Y-153214676D01*
X54535416Y-153223879D01*
X54667739Y-153356202D01*
X54676942Y-153367416D01*
X54688249Y-153384338D01*
X55297332Y-152775255D01*
X56425877Y-152775255D01*
X57275819Y-153625197D01*
X58125761Y-152775255D01*
X57275819Y-151925313D01*
X56425877Y-152775255D01*
X55297332Y-152775255D01*
X55297333Y-152775254D01*
X54447392Y-151925313D01*
X53793500Y-152579205D01*
X52995500Y-152579205D01*
X52995500Y-151361042D01*
X55011663Y-151361042D01*
X55861605Y-152210984D01*
X56711547Y-151361042D01*
X57840090Y-151361042D01*
X58690032Y-152210984D01*
X59539975Y-151361042D01*
X59052933Y-150874000D01*
X58327133Y-150874000D01*
X57840090Y-151361042D01*
X56711547Y-151361042D01*
X56224505Y-150874000D01*
X55498705Y-150874000D01*
X55011663Y-151361042D01*
X52995500Y-151361042D01*
X52995500Y-150000000D01*
X60499500Y-150000000D01*
X60499500Y-175425500D01*
G37*
%TD.AperFunction*%
%TA.AperFunction,Conductor*%
G36*
X51872925Y-156414574D02*
G01*
X51894599Y-156466900D01*
X51894517Y-156470378D01*
X51894500Y-156470728D01*
X51894500Y-156470734D01*
X51894500Y-156979266D01*
X51897354Y-157009699D01*
X51897354Y-157009701D01*
X51897355Y-157009704D01*
X51942206Y-157137881D01*
X51942207Y-157137883D01*
X52022846Y-157247146D01*
X52022853Y-157247153D01*
X52132115Y-157327791D01*
X52132118Y-157327793D01*
X52194942Y-157349776D01*
X52237171Y-157387514D01*
X52244500Y-157419622D01*
X52244500Y-157915500D01*
X52222826Y-157967826D01*
X52170500Y-157989500D01*
X51821837Y-157989500D01*
X51821836Y-157989501D01*
X51786370Y-157992291D01*
X51634608Y-158036382D01*
X51498579Y-158116830D01*
X51386830Y-158228579D01*
X51306382Y-158364608D01*
X51262291Y-158516370D01*
X51259500Y-158551837D01*
X51259500Y-159928160D01*
X51259501Y-159928162D01*
X51262291Y-159963629D01*
X51306382Y-160115391D01*
X51372234Y-160226739D01*
X51386830Y-160251420D01*
X51498580Y-160363170D01*
X51634610Y-160443618D01*
X51786370Y-160487708D01*
X51786369Y-160487708D01*
X51786373Y-160487709D01*
X51821837Y-160490500D01*
X52698162Y-160490499D01*
X52733627Y-160487709D01*
X52885390Y-160443618D01*
X53021420Y-160363170D01*
X53133170Y-160251420D01*
X53213618Y-160115390D01*
X53257709Y-159963627D01*
X53260500Y-159928163D01*
X53260499Y-158551838D01*
X53257709Y-158516373D01*
X53213618Y-158364610D01*
X53133170Y-158228580D01*
X53021420Y-158116830D01*
X53018128Y-158113538D01*
X53019986Y-158111679D01*
X52996077Y-158069698D01*
X52995500Y-158060471D01*
X52995500Y-157419622D01*
X53017174Y-157367296D01*
X53045055Y-157349776D01*
X53107882Y-157327793D01*
X53217150Y-157247150D01*
X53297793Y-157137882D01*
X53297792Y-157137882D01*
X53301087Y-157133419D01*
X53302928Y-157134778D01*
X53340315Y-157103791D01*
X53362139Y-157100500D01*
X53747861Y-157100500D01*
X53800187Y-157122174D01*
X53808635Y-157133623D01*
X53808913Y-157133419D01*
X53892849Y-157247149D01*
X53892853Y-157247153D01*
X54002116Y-157327792D01*
X54002118Y-157327793D01*
X54130295Y-157372644D01*
X54130301Y-157372646D01*
X54160734Y-157375500D01*
X54160741Y-157375500D01*
X54819260Y-157375500D01*
X54819266Y-157375500D01*
X54830487Y-157374447D01*
X54884608Y-157391137D01*
X54911076Y-157441209D01*
X54911400Y-157448123D01*
X54911400Y-157915500D01*
X54889726Y-157967826D01*
X54837400Y-157989500D01*
X54121837Y-157989500D01*
X54121836Y-157989501D01*
X54086370Y-157992291D01*
X53934608Y-158036382D01*
X53798579Y-158116830D01*
X53686830Y-158228579D01*
X53606382Y-158364608D01*
X53562291Y-158516370D01*
X53559500Y-158551837D01*
X53559500Y-159928160D01*
X53559501Y-159928162D01*
X53562291Y-159963629D01*
X53606382Y-160115391D01*
X53672234Y-160226739D01*
X53686830Y-160251420D01*
X53798580Y-160363170D01*
X53934610Y-160443618D01*
X54086370Y-160487708D01*
X54086369Y-160487708D01*
X54086373Y-160487709D01*
X54116306Y-160490064D01*
X54166769Y-160515776D01*
X54184500Y-160563836D01*
X54184500Y-164215500D01*
X54162826Y-164267826D01*
X54110500Y-164289500D01*
X53109999Y-164289500D01*
X53109993Y-164289500D01*
X53109992Y-164289501D01*
X53058597Y-164294751D01*
X53007202Y-164300001D01*
X52840666Y-164355186D01*
X52691344Y-164447288D01*
X52567288Y-164571344D01*
X52475186Y-164720666D01*
X52420001Y-164887201D01*
X52409500Y-164989994D01*
X52409500Y-165755611D01*
X52387826Y-165807937D01*
X52335500Y-165829611D01*
X52283174Y-165807937D01*
X50102341Y-163627104D01*
X51230883Y-163627104D01*
X51837775Y-164233996D01*
X51900281Y-164132659D01*
X51902646Y-164129064D01*
X51924331Y-164098093D01*
X51926899Y-164094643D01*
X51955704Y-164058208D01*
X51958472Y-164054908D01*
X51983632Y-164026634D01*
X51986588Y-164023501D01*
X52143501Y-163866588D01*
X52146634Y-163863632D01*
X52174908Y-163838472D01*
X52178208Y-163835704D01*
X52199116Y-163819173D01*
X51618965Y-163239022D01*
X51230883Y-163627104D01*
X50102341Y-163627104D01*
X48688127Y-162212890D01*
X49816669Y-162212890D01*
X50666611Y-163062832D01*
X51054693Y-162674750D01*
X52183236Y-162674750D01*
X53006414Y-163497928D01*
X53038987Y-163494602D01*
X53040859Y-163494435D01*
X53057323Y-163493175D01*
X53059199Y-163493055D01*
X53065115Y-163492753D01*
X53386500Y-163171369D01*
X53386500Y-162178130D01*
X53033178Y-161824808D01*
X52183236Y-162674750D01*
X51054693Y-162674750D01*
X50204751Y-161824808D01*
X49816669Y-162212890D01*
X48688127Y-162212890D01*
X48638974Y-162163737D01*
X48617300Y-162111411D01*
X48617300Y-161260536D01*
X50769022Y-161260536D01*
X51618965Y-162110479D01*
X52440944Y-161288499D01*
X51807631Y-161288500D01*
X51804729Y-161288443D01*
X51776314Y-161287328D01*
X51773409Y-161287157D01*
X51703458Y-161281651D01*
X51699706Y-161281259D01*
X51666821Y-161276975D01*
X51663089Y-161276392D01*
X51623001Y-161269073D01*
X51619303Y-161268299D01*
X51586974Y-161260673D01*
X51583318Y-161259712D01*
X51387892Y-161202936D01*
X51383471Y-161201499D01*
X51345037Y-161187662D01*
X51340716Y-161185952D01*
X51294675Y-161166030D01*
X51290466Y-161164049D01*
X51254059Y-161145498D01*
X51249986Y-161143259D01*
X51070780Y-161037276D01*
X51066856Y-161034786D01*
X51033077Y-161011831D01*
X51029318Y-161009100D01*
X51024328Y-161005230D01*
X50769022Y-161260536D01*
X48617300Y-161260536D01*
X48617300Y-160304267D01*
X49812753Y-160304267D01*
X50204750Y-160696264D01*
X50545227Y-160355787D01*
X50490287Y-160166678D01*
X50489326Y-160163023D01*
X50481698Y-160130687D01*
X50480924Y-160126984D01*
X50473606Y-160086890D01*
X50473023Y-160083162D01*
X50468739Y-160050275D01*
X50468347Y-160046520D01*
X50462845Y-159976585D01*
X50462674Y-159973686D01*
X50461558Y-159945282D01*
X50461501Y-159942377D01*
X50461500Y-159253130D01*
X50204751Y-158996381D01*
X50154000Y-159047132D01*
X50154000Y-159900588D01*
X50153227Y-159911257D01*
X50142607Y-159984150D01*
X50135861Y-160005982D01*
X50080894Y-160118418D01*
X50066739Y-160138243D01*
X49978243Y-160226739D01*
X49958418Y-160240894D01*
X49845982Y-160295861D01*
X49824150Y-160302607D01*
X49812753Y-160304267D01*
X48617300Y-160304267D01*
X48617300Y-158457363D01*
X48617299Y-158457362D01*
X48591711Y-158361865D01*
X48591709Y-158361860D01*
X48542274Y-158276237D01*
X47920762Y-157654725D01*
X47835142Y-157605292D01*
X47835133Y-157605288D01*
X47787385Y-157592494D01*
X47787384Y-157592494D01*
X47739638Y-157579700D01*
X47739636Y-157579700D01*
X47739635Y-157579700D01*
X46434236Y-157579700D01*
X46335364Y-157579700D01*
X46335363Y-157579700D01*
X46326157Y-157582167D01*
X46287613Y-157592495D01*
X46260042Y-157599882D01*
X46239860Y-157605290D01*
X46154237Y-157654725D01*
X45649438Y-158159525D01*
X45649433Y-158159530D01*
X45644097Y-158164865D01*
X45591769Y-158186534D01*
X45539450Y-158164860D01*
X45491420Y-158116830D01*
X45355389Y-158036381D01*
X45348852Y-158034482D01*
X45304652Y-157999068D01*
X45295500Y-157963421D01*
X45295500Y-157419622D01*
X45317174Y-157367296D01*
X45345055Y-157349776D01*
X45407882Y-157327793D01*
X45517150Y-157247150D01*
X45597793Y-157137882D01*
X45597792Y-157137882D01*
X45601087Y-157133419D01*
X45602928Y-157134778D01*
X45640315Y-157103791D01*
X45662139Y-157100500D01*
X47737861Y-157100500D01*
X47790187Y-157122174D01*
X47798635Y-157133623D01*
X47798913Y-157133419D01*
X47882849Y-157247149D01*
X47882853Y-157247153D01*
X47992116Y-157327792D01*
X47992118Y-157327793D01*
X48120295Y-157372644D01*
X48120301Y-157372646D01*
X48150734Y-157375500D01*
X48150741Y-157375500D01*
X48809258Y-157375500D01*
X48809266Y-157375500D01*
X48839699Y-157372646D01*
X48967882Y-157327793D01*
X49077150Y-157247150D01*
X49157793Y-157137882D01*
X49202646Y-157009699D01*
X49205500Y-156979266D01*
X49205500Y-156470734D01*
X49205499Y-156470728D01*
X49205483Y-156470378D01*
X49205500Y-156470330D01*
X49205500Y-156469004D01*
X49205978Y-156469004D01*
X49224674Y-156417091D01*
X49275923Y-156392982D01*
X49279401Y-156392900D01*
X51820599Y-156392900D01*
X51872925Y-156414574D01*
G37*
%TD.AperFunction*%
%TA.AperFunction,Conductor*%
G36*
X44172925Y-156414574D02*
G01*
X44194599Y-156466900D01*
X44194517Y-156470378D01*
X44194500Y-156470728D01*
X44194500Y-156470734D01*
X44194500Y-156979266D01*
X44197354Y-157009699D01*
X44197354Y-157009701D01*
X44197355Y-157009704D01*
X44242206Y-157137881D01*
X44242207Y-157137883D01*
X44322846Y-157247146D01*
X44322853Y-157247153D01*
X44432115Y-157327791D01*
X44432118Y-157327793D01*
X44494942Y-157349776D01*
X44537171Y-157387514D01*
X44544500Y-157419622D01*
X44544500Y-157915500D01*
X44522826Y-157967826D01*
X44470500Y-157989500D01*
X44291837Y-157989500D01*
X44291836Y-157989501D01*
X44256370Y-157992291D01*
X44104608Y-158036382D01*
X43968579Y-158116830D01*
X43856830Y-158228579D01*
X43776382Y-158364608D01*
X43732291Y-158516370D01*
X43729500Y-158551837D01*
X43729500Y-159928160D01*
X43729501Y-159928162D01*
X43732291Y-159963629D01*
X43758911Y-160055255D01*
X43752696Y-160111550D01*
X43708494Y-160146962D01*
X43687849Y-160149900D01*
X40652151Y-160149900D01*
X40599825Y-160128226D01*
X40578151Y-160075900D01*
X40581089Y-160055255D01*
X40595404Y-160005982D01*
X40607709Y-159963627D01*
X40610500Y-159928163D01*
X40610499Y-158551838D01*
X40607709Y-158516373D01*
X40563618Y-158364610D01*
X40483170Y-158228580D01*
X40371420Y-158116830D01*
X40362710Y-158111679D01*
X40235391Y-158036382D01*
X40083627Y-157992291D01*
X40083630Y-157992291D01*
X40057029Y-157990197D01*
X40048163Y-157989500D01*
X40048162Y-157989500D01*
X39607788Y-157989500D01*
X39555462Y-157967826D01*
X39533788Y-157915500D01*
X39555462Y-157863174D01*
X40070864Y-157347773D01*
X41199405Y-157347773D01*
X41719470Y-157867838D01*
X42396408Y-157190900D01*
X41356280Y-157190900D01*
X41199405Y-157347773D01*
X40070864Y-157347773D01*
X40227737Y-157190900D01*
X41004063Y-156414574D01*
X41056389Y-156392900D01*
X44120599Y-156392900D01*
X44172925Y-156414574D01*
G37*
%TD.AperFunction*%
%TD*%
%TA.AperFunction,Conductor*%
%TO.N,GND*%
G36*
X21697826Y-41522174D02*
G01*
X21719500Y-41574500D01*
X21719500Y-43174674D01*
X21732332Y-43239185D01*
X21734034Y-43247740D01*
X21782231Y-43319874D01*
X21789399Y-43330601D01*
X21872260Y-43385966D01*
X21945326Y-43400500D01*
X21945328Y-43400500D01*
X23694672Y-43400500D01*
X23694674Y-43400500D01*
X23767740Y-43385966D01*
X23850601Y-43330601D01*
X23905966Y-43247740D01*
X23920500Y-43174674D01*
X23920500Y-41574500D01*
X23942174Y-41522174D01*
X23994500Y-41500500D01*
X24840114Y-41500500D01*
X24892440Y-41522174D01*
X24914114Y-41574500D01*
X24904200Y-41611500D01*
X24870416Y-41670013D01*
X24870414Y-41670018D01*
X24832900Y-41810022D01*
X24832900Y-41954977D01*
X24870414Y-42094981D01*
X24870416Y-42094986D01*
X24942891Y-42220515D01*
X24986226Y-42263850D01*
X25007900Y-42316176D01*
X25007900Y-56980937D01*
X25033488Y-57076434D01*
X25033490Y-57076439D01*
X25082925Y-57162062D01*
X26990426Y-59069563D01*
X27012100Y-59121889D01*
X27012100Y-59183177D01*
X27049614Y-59323181D01*
X27049617Y-59323189D01*
X27052685Y-59328502D01*
X27060076Y-59384655D01*
X27025596Y-59429587D01*
X26988598Y-59439500D01*
X26665980Y-59439500D01*
X26572195Y-59454353D01*
X26572193Y-59454354D01*
X26459157Y-59511950D01*
X26369451Y-59601656D01*
X26311853Y-59714698D01*
X26297000Y-59808480D01*
X26297000Y-60171519D01*
X26311853Y-60265304D01*
X26311854Y-60265306D01*
X26369450Y-60378342D01*
X26403782Y-60412674D01*
X26425456Y-60465000D01*
X26403782Y-60517326D01*
X26369451Y-60551656D01*
X26311853Y-60664698D01*
X26297000Y-60758480D01*
X26297000Y-61121519D01*
X26311853Y-61215304D01*
X26311854Y-61215306D01*
X26369450Y-61328342D01*
X26403782Y-61362674D01*
X26425456Y-61415000D01*
X26403782Y-61467326D01*
X26369451Y-61501656D01*
X26311853Y-61614698D01*
X26297000Y-61708480D01*
X26297000Y-62071519D01*
X26311853Y-62165304D01*
X26311854Y-62165306D01*
X26369450Y-62278342D01*
X26459158Y-62368050D01*
X26572196Y-62425646D01*
X26597075Y-62429586D01*
X26645366Y-62459178D01*
X26659500Y-62502675D01*
X26659500Y-62938503D01*
X26637826Y-62990829D01*
X26599937Y-63011081D01*
X26545561Y-63021897D01*
X26545557Y-63021898D01*
X26427176Y-63070933D01*
X26324912Y-63139263D01*
X26269363Y-63150312D01*
X26222271Y-63118846D01*
X26209800Y-63077734D01*
X26209800Y-62936323D01*
X26209799Y-62936322D01*
X26172285Y-62796318D01*
X26172283Y-62796313D01*
X26099808Y-62670784D01*
X25997315Y-62568291D01*
X25871786Y-62495816D01*
X25871781Y-62495814D01*
X25748175Y-62462693D01*
X25703242Y-62428214D01*
X25695850Y-62372062D01*
X25715003Y-62338889D01*
X25775547Y-62278345D01*
X25775550Y-62278342D01*
X25833146Y-62165304D01*
X25848000Y-62071519D01*
X25847999Y-61708482D01*
X25833146Y-61614696D01*
X25833146Y-61614695D01*
X25833145Y-61614693D01*
X25775549Y-61501657D01*
X25741218Y-61467326D01*
X25719544Y-61415000D01*
X25741218Y-61362674D01*
X25755473Y-61348419D01*
X25775550Y-61328342D01*
X25833146Y-61215304D01*
X25848000Y-61121519D01*
X25847999Y-60758482D01*
X25844359Y-60735500D01*
X25833146Y-60664695D01*
X25833145Y-60664693D01*
X25775549Y-60551657D01*
X25741218Y-60517326D01*
X25719544Y-60465000D01*
X25741218Y-60412674D01*
X25741219Y-60412673D01*
X25775550Y-60378342D01*
X25833146Y-60265304D01*
X25848000Y-60171519D01*
X25847999Y-59808482D01*
X25845417Y-59792181D01*
X25833146Y-59714695D01*
X25833145Y-59714693D01*
X25775549Y-59601657D01*
X25685843Y-59511951D01*
X25685842Y-59511950D01*
X25572804Y-59454354D01*
X25572802Y-59454353D01*
X25572801Y-59454353D01*
X25479020Y-59439500D01*
X25479019Y-59439500D01*
X24946189Y-59439500D01*
X24893863Y-59417826D01*
X24755262Y-59279225D01*
X24669639Y-59229790D01*
X24646342Y-59223547D01*
X24582693Y-59206493D01*
X24582692Y-59206492D01*
X24582690Y-59206491D01*
X24582690Y-59206492D01*
X24574138Y-59204200D01*
X24574136Y-59204200D01*
X24574135Y-59204200D01*
X23613476Y-59204200D01*
X23561150Y-59182526D01*
X23517815Y-59139191D01*
X23392286Y-59066716D01*
X23392281Y-59066714D01*
X23252277Y-59029200D01*
X23252275Y-59029200D01*
X23107325Y-59029200D01*
X23107323Y-59029200D01*
X22967318Y-59066714D01*
X22967313Y-59066716D01*
X22841784Y-59139191D01*
X22739291Y-59241684D01*
X22666816Y-59367213D01*
X22666814Y-59367218D01*
X22629300Y-59507222D01*
X22629300Y-59652177D01*
X22666814Y-59792181D01*
X22666816Y-59792186D01*
X22676225Y-59808482D01*
X22739291Y-59917715D01*
X22841785Y-60020209D01*
X22967315Y-60092684D01*
X22967316Y-60092684D01*
X22967318Y-60092685D01*
X23037320Y-60111442D01*
X23107322Y-60130199D01*
X23107323Y-60130200D01*
X23107325Y-60130200D01*
X23252277Y-60130200D01*
X23252277Y-60130199D01*
X23392285Y-60092684D01*
X23517815Y-60020209D01*
X23561150Y-59976874D01*
X23613476Y-59955200D01*
X23948000Y-59955200D01*
X24000326Y-59976874D01*
X24022000Y-60029199D01*
X24022000Y-60171519D01*
X24036853Y-60265304D01*
X24036854Y-60265306D01*
X24094450Y-60378342D01*
X24128782Y-60412674D01*
X24150456Y-60465000D01*
X24128783Y-60517325D01*
X24103282Y-60542825D01*
X24050958Y-60564500D01*
X22442139Y-60564500D01*
X22389813Y-60542826D01*
X22381364Y-60531376D01*
X22381087Y-60531581D01*
X22297150Y-60417850D01*
X22297146Y-60417846D01*
X22187883Y-60337207D01*
X22187881Y-60337206D01*
X22059704Y-60292355D01*
X22059705Y-60292355D01*
X22059700Y-60292354D01*
X22059699Y-60292354D01*
X22029266Y-60289500D01*
X21370734Y-60289500D01*
X21340301Y-60292354D01*
X21340299Y-60292354D01*
X21340295Y-60292355D01*
X21212118Y-60337206D01*
X21212116Y-60337207D01*
X21102853Y-60417846D01*
X21102846Y-60417853D01*
X21022207Y-60527116D01*
X21022206Y-60527118D01*
X20977355Y-60655295D01*
X20977354Y-60655299D01*
X20977354Y-60655301D01*
X20974500Y-60685734D01*
X20974500Y-61194266D01*
X20977354Y-61224699D01*
X20977354Y-61224701D01*
X20977355Y-61224704D01*
X21022206Y-61352881D01*
X21022207Y-61352883D01*
X21102846Y-61462146D01*
X21102853Y-61462153D01*
X21212116Y-61542792D01*
X21212118Y-61542793D01*
X21340295Y-61587644D01*
X21340301Y-61587646D01*
X21370734Y-61590500D01*
X21370741Y-61590500D01*
X22029258Y-61590500D01*
X22029266Y-61590500D01*
X22059699Y-61587646D01*
X22187882Y-61542793D01*
X22297150Y-61462150D01*
X22377793Y-61352882D01*
X22377792Y-61352882D01*
X22381087Y-61348419D01*
X22382928Y-61349778D01*
X22420315Y-61318791D01*
X22442139Y-61315500D01*
X24050957Y-61315500D01*
X24103281Y-61337173D01*
X24128782Y-61362674D01*
X24150456Y-61414999D01*
X24128783Y-61467324D01*
X24094451Y-61501656D01*
X24036853Y-61614698D01*
X24022000Y-61708480D01*
X24022000Y-62071519D01*
X24036853Y-62165304D01*
X24036854Y-62165306D01*
X24094450Y-62278342D01*
X24184158Y-62368050D01*
X24297196Y-62425646D01*
X24390981Y-62440500D01*
X24548752Y-62440499D01*
X24601078Y-62462173D01*
X24612838Y-62477499D01*
X24634525Y-62515062D01*
X25087126Y-62967663D01*
X25108800Y-63019989D01*
X25108800Y-63081277D01*
X25146314Y-63221281D01*
X25146316Y-63221286D01*
X25152924Y-63232731D01*
X25218791Y-63346815D01*
X25321285Y-63449309D01*
X25446815Y-63521784D01*
X25446816Y-63521784D01*
X25446818Y-63521785D01*
X25496286Y-63535040D01*
X25586822Y-63559299D01*
X25586823Y-63559300D01*
X25586825Y-63559300D01*
X25731777Y-63559300D01*
X25731777Y-63559299D01*
X25871785Y-63521784D01*
X25984829Y-63456517D01*
X26040979Y-63449125D01*
X26085913Y-63483603D01*
X26094405Y-63535040D01*
X26084800Y-63583331D01*
X26084800Y-63711467D01*
X26109797Y-63837139D01*
X26109798Y-63837142D01*
X26109799Y-63837144D01*
X26158835Y-63955527D01*
X26230024Y-64062069D01*
X26320631Y-64152676D01*
X26427173Y-64223865D01*
X26545556Y-64272901D01*
X26586736Y-64281092D01*
X26633828Y-64312557D01*
X26646300Y-64353670D01*
X26646300Y-136343377D01*
X26669354Y-136429414D01*
X26683814Y-136483382D01*
X26756290Y-136608915D01*
X38695549Y-148548174D01*
X38717223Y-148600500D01*
X38695549Y-148652826D01*
X38643223Y-148674500D01*
X38525326Y-148674500D01*
X38476615Y-148684189D01*
X38452259Y-148689034D01*
X38369399Y-148744398D01*
X38369398Y-148744399D01*
X38314034Y-148827259D01*
X38314034Y-148827260D01*
X38299500Y-148900326D01*
X38299500Y-150549674D01*
X38314034Y-150622740D01*
X38369399Y-150705601D01*
X38452260Y-150760966D01*
X38525326Y-150775500D01*
X41327200Y-150775500D01*
X41379526Y-150797174D01*
X41401200Y-150849500D01*
X41401200Y-151000000D01*
X19500500Y-151000000D01*
X19500500Y-43239185D01*
X19522174Y-43186859D01*
X19574500Y-43165185D01*
X19617993Y-43179316D01*
X19703212Y-43241232D01*
X19816189Y-43298796D01*
X19857553Y-43319872D01*
X19857557Y-43319874D01*
X20022288Y-43373399D01*
X20022294Y-43373400D01*
X20022299Y-43373402D01*
X20136359Y-43391467D01*
X20193388Y-43400500D01*
X20193389Y-43400500D01*
X20366612Y-43400500D01*
X20409383Y-43393725D01*
X20537701Y-43373402D01*
X20537708Y-43373399D01*
X20537711Y-43373399D01*
X20702442Y-43319874D01*
X20702442Y-43319873D01*
X20702445Y-43319873D01*
X20856788Y-43241232D01*
X20996928Y-43139414D01*
X21119414Y-43016928D01*
X21221232Y-42876788D01*
X21299873Y-42722445D01*
X21330325Y-42628725D01*
X21353399Y-42557711D01*
X21353399Y-42557708D01*
X21353402Y-42557701D01*
X21380500Y-42386611D01*
X21380500Y-42213389D01*
X21353402Y-42042299D01*
X21353400Y-42042294D01*
X21353399Y-42042288D01*
X21299874Y-41877557D01*
X21299872Y-41877553D01*
X21221232Y-41723212D01*
X21144788Y-41617996D01*
X21131566Y-41562924D01*
X21161159Y-41514633D01*
X21204655Y-41500500D01*
X21645500Y-41500500D01*
X21697826Y-41522174D01*
G37*
%TD.AperFunction*%
%TA.AperFunction,Conductor*%
G36*
X40107826Y-41522174D02*
G01*
X40129500Y-41574500D01*
X40129500Y-43082317D01*
X40107826Y-43134643D01*
X40092500Y-43146403D01*
X39980284Y-43211190D01*
X36853647Y-46337826D01*
X36801321Y-46359500D01*
X36303480Y-46359500D01*
X36209695Y-46374353D01*
X36209693Y-46374354D01*
X36096657Y-46431950D01*
X36006951Y-46521656D01*
X35949353Y-46634698D01*
X35934500Y-46728480D01*
X35934500Y-47091519D01*
X35949353Y-47185304D01*
X35949354Y-47185306D01*
X36006950Y-47298342D01*
X36096658Y-47388050D01*
X36209696Y-47445646D01*
X36303481Y-47460500D01*
X36978904Y-47460499D01*
X36978914Y-47460500D01*
X36987525Y-47460500D01*
X36987526Y-47460500D01*
X37132474Y-47460500D01*
X37606823Y-47460500D01*
X37659149Y-47482174D01*
X41068629Y-50891653D01*
X41089392Y-50932403D01*
X41099354Y-50995305D01*
X41099354Y-50995306D01*
X41156950Y-51108342D01*
X41246658Y-51198050D01*
X41359696Y-51255646D01*
X41453481Y-51270500D01*
X41588301Y-51270499D01*
X41588307Y-51270500D01*
X41603025Y-51270500D01*
X42291087Y-51270500D01*
X42291095Y-51270499D01*
X42966519Y-51270499D01*
X43060304Y-51255646D01*
X43060306Y-51255645D01*
X43073883Y-51248727D01*
X43173342Y-51198050D01*
X43263050Y-51108342D01*
X43320646Y-50995304D01*
X43335500Y-50901519D01*
X43335499Y-50538482D01*
X43334905Y-50534733D01*
X43320646Y-50444695D01*
X43320645Y-50444693D01*
X43289616Y-50383796D01*
X43263050Y-50331658D01*
X43173342Y-50241950D01*
X43060304Y-50184354D01*
X43060302Y-50184353D01*
X43060301Y-50184353D01*
X42966520Y-50169500D01*
X42966519Y-50169500D01*
X42282476Y-50169500D01*
X42282475Y-50169500D01*
X41934176Y-50169500D01*
X41881850Y-50147826D01*
X41860849Y-50126825D01*
X41839175Y-50074499D01*
X41860849Y-50022173D01*
X41913175Y-50000499D01*
X42966519Y-50000499D01*
X43060304Y-49985646D01*
X43060306Y-49985645D01*
X43079520Y-49975855D01*
X43173342Y-49928050D01*
X43263050Y-49838342D01*
X43320646Y-49725304D01*
X43335500Y-49631519D01*
X43335499Y-49268482D01*
X43334505Y-49262207D01*
X43320646Y-49174695D01*
X43320645Y-49174693D01*
X43263049Y-49061657D01*
X43173343Y-48971951D01*
X43173342Y-48971950D01*
X43060304Y-48914354D01*
X43060302Y-48914353D01*
X43060301Y-48914353D01*
X42966519Y-48899500D01*
X41453480Y-48899500D01*
X41359695Y-48914353D01*
X41359693Y-48914354D01*
X41246657Y-48971950D01*
X41156951Y-49061656D01*
X41099353Y-49174698D01*
X41096008Y-49195820D01*
X41066414Y-49244110D01*
X41011341Y-49257331D01*
X40970593Y-49236568D01*
X38293600Y-46559576D01*
X38271926Y-46507250D01*
X38293600Y-46454924D01*
X40524651Y-44223874D01*
X40576977Y-44202200D01*
X41302477Y-44202200D01*
X41302477Y-44202199D01*
X41442485Y-44164684D01*
X41568015Y-44092209D01*
X41670509Y-43989715D01*
X41742984Y-43864185D01*
X41780499Y-43724177D01*
X41780500Y-43724177D01*
X41780500Y-43474500D01*
X41802174Y-43422174D01*
X41854500Y-43400500D01*
X42104672Y-43400500D01*
X42104674Y-43400500D01*
X42177740Y-43385966D01*
X42260601Y-43330601D01*
X42315966Y-43247740D01*
X42330500Y-43174674D01*
X42330500Y-42924500D01*
X42352174Y-42872174D01*
X42404500Y-42850500D01*
X43927400Y-42850500D01*
X43979726Y-42872174D01*
X44000976Y-42916591D01*
X44005909Y-42962485D01*
X44056202Y-43097329D01*
X44056203Y-43097330D01*
X44056204Y-43097331D01*
X44142454Y-43212546D01*
X44257669Y-43298796D01*
X44257670Y-43298797D01*
X44368605Y-43340172D01*
X44392517Y-43349091D01*
X44452127Y-43355500D01*
X45047872Y-43355499D01*
X45107483Y-43349091D01*
X45185823Y-43319872D01*
X45242329Y-43298797D01*
X45242329Y-43298796D01*
X45242331Y-43298796D01*
X45357546Y-43212546D01*
X45443796Y-43097331D01*
X45494091Y-42962483D01*
X45500500Y-42902873D01*
X45500499Y-41857128D01*
X45494091Y-41797517D01*
X45476182Y-41749500D01*
X45443797Y-41662670D01*
X45443796Y-41662669D01*
X45410991Y-41618847D01*
X45396984Y-41563969D01*
X45425884Y-41515260D01*
X45470231Y-41500500D01*
X55895500Y-41500500D01*
X55947826Y-41522174D01*
X55969500Y-41574500D01*
X55969500Y-43174674D01*
X55982332Y-43239185D01*
X55984034Y-43247740D01*
X56032231Y-43319874D01*
X56039399Y-43330601D01*
X56122260Y-43385966D01*
X56195326Y-43400500D01*
X56620500Y-43400500D01*
X56672826Y-43422174D01*
X56694500Y-43474500D01*
X56694500Y-44090376D01*
X56672826Y-44142702D01*
X56644941Y-44160223D01*
X56582118Y-44182206D01*
X56582116Y-44182207D01*
X56472853Y-44262846D01*
X56472846Y-44262853D01*
X56392207Y-44372116D01*
X56392206Y-44372118D01*
X56347355Y-44500295D01*
X56347354Y-44500299D01*
X56347354Y-44500301D01*
X56344500Y-44530734D01*
X56344500Y-45039266D01*
X56347354Y-45069699D01*
X56347354Y-45069701D01*
X56347355Y-45069704D01*
X56392206Y-45197881D01*
X56392207Y-45197883D01*
X56472846Y-45307146D01*
X56472853Y-45307153D01*
X56582116Y-45387792D01*
X56582118Y-45387793D01*
X56710295Y-45432644D01*
X56710301Y-45432646D01*
X56740734Y-45435500D01*
X56740741Y-45435500D01*
X57399258Y-45435500D01*
X57399266Y-45435500D01*
X57429699Y-45432646D01*
X57557882Y-45387793D01*
X57667150Y-45307150D01*
X57747793Y-45197882D01*
X57792646Y-45069699D01*
X57795500Y-45039266D01*
X57795500Y-44530734D01*
X57792646Y-44500301D01*
X57784213Y-44476202D01*
X57747793Y-44372118D01*
X57747792Y-44372116D01*
X57667153Y-44262853D01*
X57667146Y-44262846D01*
X57557883Y-44182207D01*
X57557881Y-44182206D01*
X57495059Y-44160223D01*
X57452828Y-44122483D01*
X57445500Y-44090376D01*
X57445500Y-43474500D01*
X57467174Y-43422174D01*
X57519500Y-43400500D01*
X57944672Y-43400500D01*
X57944674Y-43400500D01*
X58017740Y-43385966D01*
X58100601Y-43330601D01*
X58155966Y-43247740D01*
X58170500Y-43174674D01*
X58170500Y-41574500D01*
X58192174Y-41522174D01*
X58244500Y-41500500D01*
X60425500Y-41500500D01*
X60477826Y-41522174D01*
X60499500Y-41574500D01*
X60499500Y-151000000D01*
X52995500Y-151000000D01*
X52995500Y-144507965D01*
X52995500Y-144507964D01*
X52969911Y-144412463D01*
X52920475Y-144326838D01*
X47999674Y-139406037D01*
X47978000Y-139353711D01*
X47978000Y-139052838D01*
X47999674Y-139000512D01*
X48052000Y-138978838D01*
X48095494Y-138992970D01*
X48105875Y-139000512D01*
X48203212Y-139071232D01*
X48357553Y-139149872D01*
X48357557Y-139149874D01*
X48522288Y-139203399D01*
X48522294Y-139203400D01*
X48522299Y-139203402D01*
X48636359Y-139221467D01*
X48693388Y-139230500D01*
X48693389Y-139230500D01*
X48866612Y-139230500D01*
X48909383Y-139223725D01*
X49037701Y-139203402D01*
X49037708Y-139203399D01*
X49037711Y-139203399D01*
X49202442Y-139149874D01*
X49202442Y-139149873D01*
X49202445Y-139149873D01*
X49356788Y-139071232D01*
X49496928Y-138969414D01*
X49619414Y-138846928D01*
X49721232Y-138706788D01*
X49799873Y-138552445D01*
X49853402Y-138387701D01*
X49880500Y-138216611D01*
X49880500Y-138043389D01*
X49853402Y-137872299D01*
X49853400Y-137872294D01*
X49853399Y-137872288D01*
X49799874Y-137707557D01*
X49799872Y-137707553D01*
X49721232Y-137553212D01*
X49619417Y-137413076D01*
X49619416Y-137413075D01*
X49619414Y-137413072D01*
X49496928Y-137290586D01*
X49496925Y-137290583D01*
X49496923Y-137290582D01*
X49356787Y-137188767D01*
X49202446Y-137110127D01*
X49202442Y-137110125D01*
X49037711Y-137056600D01*
X49037698Y-137056597D01*
X48866612Y-137029500D01*
X48866611Y-137029500D01*
X48693389Y-137029500D01*
X48693388Y-137029500D01*
X48522301Y-137056597D01*
X48522288Y-137056600D01*
X48357557Y-137110125D01*
X48357553Y-137110127D01*
X48203211Y-137188767D01*
X48095496Y-137267028D01*
X48040424Y-137280250D01*
X47992133Y-137250657D01*
X47979506Y-137222015D01*
X47978000Y-137214665D01*
X47978000Y-137208065D01*
X47972829Y-137188768D01*
X47952410Y-137112563D01*
X47952410Y-137112562D01*
X47902975Y-137026938D01*
X47833062Y-136957025D01*
X46379425Y-135503388D01*
X47679500Y-135503388D01*
X47679500Y-135676611D01*
X47706597Y-135847698D01*
X47706600Y-135847711D01*
X47760125Y-136012442D01*
X47760127Y-136012446D01*
X47838767Y-136166787D01*
X47931757Y-136294777D01*
X47940586Y-136306928D01*
X48063072Y-136429414D01*
X48063075Y-136429416D01*
X48063076Y-136429417D01*
X48203212Y-136531232D01*
X48357553Y-136609872D01*
X48357557Y-136609874D01*
X48522288Y-136663399D01*
X48522294Y-136663400D01*
X48522299Y-136663402D01*
X48636359Y-136681467D01*
X48693388Y-136690500D01*
X48693389Y-136690500D01*
X48866612Y-136690500D01*
X48909383Y-136683725D01*
X49037701Y-136663402D01*
X49037708Y-136663399D01*
X49037711Y-136663399D01*
X49202442Y-136609874D01*
X49202442Y-136609873D01*
X49202445Y-136609873D01*
X49356788Y-136531232D01*
X49496928Y-136429414D01*
X49619414Y-136306928D01*
X49721232Y-136166788D01*
X49799873Y-136012445D01*
X49853402Y-135847701D01*
X49880500Y-135676611D01*
X49880500Y-135503389D01*
X49853402Y-135332299D01*
X49853400Y-135332294D01*
X49853399Y-135332288D01*
X49799874Y-135167557D01*
X49799872Y-135167553D01*
X49721232Y-135013212D01*
X49619417Y-134873076D01*
X49619416Y-134873075D01*
X49619414Y-134873072D01*
X49496928Y-134750586D01*
X49496925Y-134750583D01*
X49496923Y-134750582D01*
X49356787Y-134648767D01*
X49202446Y-134570127D01*
X49202442Y-134570125D01*
X49037711Y-134516600D01*
X49037698Y-134516597D01*
X48866612Y-134489500D01*
X48866611Y-134489500D01*
X48693389Y-134489500D01*
X48693388Y-134489500D01*
X48522301Y-134516597D01*
X48522288Y-134516600D01*
X48357557Y-134570125D01*
X48357553Y-134570127D01*
X48203212Y-134648767D01*
X48063076Y-134750582D01*
X47940582Y-134873076D01*
X47838767Y-135013212D01*
X47760127Y-135167553D01*
X47760125Y-135167557D01*
X47706600Y-135332288D01*
X47706597Y-135332301D01*
X47679500Y-135503388D01*
X46379425Y-135503388D01*
X41299425Y-130423388D01*
X47679500Y-130423388D01*
X47679500Y-130596611D01*
X47706597Y-130767698D01*
X47706600Y-130767711D01*
X47760125Y-130932442D01*
X47760127Y-130932446D01*
X47838767Y-131086787D01*
X47838768Y-131086788D01*
X47940586Y-131226928D01*
X48063072Y-131349414D01*
X48063075Y-131349416D01*
X48063076Y-131349417D01*
X48203212Y-131451232D01*
X48357553Y-131529872D01*
X48357557Y-131529874D01*
X48522288Y-131583399D01*
X48522294Y-131583400D01*
X48522299Y-131583402D01*
X48636359Y-131601467D01*
X48693388Y-131610500D01*
X48693389Y-131610500D01*
X48866612Y-131610500D01*
X48909383Y-131603725D01*
X49037701Y-131583402D01*
X49037708Y-131583399D01*
X49037711Y-131583399D01*
X49202442Y-131529874D01*
X49202442Y-131529873D01*
X49202445Y-131529873D01*
X49356788Y-131451232D01*
X49496928Y-131349414D01*
X49619414Y-131226928D01*
X49721232Y-131086788D01*
X49799873Y-130932445D01*
X49853402Y-130767701D01*
X49880500Y-130596611D01*
X49880500Y-130423389D01*
X49853402Y-130252299D01*
X49853400Y-130252294D01*
X49853399Y-130252288D01*
X49799874Y-130087557D01*
X49799872Y-130087553D01*
X49721232Y-129933212D01*
X49619417Y-129793076D01*
X49619416Y-129793075D01*
X49619414Y-129793072D01*
X49496928Y-129670586D01*
X49496925Y-129670583D01*
X49496923Y-129670582D01*
X49356787Y-129568767D01*
X49202446Y-129490127D01*
X49202442Y-129490125D01*
X49037711Y-129436600D01*
X49037698Y-129436597D01*
X48866612Y-129409500D01*
X48866611Y-129409500D01*
X48693389Y-129409500D01*
X48693388Y-129409500D01*
X48522301Y-129436597D01*
X48522288Y-129436600D01*
X48357557Y-129490125D01*
X48357553Y-129490127D01*
X48203212Y-129568767D01*
X48063076Y-129670582D01*
X47940582Y-129793076D01*
X47838767Y-129933212D01*
X47760127Y-130087553D01*
X47760125Y-130087557D01*
X47706600Y-130252288D01*
X47706597Y-130252301D01*
X47679500Y-130423388D01*
X41299425Y-130423388D01*
X38759425Y-127883388D01*
X47679500Y-127883388D01*
X47679500Y-128056611D01*
X47706597Y-128227698D01*
X47706600Y-128227711D01*
X47760125Y-128392442D01*
X47760127Y-128392446D01*
X47838767Y-128546787D01*
X47838768Y-128546788D01*
X47940586Y-128686928D01*
X48063072Y-128809414D01*
X48063075Y-128809416D01*
X48063076Y-128809417D01*
X48203212Y-128911232D01*
X48357553Y-128989872D01*
X48357557Y-128989874D01*
X48522288Y-129043399D01*
X48522294Y-129043400D01*
X48522299Y-129043402D01*
X48636359Y-129061467D01*
X48693388Y-129070500D01*
X48693389Y-129070500D01*
X48866612Y-129070500D01*
X48909383Y-129063725D01*
X49037701Y-129043402D01*
X49037708Y-129043399D01*
X49037711Y-129043399D01*
X49202442Y-128989874D01*
X49202442Y-128989873D01*
X49202445Y-128989873D01*
X49356788Y-128911232D01*
X49496928Y-128809414D01*
X49619414Y-128686928D01*
X49721232Y-128546788D01*
X49799873Y-128392445D01*
X49853402Y-128227701D01*
X49880500Y-128056611D01*
X49880500Y-127883389D01*
X49853402Y-127712299D01*
X49853400Y-127712294D01*
X49853399Y-127712288D01*
X49799874Y-127547557D01*
X49799872Y-127547553D01*
X49721232Y-127393212D01*
X49619417Y-127253076D01*
X49619416Y-127253075D01*
X49619414Y-127253072D01*
X49496928Y-127130586D01*
X49496925Y-127130583D01*
X49496923Y-127130582D01*
X49356787Y-127028767D01*
X49202446Y-126950127D01*
X49202442Y-126950125D01*
X49037711Y-126896600D01*
X49037698Y-126896597D01*
X48866612Y-126869500D01*
X48866611Y-126869500D01*
X48693389Y-126869500D01*
X48693388Y-126869500D01*
X48522301Y-126896597D01*
X48522288Y-126896600D01*
X48357557Y-126950125D01*
X48357553Y-126950127D01*
X48203212Y-127028767D01*
X48063076Y-127130582D01*
X47940582Y-127253076D01*
X47838767Y-127393212D01*
X47760127Y-127547553D01*
X47760125Y-127547557D01*
X47706600Y-127712288D01*
X47706597Y-127712301D01*
X47679500Y-127883388D01*
X38759425Y-127883388D01*
X36219425Y-125343388D01*
X47679500Y-125343388D01*
X47679500Y-125516611D01*
X47706597Y-125687698D01*
X47706600Y-125687711D01*
X47760125Y-125852442D01*
X47760127Y-125852446D01*
X47838767Y-126006787D01*
X47838768Y-126006788D01*
X47940586Y-126146928D01*
X48063072Y-126269414D01*
X48063075Y-126269416D01*
X48063076Y-126269417D01*
X48203212Y-126371232D01*
X48357553Y-126449872D01*
X48357557Y-126449874D01*
X48522288Y-126503399D01*
X48522294Y-126503400D01*
X48522299Y-126503402D01*
X48636359Y-126521467D01*
X48693388Y-126530500D01*
X48693389Y-126530500D01*
X48866612Y-126530500D01*
X48909383Y-126523725D01*
X49037701Y-126503402D01*
X49037708Y-126503399D01*
X49037711Y-126503399D01*
X49202442Y-126449874D01*
X49202442Y-126449873D01*
X49202445Y-126449873D01*
X49356788Y-126371232D01*
X49496928Y-126269414D01*
X49619414Y-126146928D01*
X49721232Y-126006788D01*
X49799873Y-125852445D01*
X49853402Y-125687701D01*
X49880500Y-125516611D01*
X49880500Y-125343389D01*
X49853402Y-125172299D01*
X49853400Y-125172294D01*
X49853399Y-125172288D01*
X49799874Y-125007557D01*
X49799872Y-125007553D01*
X49721232Y-124853212D01*
X49619417Y-124713076D01*
X49619416Y-124713075D01*
X49619414Y-124713072D01*
X49496928Y-124590586D01*
X49496925Y-124590583D01*
X49496923Y-124590582D01*
X49356787Y-124488767D01*
X49202446Y-124410127D01*
X49202442Y-124410125D01*
X49037711Y-124356600D01*
X49037698Y-124356597D01*
X48866612Y-124329500D01*
X48866611Y-124329500D01*
X48693389Y-124329500D01*
X48693388Y-124329500D01*
X48522301Y-124356597D01*
X48522288Y-124356600D01*
X48357557Y-124410125D01*
X48357553Y-124410127D01*
X48203212Y-124488767D01*
X48063076Y-124590582D01*
X47940582Y-124713076D01*
X47838767Y-124853212D01*
X47760127Y-125007553D01*
X47760125Y-125007557D01*
X47706600Y-125172288D01*
X47706597Y-125172301D01*
X47679500Y-125343388D01*
X36219425Y-125343388D01*
X33465563Y-122589526D01*
X33465562Y-122589525D01*
X33379939Y-122540090D01*
X33379934Y-122540088D01*
X33319617Y-122523926D01*
X33319616Y-122523926D01*
X33284438Y-122514500D01*
X33284436Y-122514500D01*
X33284435Y-122514500D01*
X32088764Y-122514500D01*
X32036438Y-122492826D01*
X32021260Y-122470111D01*
X32021193Y-122470146D01*
X32020903Y-122469578D01*
X32020399Y-122468823D01*
X32019877Y-122467563D01*
X31941232Y-122313212D01*
X31839417Y-122173076D01*
X31839416Y-122173075D01*
X31839414Y-122173072D01*
X31716928Y-122050586D01*
X31716925Y-122050583D01*
X31716923Y-122050582D01*
X31576787Y-121948767D01*
X31422446Y-121870127D01*
X31422442Y-121870125D01*
X31257711Y-121816600D01*
X31257698Y-121816597D01*
X31086612Y-121789500D01*
X31086611Y-121789500D01*
X30913389Y-121789500D01*
X30913388Y-121789500D01*
X30742301Y-121816597D01*
X30742288Y-121816600D01*
X30577557Y-121870125D01*
X30577553Y-121870127D01*
X30423212Y-121948767D01*
X30283076Y-122050582D01*
X30160582Y-122173076D01*
X30058767Y-122313212D01*
X29980127Y-122467553D01*
X29980125Y-122467557D01*
X29926600Y-122632288D01*
X29926597Y-122632301D01*
X29899500Y-122803388D01*
X29899500Y-122976611D01*
X29926597Y-123147698D01*
X29926600Y-123147711D01*
X29980125Y-123312442D01*
X29980127Y-123312446D01*
X30058767Y-123466787D01*
X30148686Y-123590550D01*
X30160586Y-123606928D01*
X30283072Y-123729414D01*
X30283075Y-123729416D01*
X30283076Y-123729417D01*
X30423212Y-123831232D01*
X30577553Y-123909872D01*
X30577557Y-123909874D01*
X30742288Y-123963399D01*
X30742294Y-123963400D01*
X30742299Y-123963402D01*
X30856359Y-123981467D01*
X30913388Y-123990500D01*
X30913389Y-123990500D01*
X31086612Y-123990500D01*
X31129383Y-123983725D01*
X31257701Y-123963402D01*
X31257708Y-123963399D01*
X31257711Y-123963399D01*
X31422442Y-123909874D01*
X31422442Y-123909873D01*
X31422445Y-123909873D01*
X31576788Y-123831232D01*
X31716928Y-123729414D01*
X31839414Y-123606928D01*
X31941232Y-123466788D01*
X32019873Y-123312445D01*
X32019874Y-123312441D01*
X32019877Y-123312436D01*
X32020399Y-123311177D01*
X32020643Y-123310932D01*
X32021193Y-123309854D01*
X32021543Y-123310032D01*
X32060449Y-123271131D01*
X32088764Y-123265500D01*
X33048811Y-123265500D01*
X33101137Y-123287174D01*
X45912850Y-136098887D01*
X45934524Y-136151213D01*
X45912850Y-136203539D01*
X45860524Y-136225213D01*
X45848948Y-136224302D01*
X45692354Y-136199500D01*
X45692352Y-136199500D01*
X45487648Y-136199500D01*
X45487646Y-136199500D01*
X45285468Y-136231522D01*
X45285455Y-136231525D01*
X45090786Y-136294777D01*
X44908389Y-136387712D01*
X44742785Y-136508031D01*
X44742781Y-136508034D01*
X44598034Y-136652781D01*
X44598031Y-136652784D01*
X44598031Y-136652785D01*
X44477712Y-136818389D01*
X44384777Y-137000786D01*
X44321525Y-137195455D01*
X44321522Y-137195468D01*
X44289500Y-137397646D01*
X44289500Y-137602353D01*
X44321522Y-137804531D01*
X44321525Y-137804544D01*
X44384777Y-137999213D01*
X44468242Y-138163023D01*
X44472685Y-138219486D01*
X44435902Y-138262553D01*
X44379439Y-138266996D01*
X44349981Y-138248944D01*
X32035390Y-125934353D01*
X32013716Y-125882027D01*
X32019049Y-125855235D01*
X32018975Y-125855211D01*
X32019179Y-125854581D01*
X32019357Y-125853690D01*
X32019876Y-125852437D01*
X32073399Y-125687711D01*
X32073399Y-125687708D01*
X32073402Y-125687701D01*
X32100500Y-125516611D01*
X32100500Y-125343389D01*
X32073402Y-125172299D01*
X32073400Y-125172294D01*
X32073399Y-125172288D01*
X32019874Y-125007557D01*
X32019872Y-125007553D01*
X31941232Y-124853212D01*
X31839417Y-124713076D01*
X31839416Y-124713075D01*
X31839414Y-124713072D01*
X31716928Y-124590586D01*
X31716925Y-124590583D01*
X31716923Y-124590582D01*
X31576787Y-124488767D01*
X31422446Y-124410127D01*
X31422442Y-124410125D01*
X31257711Y-124356600D01*
X31257698Y-124356597D01*
X31086612Y-124329500D01*
X31086611Y-124329500D01*
X30913389Y-124329500D01*
X30913388Y-124329500D01*
X30742301Y-124356597D01*
X30742288Y-124356600D01*
X30577557Y-124410125D01*
X30577553Y-124410127D01*
X30423212Y-124488767D01*
X30283076Y-124590582D01*
X30160582Y-124713076D01*
X30058767Y-124853212D01*
X29980127Y-125007553D01*
X29980125Y-125007557D01*
X29926600Y-125172288D01*
X29926597Y-125172301D01*
X29899500Y-125343388D01*
X29899500Y-125516611D01*
X29926597Y-125687698D01*
X29926600Y-125687711D01*
X29980125Y-125852442D01*
X29980127Y-125852446D01*
X30058767Y-126006787D01*
X30058768Y-126006788D01*
X30160586Y-126146928D01*
X30283072Y-126269414D01*
X30283075Y-126269416D01*
X30283076Y-126269417D01*
X30423212Y-126371232D01*
X30577553Y-126449872D01*
X30577557Y-126449874D01*
X30742288Y-126503399D01*
X30742294Y-126503400D01*
X30742299Y-126503402D01*
X30856359Y-126521467D01*
X30913388Y-126530500D01*
X30913389Y-126530500D01*
X31086612Y-126530500D01*
X31129383Y-126523725D01*
X31257701Y-126503402D01*
X31257708Y-126503399D01*
X31257711Y-126503399D01*
X31422437Y-126449876D01*
X31422441Y-126449874D01*
X31422445Y-126449873D01*
X31422448Y-126449871D01*
X31423690Y-126449357D01*
X31424035Y-126449356D01*
X31425211Y-126448975D01*
X31425334Y-126449356D01*
X31480327Y-126449341D01*
X31504353Y-126465390D01*
X48082826Y-143043863D01*
X48104500Y-143096189D01*
X48104500Y-151000000D01*
X42152200Y-151000000D01*
X42152200Y-138697263D01*
X42152199Y-138697262D01*
X42126611Y-138601765D01*
X42126609Y-138601760D01*
X42077174Y-138516137D01*
X32035390Y-128474353D01*
X32013716Y-128422027D01*
X32019049Y-128395235D01*
X32018975Y-128395211D01*
X32019179Y-128394581D01*
X32019357Y-128393690D01*
X32019876Y-128392437D01*
X32073399Y-128227711D01*
X32073399Y-128227708D01*
X32073402Y-128227701D01*
X32100500Y-128056611D01*
X32100500Y-127883389D01*
X32073402Y-127712299D01*
X32073400Y-127712294D01*
X32073399Y-127712288D01*
X32019874Y-127547557D01*
X32019872Y-127547553D01*
X31941232Y-127393212D01*
X31839417Y-127253076D01*
X31839416Y-127253075D01*
X31839414Y-127253072D01*
X31716928Y-127130586D01*
X31716925Y-127130583D01*
X31716923Y-127130582D01*
X31576787Y-127028767D01*
X31422446Y-126950127D01*
X31422442Y-126950125D01*
X31257711Y-126896600D01*
X31257698Y-126896597D01*
X31086612Y-126869500D01*
X31086611Y-126869500D01*
X30913389Y-126869500D01*
X30913388Y-126869500D01*
X30742301Y-126896597D01*
X30742288Y-126896600D01*
X30577557Y-126950125D01*
X30577553Y-126950127D01*
X30423212Y-127028767D01*
X30283076Y-127130582D01*
X30160582Y-127253076D01*
X30058767Y-127393212D01*
X29980127Y-127547553D01*
X29980125Y-127547557D01*
X29926600Y-127712288D01*
X29926597Y-127712301D01*
X29899500Y-127883388D01*
X29899500Y-128056611D01*
X29926597Y-128227698D01*
X29926600Y-128227711D01*
X29980125Y-128392442D01*
X29980127Y-128392446D01*
X30058767Y-128546787D01*
X30058768Y-128546788D01*
X30160586Y-128686928D01*
X30283072Y-128809414D01*
X30283075Y-128809416D01*
X30283076Y-128809417D01*
X30423212Y-128911232D01*
X30577553Y-128989872D01*
X30577557Y-128989874D01*
X30742288Y-129043399D01*
X30742294Y-129043400D01*
X30742299Y-129043402D01*
X30856359Y-129061467D01*
X30913388Y-129070500D01*
X30913389Y-129070500D01*
X31086612Y-129070500D01*
X31129383Y-129063725D01*
X31257701Y-129043402D01*
X31257708Y-129043399D01*
X31257711Y-129043399D01*
X31422437Y-128989876D01*
X31422441Y-128989874D01*
X31422445Y-128989873D01*
X31422448Y-128989871D01*
X31423690Y-128989357D01*
X31424035Y-128989356D01*
X31425211Y-128988975D01*
X31425334Y-128989356D01*
X31480327Y-128989341D01*
X31504353Y-129005390D01*
X41379526Y-138880563D01*
X41401200Y-138932889D01*
X41401200Y-148600500D01*
X41379526Y-148652826D01*
X41327200Y-148674500D01*
X40624500Y-148674500D01*
X40572174Y-148652826D01*
X40550500Y-148600500D01*
X40550500Y-148350823D01*
X40550499Y-148350822D01*
X40512985Y-148210818D01*
X40512983Y-148210813D01*
X40440508Y-148085284D01*
X40338015Y-147982791D01*
X40212486Y-147910316D01*
X40212481Y-147910314D01*
X40072477Y-147872800D01*
X40072475Y-147872800D01*
X39607877Y-147872800D01*
X39555551Y-147851126D01*
X31058360Y-139353935D01*
X31036686Y-139301609D01*
X31058360Y-139249283D01*
X31099108Y-139228520D01*
X31257701Y-139203402D01*
X31257708Y-139203399D01*
X31257711Y-139203399D01*
X31422442Y-139149874D01*
X31422442Y-139149873D01*
X31422445Y-139149873D01*
X31576788Y-139071232D01*
X31716928Y-138969414D01*
X31839414Y-138846928D01*
X31941232Y-138706788D01*
X32019873Y-138552445D01*
X32073402Y-138387701D01*
X32100500Y-138216611D01*
X32100500Y-138043389D01*
X32073402Y-137872299D01*
X32073400Y-137872294D01*
X32073399Y-137872288D01*
X32019874Y-137707557D01*
X32019872Y-137707553D01*
X31941232Y-137553212D01*
X31839414Y-137413072D01*
X31823988Y-137397646D01*
X32889500Y-137397646D01*
X32889500Y-137602353D01*
X32921522Y-137804531D01*
X32921525Y-137804544D01*
X32984777Y-137999213D01*
X33077712Y-138181610D01*
X33136521Y-138262553D01*
X33198034Y-138347219D01*
X33342781Y-138491966D01*
X33426020Y-138552442D01*
X33508389Y-138612287D01*
X33553685Y-138635366D01*
X33690781Y-138705220D01*
X33690783Y-138705220D01*
X33690786Y-138705222D01*
X33885455Y-138768474D01*
X33885461Y-138768475D01*
X33885466Y-138768477D01*
X33986557Y-138784488D01*
X34087646Y-138800500D01*
X34087648Y-138800500D01*
X34292354Y-138800500D01*
X34373224Y-138787690D01*
X34494534Y-138768477D01*
X34494541Y-138768474D01*
X34494544Y-138768474D01*
X34689213Y-138705222D01*
X34689213Y-138705221D01*
X34689219Y-138705220D01*
X34871610Y-138612287D01*
X35037219Y-138491966D01*
X35181966Y-138347219D01*
X35302287Y-138181610D01*
X35395220Y-137999219D01*
X35436459Y-137872299D01*
X35458474Y-137804544D01*
X35458474Y-137804541D01*
X35458477Y-137804534D01*
X35490500Y-137602352D01*
X35490500Y-137397648D01*
X35458477Y-137195466D01*
X35458475Y-137195461D01*
X35458474Y-137195455D01*
X35395222Y-137000786D01*
X35395220Y-137000783D01*
X35395220Y-137000781D01*
X35347079Y-136906300D01*
X35302287Y-136818389D01*
X35209370Y-136690500D01*
X35181966Y-136652781D01*
X35037219Y-136508034D01*
X34973040Y-136461406D01*
X34871610Y-136387712D01*
X34689213Y-136294777D01*
X34494544Y-136231525D01*
X34494531Y-136231522D01*
X34292354Y-136199500D01*
X34292352Y-136199500D01*
X34087648Y-136199500D01*
X34087646Y-136199500D01*
X33885468Y-136231522D01*
X33885455Y-136231525D01*
X33690786Y-136294777D01*
X33508389Y-136387712D01*
X33342785Y-136508031D01*
X33342781Y-136508034D01*
X33198034Y-136652781D01*
X33198031Y-136652784D01*
X33198031Y-136652785D01*
X33077712Y-136818389D01*
X32984777Y-137000786D01*
X32921525Y-137195455D01*
X32921522Y-137195468D01*
X32889500Y-137397646D01*
X31823988Y-137397646D01*
X31716928Y-137290586D01*
X31716925Y-137290583D01*
X31716923Y-137290582D01*
X31576787Y-137188767D01*
X31422446Y-137110127D01*
X31422442Y-137110125D01*
X31257711Y-137056600D01*
X31257698Y-137056597D01*
X31086612Y-137029500D01*
X31086611Y-137029500D01*
X30913389Y-137029500D01*
X30913388Y-137029500D01*
X30742301Y-137056597D01*
X30742288Y-137056600D01*
X30577557Y-137110125D01*
X30577553Y-137110127D01*
X30423212Y-137188767D01*
X30283076Y-137290582D01*
X30160582Y-137413076D01*
X30058767Y-137553212D01*
X29980127Y-137707553D01*
X29980125Y-137707557D01*
X29926600Y-137872288D01*
X29926598Y-137872299D01*
X29901479Y-138030890D01*
X29871886Y-138079181D01*
X29816813Y-138092402D01*
X29776064Y-138071639D01*
X27768974Y-136064549D01*
X27747300Y-136012223D01*
X27747300Y-135503388D01*
X29899500Y-135503388D01*
X29899500Y-135676611D01*
X29926597Y-135847698D01*
X29926600Y-135847711D01*
X29980125Y-136012442D01*
X29980127Y-136012446D01*
X30058767Y-136166787D01*
X30151757Y-136294777D01*
X30160586Y-136306928D01*
X30283072Y-136429414D01*
X30283075Y-136429416D01*
X30283076Y-136429417D01*
X30423212Y-136531232D01*
X30577553Y-136609872D01*
X30577557Y-136609874D01*
X30742288Y-136663399D01*
X30742294Y-136663400D01*
X30742299Y-136663402D01*
X30856359Y-136681467D01*
X30913388Y-136690500D01*
X30913389Y-136690500D01*
X31086612Y-136690500D01*
X31129383Y-136683725D01*
X31257701Y-136663402D01*
X31257708Y-136663399D01*
X31257711Y-136663399D01*
X31422442Y-136609874D01*
X31422442Y-136609873D01*
X31422445Y-136609873D01*
X31576788Y-136531232D01*
X31716928Y-136429414D01*
X31839414Y-136306928D01*
X31941232Y-136166788D01*
X32019873Y-136012445D01*
X32073402Y-135847701D01*
X32100500Y-135676611D01*
X32100500Y-135503389D01*
X32073402Y-135332299D01*
X32073400Y-135332294D01*
X32073399Y-135332288D01*
X32019874Y-135167557D01*
X32019872Y-135167553D01*
X31941232Y-135013212D01*
X31839417Y-134873076D01*
X31839416Y-134873075D01*
X31839414Y-134873072D01*
X31716928Y-134750586D01*
X31716925Y-134750583D01*
X31716923Y-134750582D01*
X31576787Y-134648767D01*
X31422446Y-134570127D01*
X31422442Y-134570125D01*
X31257711Y-134516600D01*
X31257698Y-134516597D01*
X31086612Y-134489500D01*
X31086611Y-134489500D01*
X30913389Y-134489500D01*
X30913388Y-134489500D01*
X30742301Y-134516597D01*
X30742288Y-134516600D01*
X30577557Y-134570125D01*
X30577553Y-134570127D01*
X30423212Y-134648767D01*
X30283076Y-134750582D01*
X30160582Y-134873076D01*
X30058767Y-135013212D01*
X29980127Y-135167553D01*
X29980125Y-135167557D01*
X29926600Y-135332288D01*
X29926597Y-135332301D01*
X29899500Y-135503388D01*
X27747300Y-135503388D01*
X27747300Y-130423388D01*
X29899500Y-130423388D01*
X29899500Y-130596611D01*
X29926597Y-130767698D01*
X29926600Y-130767711D01*
X29980125Y-130932442D01*
X29980127Y-130932446D01*
X30058767Y-131086787D01*
X30058768Y-131086788D01*
X30160586Y-131226928D01*
X30283072Y-131349414D01*
X30283075Y-131349416D01*
X30283076Y-131349417D01*
X30423212Y-131451232D01*
X30577553Y-131529872D01*
X30577557Y-131529874D01*
X30742288Y-131583399D01*
X30742294Y-131583400D01*
X30742299Y-131583402D01*
X30856359Y-131601467D01*
X30913388Y-131610500D01*
X30913389Y-131610500D01*
X31086612Y-131610500D01*
X31129383Y-131603725D01*
X31257701Y-131583402D01*
X31257708Y-131583399D01*
X31257711Y-131583399D01*
X31422442Y-131529874D01*
X31422442Y-131529873D01*
X31422445Y-131529873D01*
X31576788Y-131451232D01*
X31716928Y-131349414D01*
X31839414Y-131226928D01*
X31941232Y-131086788D01*
X32019873Y-130932445D01*
X32073402Y-130767701D01*
X32100500Y-130596611D01*
X32100500Y-130423389D01*
X32073402Y-130252299D01*
X32073400Y-130252294D01*
X32073399Y-130252288D01*
X32019874Y-130087557D01*
X32019872Y-130087553D01*
X31941232Y-129933212D01*
X31839417Y-129793076D01*
X31839416Y-129793075D01*
X31839414Y-129793072D01*
X31716928Y-129670586D01*
X31716925Y-129670583D01*
X31716923Y-129670582D01*
X31576787Y-129568767D01*
X31422446Y-129490127D01*
X31422442Y-129490125D01*
X31257711Y-129436600D01*
X31257698Y-129436597D01*
X31086612Y-129409500D01*
X31086611Y-129409500D01*
X30913389Y-129409500D01*
X30913388Y-129409500D01*
X30742301Y-129436597D01*
X30742288Y-129436600D01*
X30577557Y-129490125D01*
X30577553Y-129490127D01*
X30423212Y-129568767D01*
X30283076Y-129670582D01*
X30160582Y-129793076D01*
X30058767Y-129933212D01*
X29980127Y-130087553D01*
X29980125Y-130087557D01*
X29926600Y-130252288D01*
X29926597Y-130252301D01*
X29899500Y-130423388D01*
X27747300Y-130423388D01*
X27747300Y-115266989D01*
X27768974Y-115214663D01*
X27821300Y-115192989D01*
X27873626Y-115214663D01*
X29964609Y-117305646D01*
X29986283Y-117357972D01*
X29980954Y-117384767D01*
X29981025Y-117384790D01*
X29980830Y-117385387D01*
X29980653Y-117386282D01*
X29980129Y-117387547D01*
X29926600Y-117552288D01*
X29926597Y-117552301D01*
X29899500Y-117723388D01*
X29899500Y-117896611D01*
X29926597Y-118067698D01*
X29926600Y-118067711D01*
X29980125Y-118232442D01*
X29980127Y-118232446D01*
X30058767Y-118386787D01*
X30058768Y-118386788D01*
X30160586Y-118526928D01*
X30283072Y-118649414D01*
X30283075Y-118649416D01*
X30283076Y-118649417D01*
X30423212Y-118751232D01*
X30577553Y-118829872D01*
X30577557Y-118829874D01*
X30742288Y-118883399D01*
X30742294Y-118883400D01*
X30742299Y-118883402D01*
X30856359Y-118901467D01*
X30913388Y-118910500D01*
X30913389Y-118910500D01*
X31086612Y-118910500D01*
X31129383Y-118903725D01*
X31257701Y-118883402D01*
X31257708Y-118883399D01*
X31257711Y-118883399D01*
X31422442Y-118829874D01*
X31422442Y-118829873D01*
X31422445Y-118829873D01*
X31576788Y-118751232D01*
X31716928Y-118649414D01*
X31839414Y-118526928D01*
X31941232Y-118386788D01*
X32019873Y-118232445D01*
X32035126Y-118185503D01*
X32073399Y-118067711D01*
X32073399Y-118067708D01*
X32073402Y-118067701D01*
X32100500Y-117896611D01*
X32100500Y-117723389D01*
X32073402Y-117552299D01*
X32073400Y-117552294D01*
X32073399Y-117552288D01*
X32019874Y-117387557D01*
X32019872Y-117387553D01*
X31941232Y-117233212D01*
X31839417Y-117093076D01*
X31839416Y-117093075D01*
X31839414Y-117093072D01*
X31716928Y-116970586D01*
X31716925Y-116970583D01*
X31716923Y-116970582D01*
X31576787Y-116868767D01*
X31422446Y-116790127D01*
X31422442Y-116790125D01*
X31257711Y-116736600D01*
X31257698Y-116736597D01*
X31086612Y-116709500D01*
X31086611Y-116709500D01*
X30913389Y-116709500D01*
X30913388Y-116709500D01*
X30742301Y-116736597D01*
X30742288Y-116736600D01*
X30577547Y-116790129D01*
X30576282Y-116790653D01*
X30575934Y-116790652D01*
X30574790Y-116791025D01*
X30574669Y-116790652D01*
X30519645Y-116790647D01*
X30495646Y-116774609D01*
X28904425Y-115183388D01*
X29899500Y-115183388D01*
X29899500Y-115356611D01*
X29926597Y-115527698D01*
X29926600Y-115527711D01*
X29980125Y-115692442D01*
X29980127Y-115692446D01*
X30058767Y-115846787D01*
X30111287Y-115919075D01*
X30160586Y-115986928D01*
X30283072Y-116109414D01*
X30283075Y-116109416D01*
X30283076Y-116109417D01*
X30423212Y-116211232D01*
X30577553Y-116289872D01*
X30577557Y-116289874D01*
X30742288Y-116343399D01*
X30742294Y-116343400D01*
X30742299Y-116343402D01*
X30826026Y-116356663D01*
X30913388Y-116370500D01*
X30913389Y-116370500D01*
X31086612Y-116370500D01*
X31129383Y-116363725D01*
X31257701Y-116343402D01*
X31257708Y-116343399D01*
X31257711Y-116343399D01*
X31422442Y-116289874D01*
X31422442Y-116289873D01*
X31422445Y-116289873D01*
X31576788Y-116211232D01*
X31716928Y-116109414D01*
X31839414Y-115986928D01*
X31941232Y-115846788D01*
X32019873Y-115692445D01*
X32073402Y-115527701D01*
X32100500Y-115356611D01*
X32100500Y-115183389D01*
X32073402Y-115012299D01*
X32073400Y-115012294D01*
X32073399Y-115012288D01*
X32019874Y-114847557D01*
X32019872Y-114847553D01*
X31941232Y-114693212D01*
X31839417Y-114553076D01*
X31839416Y-114553075D01*
X31839414Y-114553072D01*
X31716928Y-114430586D01*
X31716925Y-114430583D01*
X31716923Y-114430582D01*
X31576787Y-114328767D01*
X31422446Y-114250127D01*
X31422442Y-114250125D01*
X31257711Y-114196600D01*
X31257698Y-114196597D01*
X31086612Y-114169500D01*
X31086611Y-114169500D01*
X30913389Y-114169500D01*
X30913388Y-114169500D01*
X30742301Y-114196597D01*
X30742288Y-114196600D01*
X30577557Y-114250125D01*
X30577553Y-114250127D01*
X30423212Y-114328767D01*
X30283076Y-114430582D01*
X30160582Y-114553076D01*
X30058767Y-114693212D01*
X29980127Y-114847553D01*
X29980125Y-114847557D01*
X29926600Y-115012288D01*
X29926597Y-115012301D01*
X29899500Y-115183388D01*
X28904425Y-115183388D01*
X28395674Y-114674637D01*
X28374000Y-114622311D01*
X28374000Y-114294124D01*
X28395674Y-114241798D01*
X28448000Y-114220124D01*
X28493049Y-114235416D01*
X28495386Y-114237210D01*
X28593964Y-114294124D01*
X28620915Y-114309684D01*
X28620916Y-114309684D01*
X28620918Y-114309685D01*
X28690920Y-114328442D01*
X28760922Y-114347199D01*
X28760923Y-114347200D01*
X28760925Y-114347200D01*
X28905877Y-114347200D01*
X28905877Y-114347199D01*
X29045885Y-114309684D01*
X29171415Y-114237209D01*
X29273909Y-114134715D01*
X29346384Y-114009185D01*
X29383899Y-113869177D01*
X29383900Y-113869177D01*
X29383900Y-113724223D01*
X29383899Y-113724222D01*
X29377281Y-113699525D01*
X29357680Y-113626372D01*
X29346385Y-113584218D01*
X29346383Y-113584213D01*
X29273908Y-113458684D01*
X29230574Y-113415350D01*
X29208900Y-113363024D01*
X29208900Y-98233589D01*
X29230574Y-98181263D01*
X29499395Y-97912442D01*
X29788017Y-97623819D01*
X29840342Y-97602146D01*
X29892668Y-97623820D01*
X29913431Y-97664569D01*
X29926598Y-97747700D01*
X29926600Y-97747711D01*
X29980126Y-97912444D01*
X29980651Y-97913711D01*
X29980650Y-97914058D01*
X29981025Y-97915210D01*
X29980650Y-97915331D01*
X29980649Y-97970348D01*
X29964609Y-97994353D01*
X29620138Y-98338825D01*
X29550225Y-98408737D01*
X29500790Y-98494360D01*
X29500788Y-98494365D01*
X29475200Y-98589862D01*
X29475200Y-110763937D01*
X29500788Y-110859434D01*
X29500790Y-110859439D01*
X29528206Y-110906923D01*
X29548977Y-110942900D01*
X29550226Y-110945063D01*
X30224038Y-111618875D01*
X30309663Y-111668311D01*
X30363886Y-111682839D01*
X30408817Y-111717316D01*
X30416211Y-111773469D01*
X30388229Y-111814184D01*
X30283071Y-111890587D01*
X30160582Y-112013076D01*
X30058767Y-112153212D01*
X29980127Y-112307553D01*
X29980125Y-112307557D01*
X29926600Y-112472288D01*
X29926597Y-112472301D01*
X29899500Y-112643388D01*
X29899500Y-112816611D01*
X29926597Y-112987698D01*
X29926600Y-112987711D01*
X29980125Y-113152442D01*
X29980127Y-113152446D01*
X30058570Y-113306400D01*
X30058768Y-113306788D01*
X30160586Y-113446928D01*
X30283072Y-113569414D01*
X30283075Y-113569416D01*
X30283076Y-113569417D01*
X30423212Y-113671232D01*
X30577553Y-113749872D01*
X30577557Y-113749874D01*
X30742288Y-113803399D01*
X30742294Y-113803400D01*
X30742299Y-113803402D01*
X30856359Y-113821467D01*
X30913388Y-113830500D01*
X30913389Y-113830500D01*
X31086612Y-113830500D01*
X31129383Y-113823725D01*
X31257701Y-113803402D01*
X31257708Y-113803399D01*
X31257711Y-113803399D01*
X31422442Y-113749874D01*
X31422442Y-113749873D01*
X31422445Y-113749873D01*
X31576788Y-113671232D01*
X31716928Y-113569414D01*
X31839414Y-113446928D01*
X31941232Y-113306788D01*
X32019873Y-113152445D01*
X32033297Y-113111131D01*
X32073399Y-112987711D01*
X32073399Y-112987708D01*
X32073402Y-112987701D01*
X32100500Y-112816611D01*
X32100500Y-112661289D01*
X32122174Y-112608963D01*
X32174500Y-112587289D01*
X32226826Y-112608963D01*
X41468425Y-121850562D01*
X41538338Y-121920475D01*
X41623962Y-121969910D01*
X41671713Y-121982705D01*
X41695588Y-121989102D01*
X41719463Y-121995500D01*
X41719464Y-121995500D01*
X41719465Y-121995500D01*
X47939506Y-121995500D01*
X47991832Y-122017174D01*
X48013506Y-122069500D01*
X47991832Y-122121826D01*
X47940582Y-122173076D01*
X47838767Y-122313212D01*
X47760127Y-122467553D01*
X47760125Y-122467557D01*
X47706600Y-122632288D01*
X47706597Y-122632301D01*
X47679500Y-122803388D01*
X47679500Y-122976611D01*
X47706597Y-123147698D01*
X47706600Y-123147711D01*
X47760125Y-123312442D01*
X47760127Y-123312446D01*
X47838767Y-123466787D01*
X47928686Y-123590550D01*
X47940586Y-123606928D01*
X48063072Y-123729414D01*
X48063075Y-123729416D01*
X48063076Y-123729417D01*
X48203212Y-123831232D01*
X48357553Y-123909872D01*
X48357557Y-123909874D01*
X48522288Y-123963399D01*
X48522294Y-123963400D01*
X48522299Y-123963402D01*
X48636359Y-123981467D01*
X48693388Y-123990500D01*
X48693389Y-123990500D01*
X48866612Y-123990500D01*
X48909383Y-123983725D01*
X49037701Y-123963402D01*
X49037708Y-123963399D01*
X49037711Y-123963399D01*
X49202442Y-123909874D01*
X49202442Y-123909873D01*
X49202445Y-123909873D01*
X49356788Y-123831232D01*
X49496928Y-123729414D01*
X49619414Y-123606928D01*
X49721232Y-123466788D01*
X49799873Y-123312445D01*
X49813297Y-123271131D01*
X49853399Y-123147711D01*
X49853399Y-123147708D01*
X49853402Y-123147701D01*
X49880500Y-122976611D01*
X49880500Y-122803389D01*
X49853402Y-122632299D01*
X49853400Y-122632294D01*
X49853399Y-122632288D01*
X49799874Y-122467557D01*
X49799872Y-122467553D01*
X49721232Y-122313212D01*
X49619417Y-122173076D01*
X49619416Y-122173075D01*
X49619414Y-122173072D01*
X49568168Y-122121826D01*
X49546494Y-122069500D01*
X49568168Y-122017174D01*
X49620494Y-121995500D01*
X49866311Y-121995500D01*
X49918636Y-122017173D01*
X52173837Y-124272375D01*
X52208488Y-124292380D01*
X52259462Y-124321810D01*
X52307213Y-124334605D01*
X52326965Y-124339897D01*
X52354963Y-124347400D01*
X52354964Y-124347400D01*
X52354965Y-124347400D01*
X54508724Y-124347400D01*
X54561050Y-124369074D01*
X54604385Y-124412409D01*
X54729915Y-124484884D01*
X54729916Y-124484884D01*
X54729918Y-124484885D01*
X54744406Y-124488767D01*
X54869922Y-124522399D01*
X54869923Y-124522400D01*
X54869925Y-124522400D01*
X55014877Y-124522400D01*
X55014877Y-124522399D01*
X55154885Y-124484884D01*
X55280415Y-124412409D01*
X55382909Y-124309915D01*
X55455384Y-124184385D01*
X55492899Y-124044377D01*
X55492900Y-124044377D01*
X55492900Y-123899423D01*
X55492899Y-123899422D01*
X55455385Y-123759418D01*
X55455383Y-123759413D01*
X55382908Y-123633884D01*
X55280415Y-123531391D01*
X55154886Y-123458916D01*
X55154881Y-123458914D01*
X55014877Y-123421400D01*
X55014875Y-123421400D01*
X54869925Y-123421400D01*
X54869923Y-123421400D01*
X54729918Y-123458914D01*
X54729913Y-123458916D01*
X54604384Y-123531391D01*
X54561050Y-123574726D01*
X54508724Y-123596400D01*
X52590590Y-123596400D01*
X52538264Y-123574726D01*
X50283063Y-121319526D01*
X50283062Y-121319525D01*
X50197442Y-121270092D01*
X50197433Y-121270088D01*
X50149685Y-121257294D01*
X50149684Y-121257294D01*
X50101938Y-121244500D01*
X50101936Y-121244500D01*
X50101935Y-121244500D01*
X41955089Y-121244500D01*
X41902763Y-121222826D01*
X38403325Y-117723388D01*
X47679500Y-117723388D01*
X47679500Y-117896611D01*
X47706597Y-118067698D01*
X47706600Y-118067711D01*
X47760125Y-118232442D01*
X47760127Y-118232446D01*
X47838767Y-118386787D01*
X47838768Y-118386788D01*
X47940586Y-118526928D01*
X48063072Y-118649414D01*
X48063075Y-118649416D01*
X48063076Y-118649417D01*
X48203212Y-118751232D01*
X48357553Y-118829872D01*
X48357557Y-118829874D01*
X48522288Y-118883399D01*
X48522294Y-118883400D01*
X48522299Y-118883402D01*
X48636359Y-118901467D01*
X48693388Y-118910500D01*
X48693389Y-118910500D01*
X48866612Y-118910500D01*
X48909383Y-118903725D01*
X49037701Y-118883402D01*
X49037708Y-118883399D01*
X49037711Y-118883399D01*
X49202442Y-118829874D01*
X49202442Y-118829873D01*
X49202445Y-118829873D01*
X49356788Y-118751232D01*
X49496928Y-118649414D01*
X49619414Y-118526928D01*
X49721232Y-118386788D01*
X49799873Y-118232445D01*
X49815126Y-118185503D01*
X49853399Y-118067711D01*
X49853399Y-118067708D01*
X49853402Y-118067701D01*
X49880500Y-117896611D01*
X49880500Y-117723389D01*
X49853402Y-117552299D01*
X49853400Y-117552294D01*
X49853399Y-117552288D01*
X49799874Y-117387557D01*
X49799872Y-117387553D01*
X49721232Y-117233212D01*
X49619417Y-117093076D01*
X49619416Y-117093075D01*
X49619414Y-117093072D01*
X49496928Y-116970586D01*
X49496925Y-116970583D01*
X49496923Y-116970582D01*
X49356787Y-116868767D01*
X49202446Y-116790127D01*
X49202442Y-116790125D01*
X49037711Y-116736600D01*
X49037698Y-116736597D01*
X48866612Y-116709500D01*
X48866611Y-116709500D01*
X48693389Y-116709500D01*
X48693388Y-116709500D01*
X48522301Y-116736597D01*
X48522288Y-116736600D01*
X48357557Y-116790125D01*
X48357553Y-116790127D01*
X48203212Y-116868767D01*
X48063076Y-116970582D01*
X47940582Y-117093076D01*
X47838767Y-117233212D01*
X47760127Y-117387553D01*
X47760125Y-117387557D01*
X47706600Y-117552288D01*
X47706597Y-117552301D01*
X47679500Y-117723388D01*
X38403325Y-117723388D01*
X35181763Y-114501826D01*
X35160089Y-114449500D01*
X35181763Y-114397174D01*
X35234089Y-114375500D01*
X47939506Y-114375500D01*
X47991832Y-114397174D01*
X48013506Y-114449500D01*
X47991832Y-114501826D01*
X47940582Y-114553076D01*
X47838767Y-114693212D01*
X47760127Y-114847553D01*
X47760125Y-114847557D01*
X47706600Y-115012288D01*
X47706597Y-115012301D01*
X47679500Y-115183388D01*
X47679500Y-115356611D01*
X47706597Y-115527698D01*
X47706600Y-115527711D01*
X47760125Y-115692442D01*
X47760127Y-115692446D01*
X47838767Y-115846787D01*
X47891287Y-115919075D01*
X47940586Y-115986928D01*
X48063072Y-116109414D01*
X48063075Y-116109416D01*
X48063076Y-116109417D01*
X48203212Y-116211232D01*
X48357553Y-116289872D01*
X48357557Y-116289874D01*
X48522288Y-116343399D01*
X48522294Y-116343400D01*
X48522299Y-116343402D01*
X48606026Y-116356663D01*
X48693388Y-116370500D01*
X48693389Y-116370500D01*
X48866612Y-116370500D01*
X48909383Y-116363725D01*
X49037701Y-116343402D01*
X49037708Y-116343399D01*
X49037711Y-116343399D01*
X49202442Y-116289874D01*
X49202442Y-116289873D01*
X49202445Y-116289873D01*
X49356788Y-116211232D01*
X49496928Y-116109414D01*
X49619414Y-115986928D01*
X49721232Y-115846788D01*
X49799873Y-115692445D01*
X49853402Y-115527701D01*
X49869426Y-115426527D01*
X49899019Y-115378237D01*
X49954091Y-115365015D01*
X49994841Y-115385778D01*
X53015426Y-118406363D01*
X53037100Y-118458689D01*
X53037100Y-122037524D01*
X53015426Y-122089850D01*
X52972091Y-122133184D01*
X52899616Y-122258713D01*
X52899614Y-122258718D01*
X52862100Y-122398722D01*
X52862100Y-122543677D01*
X52899614Y-122683681D01*
X52899616Y-122683686D01*
X52968727Y-122803388D01*
X52972091Y-122809215D01*
X53074585Y-122911709D01*
X53200115Y-122984184D01*
X53200116Y-122984184D01*
X53200118Y-122984185D01*
X53270120Y-123002942D01*
X53340122Y-123021699D01*
X53340123Y-123021700D01*
X53340125Y-123021700D01*
X53485077Y-123021700D01*
X53485077Y-123021699D01*
X53625085Y-122984184D01*
X53750615Y-122911709D01*
X53853109Y-122809215D01*
X53925584Y-122683685D01*
X53963099Y-122543677D01*
X53963100Y-122543677D01*
X53963100Y-122398723D01*
X53963099Y-122398722D01*
X53925585Y-122258718D01*
X53925583Y-122258713D01*
X53853108Y-122133184D01*
X53809774Y-122089850D01*
X53788100Y-122037524D01*
X53788100Y-118223065D01*
X53778034Y-118185500D01*
X53762510Y-118127563D01*
X53762510Y-118127562D01*
X53713075Y-118041938D01*
X53643162Y-117972025D01*
X49409702Y-113738565D01*
X49388028Y-113686239D01*
X49409702Y-113633913D01*
X49418532Y-113626372D01*
X49450940Y-113602826D01*
X49496928Y-113569414D01*
X49619414Y-113446928D01*
X49721232Y-113306788D01*
X49799873Y-113152445D01*
X49799874Y-113152441D01*
X49799877Y-113152436D01*
X49800399Y-113151177D01*
X49800643Y-113150932D01*
X49801193Y-113149854D01*
X49801543Y-113150032D01*
X49840449Y-113111131D01*
X49868764Y-113105500D01*
X53599224Y-113105500D01*
X53651550Y-113127174D01*
X53720785Y-113196409D01*
X53846315Y-113268884D01*
X53846316Y-113268884D01*
X53846318Y-113268885D01*
X53916320Y-113287642D01*
X53986322Y-113306399D01*
X53986323Y-113306400D01*
X53986325Y-113306400D01*
X54131277Y-113306400D01*
X54131277Y-113306399D01*
X54271285Y-113268884D01*
X54396815Y-113196409D01*
X54499309Y-113093915D01*
X54520806Y-113056680D01*
X54565736Y-113022202D01*
X54621889Y-113029593D01*
X54637217Y-113041354D01*
X55982026Y-114386163D01*
X56003700Y-114438489D01*
X56003700Y-123538224D01*
X55982026Y-123590550D01*
X55938691Y-123633884D01*
X55866216Y-123759413D01*
X55866214Y-123759418D01*
X55828700Y-123899422D01*
X55828700Y-124044377D01*
X55866214Y-124184381D01*
X55866216Y-124184386D01*
X55917017Y-124272375D01*
X55938691Y-124309915D01*
X56041185Y-124412409D01*
X56166715Y-124484884D01*
X56166716Y-124484884D01*
X56166718Y-124484885D01*
X56181206Y-124488767D01*
X56306722Y-124522399D01*
X56306723Y-124522400D01*
X56306725Y-124522400D01*
X56451677Y-124522400D01*
X56451677Y-124522399D01*
X56591685Y-124484884D01*
X56717215Y-124412409D01*
X56819709Y-124309915D01*
X56892184Y-124184385D01*
X56929699Y-124044377D01*
X56929700Y-124044377D01*
X56929700Y-123899423D01*
X56929699Y-123899422D01*
X56892185Y-123759418D01*
X56892183Y-123759413D01*
X56819708Y-123633884D01*
X56776374Y-123590550D01*
X56754700Y-123538224D01*
X56754700Y-117194194D01*
X56776374Y-117141868D01*
X56828700Y-117120194D01*
X56865696Y-117130106D01*
X56949315Y-117178384D01*
X56949317Y-117178384D01*
X56949318Y-117178385D01*
X57008318Y-117194194D01*
X57089322Y-117215899D01*
X57089323Y-117215900D01*
X57089325Y-117215900D01*
X57234277Y-117215900D01*
X57234277Y-117215899D01*
X57374285Y-117178384D01*
X57499815Y-117105909D01*
X57576526Y-117029196D01*
X57591849Y-117017439D01*
X57595535Y-117015310D01*
X57595538Y-117015310D01*
X57681162Y-116965875D01*
X57751075Y-116895962D01*
X58290374Y-116356663D01*
X58297154Y-116344920D01*
X58339810Y-116271038D01*
X58365399Y-116175537D01*
X58365400Y-116175537D01*
X58365400Y-105895163D01*
X58365399Y-105895162D01*
X58339811Y-105799665D01*
X58339809Y-105799660D01*
X58290374Y-105714037D01*
X56599574Y-104023237D01*
X56577900Y-103970911D01*
X56577900Y-103909623D01*
X56577899Y-103909622D01*
X56540385Y-103769618D01*
X56540383Y-103769613D01*
X56520963Y-103735976D01*
X56467909Y-103644085D01*
X56365415Y-103541591D01*
X56239886Y-103469116D01*
X56239881Y-103469114D01*
X56099877Y-103431600D01*
X56099875Y-103431600D01*
X55954925Y-103431600D01*
X55954923Y-103431600D01*
X55814918Y-103469114D01*
X55814913Y-103469116D01*
X55689384Y-103541591D01*
X55586891Y-103644084D01*
X55514416Y-103769613D01*
X55514414Y-103769618D01*
X55476900Y-103909622D01*
X55476900Y-104054577D01*
X55514414Y-104194581D01*
X55514416Y-104194586D01*
X55540498Y-104239761D01*
X55586891Y-104320115D01*
X55689385Y-104422609D01*
X55814915Y-104495084D01*
X55814916Y-104495084D01*
X55814918Y-104495085D01*
X55884920Y-104513842D01*
X55954922Y-104532599D01*
X55954923Y-104532600D01*
X55954925Y-104532600D01*
X56016211Y-104532600D01*
X56068537Y-104554274D01*
X57592726Y-106078463D01*
X57614400Y-106130789D01*
X57614400Y-108154710D01*
X57592726Y-108207036D01*
X57540400Y-108228710D01*
X57488074Y-108207036D01*
X49815390Y-100534353D01*
X49793716Y-100482027D01*
X49799049Y-100455235D01*
X49798975Y-100455211D01*
X49799179Y-100454581D01*
X49799357Y-100453690D01*
X49799876Y-100452437D01*
X49853399Y-100287711D01*
X49853399Y-100287708D01*
X49853402Y-100287701D01*
X49880500Y-100116611D01*
X49880500Y-99943389D01*
X49853402Y-99772299D01*
X49853400Y-99772294D01*
X49853399Y-99772288D01*
X49799874Y-99607557D01*
X49799872Y-99607553D01*
X49721232Y-99453212D01*
X49619417Y-99313076D01*
X49619416Y-99313075D01*
X49619414Y-99313072D01*
X49496928Y-99190586D01*
X49496925Y-99190583D01*
X49496923Y-99190582D01*
X49356787Y-99088767D01*
X49202446Y-99010127D01*
X49202442Y-99010125D01*
X49037711Y-98956600D01*
X49037698Y-98956597D01*
X48866612Y-98929500D01*
X48866611Y-98929500D01*
X48693389Y-98929500D01*
X48693388Y-98929500D01*
X48522301Y-98956597D01*
X48522288Y-98956600D01*
X48357547Y-99010129D01*
X48356282Y-99010653D01*
X48355934Y-99010652D01*
X48354790Y-99011025D01*
X48354669Y-99010652D01*
X48299645Y-99010647D01*
X48275646Y-98994609D01*
X45301762Y-96020725D01*
X45216142Y-95971292D01*
X45216133Y-95971288D01*
X45168385Y-95958494D01*
X45168384Y-95958494D01*
X45120638Y-95945700D01*
X45120636Y-95945700D01*
X45120635Y-95945700D01*
X30745790Y-95945700D01*
X30693464Y-95924026D01*
X28853374Y-94083936D01*
X28831700Y-94031610D01*
X28831700Y-77885842D01*
X30649500Y-77885842D01*
X30649500Y-78114157D01*
X30685215Y-78339657D01*
X30685218Y-78339670D01*
X30755766Y-78556793D01*
X30755768Y-78556798D01*
X30755769Y-78556799D01*
X30859421Y-78760228D01*
X30993621Y-78944937D01*
X31155063Y-79106379D01*
X31339772Y-79240579D01*
X31543201Y-79344231D01*
X31543203Y-79344231D01*
X31543206Y-79344233D01*
X31760329Y-79414781D01*
X31760335Y-79414782D01*
X31760340Y-79414784D01*
X31910675Y-79438594D01*
X31985842Y-79450500D01*
X31985843Y-79450500D01*
X32214158Y-79450500D01*
X32270532Y-79441571D01*
X32439660Y-79414784D01*
X32439667Y-79414781D01*
X32439670Y-79414781D01*
X32656793Y-79344233D01*
X32656793Y-79344232D01*
X32656799Y-79344231D01*
X32860228Y-79240579D01*
X33044937Y-79106379D01*
X33206379Y-78944937D01*
X33340579Y-78760228D01*
X33444231Y-78556799D01*
X33514784Y-78339660D01*
X33550500Y-78114157D01*
X33550500Y-77885843D01*
X33514784Y-77660340D01*
X33514782Y-77660335D01*
X33514781Y-77660329D01*
X33444233Y-77443206D01*
X33444231Y-77443203D01*
X33444231Y-77443201D01*
X33340579Y-77239772D01*
X33206379Y-77055063D01*
X33044937Y-76893621D01*
X33044934Y-76893618D01*
X33044932Y-76893617D01*
X32860227Y-76759420D01*
X32656793Y-76655766D01*
X32439670Y-76585218D01*
X32439657Y-76585215D01*
X32214158Y-76549500D01*
X32214157Y-76549500D01*
X31985843Y-76549500D01*
X31985842Y-76549500D01*
X31760342Y-76585215D01*
X31760329Y-76585218D01*
X31543206Y-76655766D01*
X31339772Y-76759420D01*
X31155067Y-76893617D01*
X30993617Y-77055067D01*
X30859420Y-77239772D01*
X30755766Y-77443206D01*
X30685218Y-77660329D01*
X30685215Y-77660342D01*
X30649500Y-77885842D01*
X28831700Y-77885842D01*
X28831700Y-73907126D01*
X38099500Y-73907126D01*
X38099500Y-74627873D01*
X38105909Y-74687485D01*
X38156202Y-74822329D01*
X38156203Y-74822330D01*
X38156204Y-74822331D01*
X38242454Y-74937546D01*
X38357669Y-75023796D01*
X38357670Y-75023797D01*
X38468605Y-75065172D01*
X38492517Y-75074091D01*
X38552127Y-75080500D01*
X39425500Y-75080499D01*
X39477826Y-75102173D01*
X39499500Y-75154499D01*
X39499500Y-76719363D01*
X39489595Y-76756346D01*
X39487822Y-76759420D01*
X39487819Y-76759425D01*
X39487016Y-76760814D01*
X39487013Y-76760820D01*
X39449500Y-76900822D01*
X39449500Y-77150500D01*
X39427826Y-77202826D01*
X39375500Y-77224500D01*
X38525326Y-77224500D01*
X38476615Y-77234189D01*
X38452259Y-77239034D01*
X38369399Y-77294398D01*
X38369398Y-77294399D01*
X38314034Y-77377259D01*
X38314034Y-77377260D01*
X38299500Y-77450326D01*
X38299500Y-79099674D01*
X38314034Y-79172740D01*
X38369399Y-79255601D01*
X38452260Y-79310966D01*
X38525326Y-79325500D01*
X38525328Y-79325500D01*
X41474672Y-79325500D01*
X41474674Y-79325500D01*
X41547740Y-79310966D01*
X41630601Y-79255601D01*
X41685966Y-79172740D01*
X41700500Y-79099674D01*
X41700500Y-77450326D01*
X41685966Y-77377260D01*
X41630601Y-77294399D01*
X41547740Y-77239034D01*
X41474674Y-77224500D01*
X41474672Y-77224500D01*
X40635652Y-77224500D01*
X40583326Y-77202826D01*
X40561652Y-77150500D01*
X40564174Y-77131347D01*
X40600499Y-76995777D01*
X40600500Y-76995777D01*
X40600500Y-75154499D01*
X40622174Y-75102173D01*
X40674500Y-75080499D01*
X41547872Y-75080499D01*
X41607483Y-75074091D01*
X41674907Y-75048943D01*
X41742329Y-75023797D01*
X41742329Y-75023796D01*
X41742331Y-75023796D01*
X41857546Y-74937546D01*
X41943796Y-74822331D01*
X41994091Y-74687483D01*
X42000500Y-74627873D01*
X42000499Y-73907128D01*
X41994091Y-73847517D01*
X41994089Y-73847512D01*
X41943797Y-73712670D01*
X41943796Y-73712669D01*
X41857546Y-73597454D01*
X41742331Y-73511204D01*
X41742330Y-73511203D01*
X41742329Y-73511202D01*
X41607487Y-73460910D01*
X41607484Y-73460909D01*
X41607483Y-73460909D01*
X41547873Y-73454500D01*
X38552126Y-73454500D01*
X38492514Y-73460909D01*
X38357670Y-73511202D01*
X38357669Y-73511203D01*
X38242454Y-73597454D01*
X38156203Y-73712669D01*
X38156202Y-73712670D01*
X38105910Y-73847512D01*
X38105909Y-73847517D01*
X38099500Y-73907126D01*
X28831700Y-73907126D01*
X28831700Y-68742676D01*
X28853374Y-68690350D01*
X28896709Y-68647015D01*
X28969184Y-68521485D01*
X29006699Y-68381477D01*
X29006700Y-68381477D01*
X29006700Y-68236523D01*
X29006699Y-68236522D01*
X28969185Y-68096518D01*
X28969183Y-68096513D01*
X28896708Y-67970984D01*
X28794215Y-67868491D01*
X28668686Y-67796016D01*
X28668681Y-67796014D01*
X28528677Y-67758500D01*
X28528675Y-67758500D01*
X28383725Y-67758500D01*
X28383723Y-67758500D01*
X28243718Y-67796014D01*
X28243713Y-67796016D01*
X28118184Y-67868491D01*
X28015691Y-67970984D01*
X27943216Y-68096513D01*
X27943214Y-68096518D01*
X27905700Y-68236522D01*
X27905700Y-68381477D01*
X27943214Y-68521481D01*
X27943216Y-68521486D01*
X28015691Y-68647015D01*
X28059026Y-68690350D01*
X28080700Y-68742676D01*
X28080700Y-94267237D01*
X28106288Y-94362734D01*
X28106290Y-94362739D01*
X28155725Y-94448362D01*
X28155726Y-94448363D01*
X29976236Y-96268874D01*
X29997910Y-96321200D01*
X29976236Y-96373526D01*
X28602838Y-97746925D01*
X28532925Y-97816837D01*
X28483490Y-97902460D01*
X28483488Y-97902465D01*
X28457900Y-97997962D01*
X28457900Y-111373475D01*
X28436226Y-111425801D01*
X28383900Y-111447475D01*
X28338857Y-111432187D01*
X28336519Y-111430393D01*
X28210986Y-111357916D01*
X28210981Y-111357914D01*
X28070977Y-111320400D01*
X28070975Y-111320400D01*
X27926025Y-111320400D01*
X27840452Y-111343329D01*
X27784300Y-111335936D01*
X27749821Y-111291002D01*
X27747300Y-111271850D01*
X27747300Y-63765677D01*
X27749822Y-63746523D01*
X27760500Y-63706675D01*
X27760500Y-63080900D01*
X27782174Y-63028574D01*
X27834500Y-63006900D01*
X29861077Y-63006900D01*
X29861077Y-63006899D01*
X30001085Y-62969384D01*
X30018440Y-62959364D01*
X30126615Y-62896910D01*
X30806351Y-62217172D01*
X30858677Y-62195499D01*
X31045484Y-62195499D01*
X31102114Y-62189412D01*
X31230226Y-62141628D01*
X31339687Y-62059687D01*
X31421628Y-61950226D01*
X31469412Y-61822114D01*
X31475500Y-61765485D01*
X31475499Y-61617674D01*
X31497173Y-61565350D01*
X31549499Y-61543676D01*
X31601825Y-61565350D01*
X34068985Y-64032510D01*
X34142077Y-64074709D01*
X34194515Y-64104984D01*
X34194516Y-64104984D01*
X34194518Y-64104985D01*
X34264520Y-64123742D01*
X34334522Y-64142499D01*
X34334523Y-64142500D01*
X34334525Y-64142500D01*
X34334526Y-64142500D01*
X34479474Y-64142500D01*
X34674823Y-64142500D01*
X34727149Y-64164174D01*
X38623300Y-68060325D01*
X38644974Y-68112651D01*
X38623300Y-68164977D01*
X38607974Y-68176737D01*
X38530284Y-68221591D01*
X38445662Y-68306214D01*
X38427791Y-68324085D01*
X38423393Y-68331700D01*
X38378461Y-68366179D01*
X38359309Y-68368700D01*
X36250339Y-68368700D01*
X36213339Y-68358786D01*
X36122286Y-68306216D01*
X36122281Y-68306214D01*
X35982277Y-68268700D01*
X35982275Y-68268700D01*
X35837325Y-68268700D01*
X35837323Y-68268700D01*
X35697318Y-68306214D01*
X35697313Y-68306216D01*
X35571784Y-68378691D01*
X35469291Y-68481184D01*
X35396816Y-68606713D01*
X35396814Y-68606718D01*
X35359300Y-68746722D01*
X35359300Y-68891677D01*
X35396814Y-69031681D01*
X35396816Y-69031686D01*
X35437764Y-69102609D01*
X35469291Y-69157215D01*
X35571785Y-69259709D01*
X35697315Y-69332184D01*
X35697316Y-69332184D01*
X35697318Y-69332185D01*
X35740293Y-69343700D01*
X35837322Y-69369699D01*
X35837323Y-69369700D01*
X35837325Y-69369700D01*
X35982277Y-69369700D01*
X35982277Y-69369699D01*
X36122285Y-69332184D01*
X36213339Y-69279614D01*
X36250339Y-69269700D01*
X38134111Y-69269700D01*
X38186437Y-69291374D01*
X38208111Y-69343700D01*
X38193351Y-69388047D01*
X38156203Y-69437669D01*
X38156202Y-69437670D01*
X38105910Y-69572512D01*
X38105909Y-69572517D01*
X38099500Y-69632126D01*
X38099500Y-70352873D01*
X38105909Y-70412485D01*
X38156202Y-70547329D01*
X38156203Y-70547330D01*
X38156204Y-70547331D01*
X38242454Y-70662546D01*
X38357669Y-70748796D01*
X38357670Y-70748797D01*
X38468605Y-70790172D01*
X38492517Y-70799091D01*
X38552127Y-70805500D01*
X41547872Y-70805499D01*
X41607483Y-70799091D01*
X41674907Y-70773943D01*
X41742329Y-70748797D01*
X41742329Y-70748796D01*
X41742331Y-70748796D01*
X41857546Y-70662546D01*
X41943796Y-70547331D01*
X41994091Y-70412483D01*
X42000500Y-70352873D01*
X42000499Y-69632128D01*
X41994091Y-69572517D01*
X41994089Y-69572512D01*
X41943797Y-69437670D01*
X41943796Y-69437669D01*
X41857546Y-69322454D01*
X41742331Y-69236204D01*
X41742330Y-69236203D01*
X41742329Y-69236202D01*
X41607487Y-69185910D01*
X41607484Y-69185909D01*
X41607483Y-69185909D01*
X41577678Y-69182704D01*
X41547874Y-69179500D01*
X41547873Y-69179500D01*
X40674500Y-69179500D01*
X40622174Y-69157826D01*
X40600500Y-69105500D01*
X40600500Y-68636023D01*
X40600499Y-68636022D01*
X40562985Y-68496017D01*
X40496855Y-68381475D01*
X40490510Y-68370485D01*
X35764351Y-63644326D01*
X35742677Y-63592000D01*
X35764351Y-63539674D01*
X40706311Y-58597714D01*
X45676910Y-53627115D01*
X45749384Y-53501585D01*
X45782827Y-53376774D01*
X45786900Y-53361575D01*
X45786900Y-51940300D01*
X45808574Y-51887974D01*
X45860900Y-51866300D01*
X47255977Y-51866300D01*
X47255977Y-51866299D01*
X47354389Y-51839929D01*
X47395982Y-51828785D01*
X47395982Y-51828784D01*
X47395985Y-51828784D01*
X47521515Y-51756310D01*
X47765751Y-51512074D01*
X47818077Y-51490400D01*
X51113531Y-51490400D01*
X51165857Y-51512074D01*
X51187531Y-51564400D01*
X51172771Y-51608747D01*
X51106203Y-51697669D01*
X51106202Y-51697670D01*
X51055910Y-51832512D01*
X51055909Y-51832517D01*
X51049500Y-51892126D01*
X51049500Y-53281322D01*
X51027826Y-53333648D01*
X46969490Y-57391984D01*
X46897014Y-57517517D01*
X46859500Y-57657522D01*
X46859500Y-89818704D01*
X46837826Y-89871030D01*
X46785500Y-89892704D01*
X46733174Y-89871030D01*
X46719566Y-89852300D01*
X46702290Y-89818394D01*
X46702287Y-89818390D01*
X46676857Y-89783388D01*
X46581966Y-89652781D01*
X46437219Y-89508034D01*
X46353976Y-89447555D01*
X46271610Y-89387712D01*
X46089213Y-89294777D01*
X45894544Y-89231525D01*
X45894531Y-89231522D01*
X45692354Y-89199500D01*
X45692352Y-89199500D01*
X45487648Y-89199500D01*
X45487646Y-89199500D01*
X45285468Y-89231522D01*
X45285455Y-89231525D01*
X45090786Y-89294777D01*
X44908389Y-89387712D01*
X44762280Y-89493867D01*
X44742781Y-89508034D01*
X44598034Y-89652781D01*
X44598031Y-89652784D01*
X44598031Y-89652785D01*
X44477712Y-89818389D01*
X44384777Y-90000786D01*
X44321525Y-90195455D01*
X44321522Y-90195468D01*
X44289500Y-90397646D01*
X44289500Y-90602353D01*
X44321522Y-90804531D01*
X44321525Y-90804544D01*
X44384777Y-90999213D01*
X44477712Y-91181610D01*
X44529204Y-91252482D01*
X44598034Y-91347219D01*
X44742781Y-91491966D01*
X44834695Y-91558745D01*
X44908389Y-91612287D01*
X44996300Y-91657079D01*
X45090781Y-91705220D01*
X45090783Y-91705220D01*
X45090786Y-91705222D01*
X45285455Y-91768474D01*
X45285461Y-91768475D01*
X45285466Y-91768477D01*
X45386557Y-91784488D01*
X45487646Y-91800500D01*
X45487648Y-91800500D01*
X45692354Y-91800500D01*
X45773224Y-91787690D01*
X45894534Y-91768477D01*
X45894541Y-91768474D01*
X45894544Y-91768474D01*
X46089213Y-91705222D01*
X46089213Y-91705221D01*
X46089219Y-91705220D01*
X46271610Y-91612287D01*
X46437219Y-91491966D01*
X46581966Y-91347219D01*
X46702287Y-91181610D01*
X46729939Y-91127338D01*
X46773006Y-91090556D01*
X46829469Y-91094999D01*
X46866252Y-91138066D01*
X46867352Y-91141781D01*
X46897014Y-91252482D01*
X46969490Y-91378015D01*
X47685019Y-92093543D01*
X47706693Y-92145869D01*
X47705782Y-92157445D01*
X47679500Y-92323388D01*
X47679500Y-92496611D01*
X47706597Y-92667698D01*
X47706600Y-92667711D01*
X47760125Y-92832442D01*
X47760127Y-92832446D01*
X47838767Y-92986787D01*
X47922114Y-93101504D01*
X47935336Y-93156576D01*
X47905743Y-93204867D01*
X47862247Y-93219000D01*
X35192389Y-93219000D01*
X35140063Y-93197326D01*
X33839464Y-91896727D01*
X33817790Y-91844401D01*
X33839464Y-91792075D01*
X33891790Y-91770401D01*
X33903364Y-91771311D01*
X33956181Y-91779677D01*
X34087646Y-91800500D01*
X34087648Y-91800500D01*
X34292354Y-91800500D01*
X34373224Y-91787690D01*
X34494534Y-91768477D01*
X34494541Y-91768474D01*
X34494544Y-91768474D01*
X34689213Y-91705222D01*
X34689213Y-91705221D01*
X34689219Y-91705220D01*
X34871610Y-91612287D01*
X35037219Y-91491966D01*
X35181966Y-91347219D01*
X35302287Y-91181610D01*
X35395220Y-90999219D01*
X35427263Y-90900600D01*
X35458474Y-90804544D01*
X35458474Y-90804541D01*
X35458477Y-90804534D01*
X35490500Y-90602352D01*
X35490500Y-90397648D01*
X35458477Y-90195466D01*
X35458475Y-90195461D01*
X35458474Y-90195455D01*
X35395222Y-90000786D01*
X35395220Y-90000783D01*
X35395220Y-90000781D01*
X35340152Y-89892704D01*
X35302287Y-89818389D01*
X35234479Y-89725060D01*
X35181966Y-89652781D01*
X35037219Y-89508034D01*
X34953976Y-89447555D01*
X34871610Y-89387712D01*
X34689213Y-89294777D01*
X34494544Y-89231525D01*
X34494531Y-89231522D01*
X34292354Y-89199500D01*
X34292352Y-89199500D01*
X34087648Y-89199500D01*
X34087646Y-89199500D01*
X33885468Y-89231522D01*
X33885455Y-89231525D01*
X33690786Y-89294777D01*
X33508389Y-89387712D01*
X33362280Y-89493867D01*
X33342781Y-89508034D01*
X33198034Y-89652781D01*
X33198031Y-89652784D01*
X33198031Y-89652785D01*
X33077712Y-89818389D01*
X32984777Y-90000786D01*
X32921525Y-90195455D01*
X32921522Y-90195468D01*
X32889500Y-90397646D01*
X32889500Y-90602353D01*
X32918687Y-90786633D01*
X32905465Y-90841705D01*
X32857174Y-90871298D01*
X32802102Y-90858076D01*
X32793272Y-90850535D01*
X32523874Y-90581137D01*
X32502200Y-90528811D01*
X32502200Y-89820563D01*
X32502199Y-89820562D01*
X32476611Y-89725065D01*
X32476609Y-89725060D01*
X32434881Y-89652785D01*
X32427175Y-89639438D01*
X32357262Y-89569525D01*
X32271639Y-89520090D01*
X32271634Y-89520088D01*
X32176137Y-89494500D01*
X32176135Y-89494500D01*
X32174500Y-89494500D01*
X32173737Y-89494184D01*
X32171328Y-89493867D01*
X32171412Y-89493221D01*
X32122174Y-89472826D01*
X32100500Y-89420500D01*
X32100500Y-88995327D01*
X32093448Y-88959876D01*
X32085966Y-88922260D01*
X32030601Y-88839399D01*
X31947740Y-88784034D01*
X31874674Y-88769500D01*
X30125326Y-88769500D01*
X30076615Y-88779189D01*
X30052259Y-88784034D01*
X29969399Y-88839398D01*
X29969398Y-88839399D01*
X29914034Y-88922259D01*
X29912739Y-88928768D01*
X29899500Y-88995326D01*
X29899500Y-90744674D01*
X29906790Y-90781323D01*
X29914034Y-90817740D01*
X29962231Y-90889874D01*
X29969399Y-90900601D01*
X30052260Y-90955966D01*
X30125326Y-90970500D01*
X31820511Y-90970500D01*
X31872837Y-90992174D01*
X34604037Y-93723374D01*
X34625711Y-93775700D01*
X34604037Y-93828026D01*
X34551711Y-93849700D01*
X33001389Y-93849700D01*
X32949063Y-93828026D01*
X32035390Y-92914353D01*
X32013716Y-92862027D01*
X32019049Y-92835235D01*
X32018975Y-92835211D01*
X32019179Y-92834581D01*
X32019357Y-92833690D01*
X32019876Y-92832437D01*
X32073399Y-92667711D01*
X32073399Y-92667708D01*
X32073402Y-92667701D01*
X32100500Y-92496611D01*
X32100500Y-92323389D01*
X32073402Y-92152299D01*
X32073400Y-92152294D01*
X32073399Y-92152288D01*
X32019874Y-91987557D01*
X32019872Y-91987553D01*
X31941232Y-91833212D01*
X31839417Y-91693076D01*
X31839416Y-91693075D01*
X31839414Y-91693072D01*
X31716928Y-91570586D01*
X31716925Y-91570583D01*
X31716923Y-91570582D01*
X31576787Y-91468767D01*
X31422446Y-91390127D01*
X31422442Y-91390125D01*
X31257711Y-91336600D01*
X31257698Y-91336597D01*
X31086612Y-91309500D01*
X31086611Y-91309500D01*
X30913389Y-91309500D01*
X30913388Y-91309500D01*
X30742301Y-91336597D01*
X30742288Y-91336600D01*
X30577557Y-91390125D01*
X30577553Y-91390127D01*
X30423212Y-91468767D01*
X30283076Y-91570582D01*
X30160582Y-91693076D01*
X30058767Y-91833212D01*
X29980127Y-91987553D01*
X29980125Y-91987557D01*
X29926600Y-92152288D01*
X29926597Y-92152301D01*
X29899500Y-92323388D01*
X29899500Y-92496611D01*
X29926597Y-92667698D01*
X29926600Y-92667711D01*
X29980125Y-92832442D01*
X29980127Y-92832446D01*
X30058767Y-92986787D01*
X30058768Y-92986788D01*
X30160586Y-93126928D01*
X30283072Y-93249414D01*
X30283075Y-93249416D01*
X30283076Y-93249417D01*
X30423212Y-93351232D01*
X30577553Y-93429872D01*
X30577557Y-93429874D01*
X30742288Y-93483399D01*
X30742294Y-93483400D01*
X30742299Y-93483402D01*
X30856359Y-93501467D01*
X30913388Y-93510500D01*
X30913389Y-93510500D01*
X31086612Y-93510500D01*
X31129383Y-93503725D01*
X31257701Y-93483402D01*
X31257708Y-93483399D01*
X31257711Y-93483399D01*
X31422437Y-93429876D01*
X31422441Y-93429874D01*
X31422445Y-93429873D01*
X31422448Y-93429871D01*
X31423690Y-93429357D01*
X31424035Y-93429356D01*
X31425211Y-93428975D01*
X31425334Y-93429356D01*
X31480327Y-93429341D01*
X31504353Y-93445390D01*
X32514725Y-94455762D01*
X32584638Y-94525675D01*
X32670262Y-94575110D01*
X32718013Y-94587905D01*
X32741888Y-94594302D01*
X32765763Y-94600700D01*
X32765764Y-94600700D01*
X32765765Y-94600700D01*
X44304011Y-94600700D01*
X44356336Y-94622373D01*
X46163637Y-96429675D01*
X46249263Y-96479111D01*
X46344764Y-96504700D01*
X46344765Y-96504700D01*
X48036119Y-96504700D01*
X48088445Y-96526374D01*
X48110119Y-96578700D01*
X48088445Y-96631026D01*
X48079615Y-96638567D01*
X48063078Y-96650582D01*
X48063072Y-96650586D01*
X48063067Y-96650591D01*
X47940582Y-96773076D01*
X47838767Y-96913212D01*
X47760127Y-97067553D01*
X47760125Y-97067557D01*
X47706600Y-97232288D01*
X47706597Y-97232301D01*
X47679500Y-97403388D01*
X47679500Y-97576611D01*
X47706597Y-97747698D01*
X47706600Y-97747711D01*
X47760125Y-97912442D01*
X47760127Y-97912446D01*
X47803701Y-97997965D01*
X47838768Y-98066788D01*
X47940586Y-98206928D01*
X48063072Y-98329414D01*
X48063075Y-98329416D01*
X48063076Y-98329417D01*
X48203212Y-98431232D01*
X48357553Y-98509872D01*
X48357557Y-98509874D01*
X48522288Y-98563399D01*
X48522294Y-98563400D01*
X48522299Y-98563402D01*
X48636359Y-98581467D01*
X48693388Y-98590500D01*
X48693389Y-98590500D01*
X48866612Y-98590500D01*
X48909383Y-98583725D01*
X49037701Y-98563402D01*
X49037708Y-98563399D01*
X49037711Y-98563399D01*
X49202442Y-98509874D01*
X49202442Y-98509873D01*
X49202445Y-98509873D01*
X49356788Y-98431232D01*
X49496928Y-98329414D01*
X49619414Y-98206928D01*
X49721232Y-98066788D01*
X49799873Y-97912445D01*
X49853402Y-97747701D01*
X49880500Y-97576611D01*
X49880500Y-97403389D01*
X49853402Y-97232299D01*
X49853400Y-97232294D01*
X49853399Y-97232288D01*
X49799874Y-97067557D01*
X49799872Y-97067553D01*
X49721232Y-96913212D01*
X49619417Y-96773076D01*
X49619416Y-96773075D01*
X49619414Y-96773072D01*
X49496928Y-96650586D01*
X49496925Y-96650583D01*
X49496923Y-96650582D01*
X49394201Y-96575950D01*
X49364608Y-96527659D01*
X49377830Y-96472587D01*
X49400692Y-96452000D01*
X49439362Y-96429675D01*
X49509275Y-96359762D01*
X55316474Y-90552563D01*
X55316475Y-90552562D01*
X55365910Y-90466938D01*
X55391499Y-90371437D01*
X55391500Y-90371437D01*
X55391500Y-69423663D01*
X55391499Y-69423662D01*
X55365911Y-69328165D01*
X55365909Y-69328160D01*
X55332157Y-69269700D01*
X55316475Y-69242538D01*
X55246562Y-69172625D01*
X54934274Y-68860337D01*
X54912600Y-68808011D01*
X54912600Y-68746723D01*
X54912599Y-68746722D01*
X54875085Y-68606718D01*
X54875083Y-68606713D01*
X54802608Y-68481184D01*
X54700115Y-68378691D01*
X54574586Y-68306216D01*
X54574581Y-68306214D01*
X54434577Y-68268700D01*
X54434575Y-68268700D01*
X54289625Y-68268700D01*
X54289623Y-68268700D01*
X54149618Y-68306214D01*
X54149613Y-68306216D01*
X54024084Y-68378691D01*
X53921591Y-68481184D01*
X53849116Y-68606713D01*
X53849114Y-68606718D01*
X53811600Y-68746722D01*
X53811600Y-68891677D01*
X53849114Y-69031681D01*
X53849116Y-69031686D01*
X53890064Y-69102609D01*
X53921591Y-69157215D01*
X54024085Y-69259709D01*
X54149615Y-69332184D01*
X54149616Y-69332184D01*
X54149618Y-69332185D01*
X54192593Y-69343700D01*
X54289622Y-69369699D01*
X54289623Y-69369700D01*
X54289625Y-69369700D01*
X54350911Y-69369700D01*
X54403237Y-69391374D01*
X54618826Y-69606963D01*
X54640500Y-69659289D01*
X54640500Y-86664504D01*
X54618826Y-86716830D01*
X54566500Y-86738504D01*
X54547348Y-86735983D01*
X54497775Y-86722700D01*
X54352825Y-86722700D01*
X54352823Y-86722700D01*
X54212818Y-86760214D01*
X54212813Y-86760216D01*
X54087284Y-86832691D01*
X53984791Y-86935184D01*
X53912316Y-87060713D01*
X53912314Y-87060718D01*
X53874800Y-87200722D01*
X53874800Y-87345677D01*
X53912314Y-87485681D01*
X53912316Y-87485686D01*
X53984791Y-87611215D01*
X54028126Y-87654550D01*
X54049800Y-87706876D01*
X54049800Y-88249511D01*
X54028126Y-88301837D01*
X50000433Y-92329529D01*
X49948107Y-92351203D01*
X49895781Y-92329529D01*
X49875018Y-92288779D01*
X49853402Y-92152301D01*
X49853399Y-92152288D01*
X49799874Y-91987557D01*
X49799872Y-91987553D01*
X49721232Y-91833212D01*
X49619417Y-91693076D01*
X49619416Y-91693075D01*
X49619414Y-91693072D01*
X49496928Y-91570586D01*
X49496925Y-91570583D01*
X49496923Y-91570582D01*
X49356787Y-91468767D01*
X49202446Y-91390127D01*
X49202442Y-91390125D01*
X49037711Y-91336600D01*
X49037698Y-91336597D01*
X48866612Y-91309500D01*
X48866611Y-91309500D01*
X48693389Y-91309500D01*
X48693388Y-91309500D01*
X48527445Y-91335782D01*
X48472373Y-91322560D01*
X48463543Y-91315019D01*
X47982174Y-90833649D01*
X47960500Y-90781323D01*
X47960500Y-90780123D01*
X47982174Y-90727797D01*
X48034500Y-90706123D01*
X48077992Y-90720254D01*
X48203212Y-90811232D01*
X48321099Y-90871298D01*
X48357553Y-90889872D01*
X48357557Y-90889874D01*
X48522288Y-90943399D01*
X48522294Y-90943400D01*
X48522299Y-90943402D01*
X48636359Y-90961467D01*
X48693388Y-90970500D01*
X48693389Y-90970500D01*
X48866612Y-90970500D01*
X48909383Y-90963725D01*
X49037701Y-90943402D01*
X49037708Y-90943399D01*
X49037711Y-90943399D01*
X49202442Y-90889874D01*
X49202442Y-90889873D01*
X49202445Y-90889873D01*
X49356788Y-90811232D01*
X49496928Y-90709414D01*
X49619414Y-90586928D01*
X49721232Y-90446788D01*
X49799873Y-90292445D01*
X49833765Y-90188137D01*
X49853399Y-90127711D01*
X49853399Y-90127708D01*
X49853402Y-90127701D01*
X49880500Y-89956611D01*
X49880500Y-89783389D01*
X49853402Y-89612299D01*
X49853400Y-89612294D01*
X49853399Y-89612288D01*
X49799874Y-89447557D01*
X49799872Y-89447553D01*
X49721232Y-89293212D01*
X49619417Y-89153076D01*
X49619416Y-89153075D01*
X49619414Y-89153072D01*
X49496928Y-89030586D01*
X49496925Y-89030583D01*
X49496923Y-89030582D01*
X49356787Y-88928767D01*
X49202446Y-88850127D01*
X49202442Y-88850125D01*
X49037711Y-88796600D01*
X49037698Y-88796597D01*
X48866612Y-88769500D01*
X48866611Y-88769500D01*
X48693389Y-88769500D01*
X48693388Y-88769500D01*
X48522301Y-88796597D01*
X48522288Y-88796600D01*
X48357557Y-88850125D01*
X48357553Y-88850127D01*
X48203212Y-88928767D01*
X48077996Y-89019743D01*
X48022924Y-89032965D01*
X47974633Y-89003372D01*
X47960500Y-88959876D01*
X47960500Y-57988676D01*
X47982173Y-57936351D01*
X51456351Y-54462172D01*
X51508673Y-54440499D01*
X52897872Y-54440499D01*
X52957483Y-54434091D01*
X53024907Y-54408943D01*
X53092329Y-54383797D01*
X53092329Y-54383796D01*
X53092331Y-54383796D01*
X53207546Y-54297546D01*
X53293796Y-54182331D01*
X53344091Y-54047483D01*
X53350500Y-53987873D01*
X53350499Y-51892128D01*
X53350052Y-51887974D01*
X53348955Y-51877766D01*
X53344091Y-51832517D01*
X53315668Y-51756310D01*
X53293797Y-51697670D01*
X53293796Y-51697669D01*
X53227229Y-51608747D01*
X53213222Y-51553869D01*
X53242122Y-51505160D01*
X53286469Y-51490400D01*
X56097577Y-51490400D01*
X56097577Y-51490399D01*
X56237585Y-51452884D01*
X56260767Y-51439500D01*
X56363115Y-51380410D01*
X57266350Y-50477173D01*
X57318676Y-50455500D01*
X58301111Y-50455500D01*
X58336234Y-50467057D01*
X58337215Y-50465202D01*
X58342115Y-50467791D01*
X58342118Y-50467793D01*
X58470295Y-50512644D01*
X58470301Y-50512646D01*
X58500734Y-50515500D01*
X58500741Y-50515500D01*
X59159258Y-50515500D01*
X59159266Y-50515500D01*
X59189699Y-50512646D01*
X59317882Y-50467793D01*
X59427150Y-50387150D01*
X59507793Y-50277882D01*
X59552646Y-50149699D01*
X59555500Y-50119266D01*
X59555500Y-49610734D01*
X59552646Y-49580301D01*
X59521274Y-49490646D01*
X59507793Y-49452118D01*
X59507792Y-49452116D01*
X59427153Y-49342853D01*
X59427146Y-49342846D01*
X59317883Y-49262207D01*
X59317881Y-49262206D01*
X59189704Y-49217355D01*
X59189705Y-49217355D01*
X59189700Y-49217354D01*
X59189699Y-49217354D01*
X59159266Y-49214500D01*
X58500734Y-49214500D01*
X58470301Y-49217354D01*
X58470299Y-49217354D01*
X58470295Y-49217355D01*
X58342118Y-49262206D01*
X58342116Y-49262207D01*
X58236656Y-49340040D01*
X58192714Y-49354500D01*
X56440980Y-49354500D01*
X56347195Y-49369353D01*
X56347193Y-49369354D01*
X56234157Y-49426950D01*
X56144451Y-49516656D01*
X56086853Y-49629698D01*
X56072000Y-49723480D01*
X56072000Y-50083822D01*
X56050326Y-50136148D01*
X55818749Y-50367726D01*
X55766423Y-50389400D01*
X53286619Y-50389400D01*
X53234293Y-50367726D01*
X53212619Y-50315400D01*
X53227379Y-50271053D01*
X53249165Y-50241950D01*
X53293796Y-50182331D01*
X53344091Y-50047483D01*
X53350500Y-49987873D01*
X53350500Y-49564500D01*
X53372174Y-49512174D01*
X53424500Y-49490500D01*
X54465449Y-49490500D01*
X54477025Y-49491411D01*
X54491672Y-49493730D01*
X54565981Y-49505500D01*
X55804018Y-49505499D01*
X55804019Y-49505499D01*
X55897804Y-49490646D01*
X55897806Y-49490645D01*
X55899919Y-49489568D01*
X56010842Y-49433050D01*
X56100550Y-49343342D01*
X56158146Y-49230304D01*
X56173000Y-49136519D01*
X56172999Y-48773482D01*
X56167244Y-48737146D01*
X56158146Y-48679695D01*
X56158145Y-48679693D01*
X56128097Y-48620722D01*
X56100550Y-48566658D01*
X56010842Y-48476950D01*
X55897804Y-48419354D01*
X55897802Y-48419353D01*
X55897801Y-48419353D01*
X55804020Y-48404500D01*
X55804019Y-48404500D01*
X55308200Y-48404500D01*
X55289048Y-48401979D01*
X55242475Y-48389500D01*
X53424499Y-48389500D01*
X53372173Y-48367826D01*
X53350499Y-48315500D01*
X53350499Y-47892127D01*
X53349482Y-47882668D01*
X53344091Y-47832517D01*
X53344090Y-47832513D01*
X53340721Y-47823480D01*
X56072000Y-47823480D01*
X56072000Y-48186519D01*
X56086853Y-48280304D01*
X56086854Y-48280306D01*
X56125008Y-48355185D01*
X56144450Y-48393342D01*
X56234158Y-48483050D01*
X56347196Y-48540646D01*
X56440981Y-48555500D01*
X57679018Y-48555499D01*
X57679019Y-48555499D01*
X57772804Y-48540646D01*
X57772806Y-48540645D01*
X57774215Y-48539927D01*
X57885842Y-48483050D01*
X57966718Y-48402173D01*
X58019043Y-48380500D01*
X58030500Y-48380500D01*
X58082826Y-48402174D01*
X58104500Y-48454500D01*
X58104500Y-48469266D01*
X58107354Y-48499699D01*
X58107354Y-48499701D01*
X58107355Y-48499704D01*
X58152206Y-48627881D01*
X58152207Y-48627883D01*
X58232846Y-48737146D01*
X58232853Y-48737153D01*
X58342116Y-48817792D01*
X58342118Y-48817793D01*
X58470295Y-48862644D01*
X58470301Y-48862646D01*
X58500734Y-48865500D01*
X58500741Y-48865500D01*
X59159258Y-48865500D01*
X59159266Y-48865500D01*
X59189699Y-48862646D01*
X59317882Y-48817793D01*
X59427150Y-48737150D01*
X59507793Y-48627882D01*
X59552646Y-48499699D01*
X59555500Y-48469266D01*
X59555500Y-47960734D01*
X59552646Y-47930301D01*
X59543686Y-47904696D01*
X59507793Y-47802118D01*
X59507792Y-47802116D01*
X59427153Y-47692853D01*
X59427146Y-47692846D01*
X59317883Y-47612207D01*
X59317881Y-47612206D01*
X59189704Y-47567355D01*
X59189705Y-47567355D01*
X59189700Y-47567354D01*
X59189699Y-47567354D01*
X59159266Y-47564500D01*
X58500734Y-47564500D01*
X58470301Y-47567354D01*
X58470299Y-47567354D01*
X58470295Y-47567355D01*
X58342119Y-47612206D01*
X58338281Y-47615039D01*
X58294337Y-47629500D01*
X58019043Y-47629500D01*
X57966718Y-47607826D01*
X57885842Y-47526950D01*
X57772804Y-47469354D01*
X57772802Y-47469353D01*
X57772801Y-47469353D01*
X57679020Y-47454500D01*
X57679019Y-47454500D01*
X57509500Y-47454500D01*
X57457174Y-47432826D01*
X57435500Y-47380500D01*
X57435500Y-47133121D01*
X57457174Y-47080795D01*
X57485055Y-47063276D01*
X57557882Y-47037793D01*
X57667150Y-46957150D01*
X57747793Y-46847882D01*
X57792646Y-46719699D01*
X57795500Y-46689266D01*
X57795500Y-46180734D01*
X57792646Y-46150301D01*
X57747793Y-46022118D01*
X57747792Y-46022116D01*
X57667153Y-45912853D01*
X57667146Y-45912846D01*
X57557883Y-45832207D01*
X57557881Y-45832206D01*
X57429704Y-45787355D01*
X57429705Y-45787355D01*
X57429700Y-45787354D01*
X57429699Y-45787354D01*
X57399266Y-45784500D01*
X56740734Y-45784500D01*
X56710301Y-45787354D01*
X56710299Y-45787354D01*
X56710295Y-45787355D01*
X56582118Y-45832206D01*
X56582116Y-45832207D01*
X56472853Y-45912846D01*
X56472846Y-45912853D01*
X56392207Y-46022116D01*
X56392206Y-46022118D01*
X56347355Y-46150295D01*
X56347354Y-46150299D01*
X56347354Y-46150301D01*
X56344500Y-46180734D01*
X56344500Y-46689266D01*
X56347354Y-46719699D01*
X56347354Y-46719701D01*
X56347355Y-46719704D01*
X56392206Y-46847881D01*
X56392207Y-46847883D01*
X56472846Y-46957146D01*
X56472853Y-46957153D01*
X56582113Y-47037790D01*
X56582115Y-47037791D01*
X56582118Y-47037793D01*
X56634941Y-47056276D01*
X56677171Y-47094015D01*
X56684500Y-47126123D01*
X56684500Y-47380500D01*
X56662826Y-47432826D01*
X56610500Y-47454500D01*
X56440980Y-47454500D01*
X56347195Y-47469353D01*
X56347193Y-47469354D01*
X56234157Y-47526950D01*
X56144451Y-47616656D01*
X56086853Y-47729698D01*
X56072000Y-47823480D01*
X53340721Y-47823480D01*
X53293797Y-47697670D01*
X53293796Y-47697669D01*
X53290188Y-47692850D01*
X53207546Y-47582454D01*
X53092331Y-47496204D01*
X53092330Y-47496203D01*
X53092329Y-47496202D01*
X52957487Y-47445910D01*
X52957484Y-47445909D01*
X52957483Y-47445909D01*
X52927678Y-47442704D01*
X52897874Y-47439500D01*
X52897873Y-47439500D01*
X52824500Y-47439500D01*
X52772174Y-47417826D01*
X52750500Y-47365500D01*
X52750500Y-46734507D01*
X52772174Y-46682181D01*
X52798642Y-46665172D01*
X52799662Y-46664791D01*
X52802331Y-46663796D01*
X52917546Y-46577546D01*
X53003796Y-46462331D01*
X53054091Y-46327483D01*
X53060500Y-46267873D01*
X53060499Y-44872128D01*
X53054091Y-44812517D01*
X53054089Y-44812512D01*
X53003797Y-44677670D01*
X53003796Y-44677669D01*
X52917546Y-44562454D01*
X52802331Y-44476204D01*
X52802330Y-44476203D01*
X52802329Y-44476202D01*
X52667487Y-44425910D01*
X52667484Y-44425909D01*
X52667483Y-44425909D01*
X52607873Y-44419500D01*
X51862126Y-44419500D01*
X51802514Y-44425909D01*
X51667670Y-44476202D01*
X51667669Y-44476203D01*
X51552454Y-44562454D01*
X51466203Y-44677669D01*
X51466202Y-44677670D01*
X51415910Y-44812512D01*
X51415909Y-44812517D01*
X51409500Y-44872126D01*
X51409500Y-46267873D01*
X51415909Y-46327485D01*
X51466202Y-46462329D01*
X51466203Y-46462330D01*
X51552452Y-46577544D01*
X51552453Y-46577544D01*
X51552454Y-46577546D01*
X51619848Y-46627996D01*
X51648747Y-46676704D01*
X51649500Y-46687235D01*
X51649500Y-47365500D01*
X51627826Y-47417826D01*
X51575501Y-47439500D01*
X51502127Y-47439500D01*
X51442514Y-47445909D01*
X51307670Y-47496202D01*
X51307669Y-47496203D01*
X51192454Y-47582454D01*
X51106203Y-47697669D01*
X51106202Y-47697670D01*
X51055910Y-47832512D01*
X51055909Y-47832517D01*
X51049500Y-47892126D01*
X51049500Y-48315500D01*
X51027826Y-48367826D01*
X50975500Y-48389500D01*
X47021523Y-48389500D01*
X46910110Y-48419352D01*
X46910111Y-48419353D01*
X46881518Y-48427015D01*
X46881513Y-48427017D01*
X46755984Y-48499490D01*
X45499265Y-49756208D01*
X45461377Y-49776460D01*
X45437559Y-49781198D01*
X45437557Y-49781198D01*
X45319176Y-49830233D01*
X45253312Y-49874242D01*
X45197763Y-49885291D01*
X45150671Y-49853825D01*
X45138200Y-49812713D01*
X45138200Y-48620723D01*
X45138199Y-48620722D01*
X45100685Y-48480718D01*
X45100683Y-48480713D01*
X45080389Y-48445563D01*
X45042825Y-48380500D01*
X45028210Y-48355186D01*
X44199974Y-47526950D01*
X43339428Y-46666403D01*
X43321373Y-46636935D01*
X43320646Y-46634698D01*
X43320646Y-46634696D01*
X43263050Y-46521658D01*
X43173342Y-46431950D01*
X43060304Y-46374354D01*
X43060302Y-46374353D01*
X43060301Y-46374353D01*
X42966520Y-46359500D01*
X42966519Y-46359500D01*
X42876975Y-46359500D01*
X42137525Y-46359500D01*
X42137522Y-46359500D01*
X41453480Y-46359500D01*
X41359695Y-46374353D01*
X41359693Y-46374354D01*
X41246657Y-46431950D01*
X41156951Y-46521656D01*
X41099353Y-46634698D01*
X41084500Y-46728480D01*
X41084500Y-47091519D01*
X41099353Y-47185304D01*
X41099354Y-47185306D01*
X41156950Y-47298342D01*
X41246658Y-47388050D01*
X41359696Y-47445646D01*
X41453481Y-47460500D01*
X42128904Y-47460499D01*
X42128914Y-47460500D01*
X42137525Y-47460500D01*
X42545823Y-47460500D01*
X42598149Y-47482174D01*
X42619149Y-47503174D01*
X42640823Y-47555500D01*
X42619149Y-47607826D01*
X42566823Y-47629500D01*
X41453480Y-47629500D01*
X41359695Y-47644353D01*
X41359693Y-47644354D01*
X41246657Y-47701950D01*
X41156951Y-47791656D01*
X41099353Y-47904698D01*
X41084500Y-47998480D01*
X41084500Y-48361519D01*
X41099353Y-48455304D01*
X41099354Y-48455306D01*
X41142838Y-48540646D01*
X41156950Y-48568342D01*
X41246658Y-48658050D01*
X41359696Y-48715646D01*
X41453481Y-48730500D01*
X42966518Y-48730499D01*
X42966519Y-48730499D01*
X43060304Y-48715646D01*
X43060306Y-48715645D01*
X43062419Y-48714568D01*
X43173342Y-48658050D01*
X43263050Y-48568342D01*
X43320646Y-48455304D01*
X43332195Y-48382384D01*
X43361788Y-48334094D01*
X43416860Y-48320872D01*
X43457610Y-48341635D01*
X44015526Y-48899550D01*
X44037200Y-48951876D01*
X44037200Y-50739577D01*
X44038285Y-50743626D01*
X44066041Y-50847210D01*
X44074716Y-50879585D01*
X44147190Y-51005115D01*
X44664226Y-51522151D01*
X44685900Y-51574477D01*
X44685900Y-53030422D01*
X44664226Y-53082748D01*
X38049872Y-59697101D01*
X37997546Y-59718775D01*
X37945220Y-59697101D01*
X37933463Y-59681779D01*
X37881909Y-59592485D01*
X37779415Y-59489991D01*
X37653886Y-59417516D01*
X37653881Y-59417514D01*
X37513877Y-59380000D01*
X37513875Y-59380000D01*
X37452589Y-59380000D01*
X37400263Y-59358326D01*
X32131312Y-54089375D01*
X32112092Y-54055946D01*
X32110800Y-54051054D01*
X32110800Y-54050725D01*
X32104705Y-54027980D01*
X32104646Y-54027755D01*
X32108460Y-53999559D01*
X32112106Y-53971859D01*
X32112219Y-53971771D01*
X32112239Y-53971629D01*
X32134655Y-53954555D01*
X32157038Y-53937380D01*
X32157213Y-53937374D01*
X32157295Y-53937312D01*
X32157649Y-53937359D01*
X32190627Y-53936280D01*
X32283731Y-53954800D01*
X32283733Y-53954800D01*
X32411867Y-53954800D01*
X32411869Y-53954800D01*
X32537544Y-53929801D01*
X32655927Y-53880765D01*
X32676122Y-53867270D01*
X32717234Y-53854800D01*
X36207977Y-53854800D01*
X36207977Y-53854799D01*
X36347985Y-53817284D01*
X36374312Y-53802084D01*
X36473515Y-53744810D01*
X37730735Y-52487588D01*
X37758267Y-52470193D01*
X37763336Y-52468390D01*
X37792444Y-52462601D01*
X37870224Y-52430383D01*
X37872008Y-52429749D01*
X37898548Y-52431105D01*
X37925119Y-52431105D01*
X37926549Y-52432535D01*
X37928571Y-52432639D01*
X37946372Y-52452358D01*
X37965167Y-52471153D01*
X37965683Y-52473750D01*
X37966523Y-52474680D01*
X37966389Y-52477297D01*
X37970800Y-52499472D01*
X37970800Y-56701911D01*
X37949126Y-56754237D01*
X37648037Y-57055326D01*
X37595711Y-57077000D01*
X37534423Y-57077000D01*
X37394418Y-57114514D01*
X37394413Y-57114516D01*
X37268884Y-57186991D01*
X37166391Y-57289484D01*
X37093916Y-57415013D01*
X37093914Y-57415018D01*
X37056400Y-57555022D01*
X37056400Y-57699977D01*
X37093914Y-57839981D01*
X37093916Y-57839986D01*
X37162067Y-57958025D01*
X37166391Y-57965515D01*
X37268885Y-58068009D01*
X37394415Y-58140484D01*
X37394416Y-58140484D01*
X37394418Y-58140485D01*
X37464420Y-58159242D01*
X37534422Y-58177999D01*
X37534423Y-58178000D01*
X37534425Y-58178000D01*
X37679377Y-58178000D01*
X37679377Y-58177999D01*
X37819385Y-58140484D01*
X37944915Y-58068009D01*
X38047409Y-57965515D01*
X38119884Y-57839985D01*
X38157399Y-57699977D01*
X38157400Y-57699977D01*
X38157400Y-57638688D01*
X38179073Y-57586363D01*
X38646775Y-57118662D01*
X38696211Y-57033037D01*
X38721800Y-56937536D01*
X38721800Y-56838664D01*
X38721800Y-49117265D01*
X38721320Y-49115475D01*
X38706900Y-49061658D01*
X38706899Y-49061656D01*
X38696211Y-49021766D01*
X38696210Y-49021762D01*
X38646775Y-48936138D01*
X38576862Y-48866225D01*
X38225163Y-48514526D01*
X38225162Y-48514525D01*
X38170644Y-48483049D01*
X38139542Y-48465092D01*
X38139533Y-48465088D01*
X38091785Y-48452294D01*
X38091784Y-48452294D01*
X38044038Y-48439500D01*
X38044036Y-48439500D01*
X38044035Y-48439500D01*
X36354489Y-48439500D01*
X36302163Y-48417826D01*
X33464874Y-45580537D01*
X33443200Y-45528211D01*
X33443200Y-43134876D01*
X33464874Y-43082550D01*
X33470582Y-43076842D01*
X33508209Y-43039215D01*
X33580684Y-42913685D01*
X33618199Y-42773677D01*
X33618200Y-42773677D01*
X33618200Y-42628723D01*
X33618199Y-42628722D01*
X33580685Y-42488718D01*
X33580683Y-42488713D01*
X33508208Y-42363184D01*
X33405715Y-42260691D01*
X33280186Y-42188216D01*
X33280181Y-42188214D01*
X33140177Y-42150700D01*
X33140175Y-42150700D01*
X32995225Y-42150700D01*
X32995223Y-42150700D01*
X32855218Y-42188214D01*
X32855213Y-42188216D01*
X32729684Y-42260691D01*
X32627191Y-42363184D01*
X32554716Y-42488713D01*
X32554714Y-42488718D01*
X32517200Y-42628722D01*
X32517200Y-42773677D01*
X32554714Y-42913681D01*
X32554716Y-42913686D01*
X32627191Y-43039215D01*
X32670526Y-43082550D01*
X32692200Y-43134876D01*
X32692200Y-45763837D01*
X32717788Y-45859334D01*
X32717790Y-45859339D01*
X32766097Y-45943009D01*
X32767224Y-45944961D01*
X35740437Y-48918174D01*
X35762111Y-48970500D01*
X35740437Y-49022826D01*
X35688111Y-49044500D01*
X35349623Y-49044500D01*
X35297297Y-49022826D01*
X35279776Y-48994940D01*
X35257794Y-48932119D01*
X35257792Y-48932116D01*
X35177153Y-48822853D01*
X35177146Y-48822846D01*
X35067883Y-48742207D01*
X35067881Y-48742206D01*
X34939704Y-48697355D01*
X34939705Y-48697355D01*
X34939700Y-48697354D01*
X34939699Y-48697354D01*
X34909266Y-48694500D01*
X34400734Y-48694500D01*
X34370301Y-48697354D01*
X34370299Y-48697354D01*
X34370295Y-48697355D01*
X34242118Y-48742206D01*
X34242116Y-48742207D01*
X34132853Y-48822846D01*
X34132846Y-48822853D01*
X34052207Y-48932116D01*
X34052206Y-48932118D01*
X34007355Y-49060295D01*
X34007354Y-49060299D01*
X34007354Y-49060301D01*
X34004500Y-49090734D01*
X34004500Y-49749266D01*
X34007354Y-49779699D01*
X34007354Y-49779701D01*
X34007355Y-49779704D01*
X34052206Y-49907881D01*
X34052207Y-49907883D01*
X34132846Y-50017146D01*
X34132853Y-50017153D01*
X34242116Y-50097792D01*
X34242118Y-50097793D01*
X34370295Y-50142644D01*
X34370301Y-50142646D01*
X34400734Y-50145500D01*
X34400741Y-50145500D01*
X34909258Y-50145500D01*
X34909266Y-50145500D01*
X34939699Y-50142646D01*
X35067882Y-50097793D01*
X35177150Y-50017150D01*
X35257793Y-49907882D01*
X35265698Y-49885291D01*
X35279776Y-49845060D01*
X35317515Y-49802828D01*
X35349623Y-49795500D01*
X35939773Y-49795500D01*
X35992099Y-49817174D01*
X36005706Y-49835902D01*
X36006948Y-49838340D01*
X36006950Y-49838342D01*
X36096658Y-49928050D01*
X36209696Y-49985646D01*
X36303481Y-50000500D01*
X37816518Y-50000499D01*
X37885226Y-49989617D01*
X37940296Y-50002839D01*
X37969889Y-50051130D01*
X37970800Y-50062706D01*
X37970800Y-51174727D01*
X37949126Y-51227053D01*
X37896800Y-51248727D01*
X37868482Y-51243094D01*
X37792446Y-51211599D01*
X37792439Y-51211597D01*
X37702396Y-51193686D01*
X37666769Y-51186600D01*
X37538631Y-51186600D01*
X37507426Y-51192807D01*
X37412960Y-51211597D01*
X37412957Y-51211598D01*
X37294576Y-51260633D01*
X37188031Y-51331823D01*
X37188030Y-51331825D01*
X37097425Y-51422430D01*
X37097423Y-51422431D01*
X37026233Y-51528976D01*
X36977198Y-51647357D01*
X36977198Y-51647359D01*
X36972460Y-51671177D01*
X36952208Y-51709065D01*
X35929149Y-52732126D01*
X35876823Y-52753800D01*
X32717234Y-52753800D01*
X32676122Y-52741329D01*
X32655926Y-52727834D01*
X32537542Y-52678798D01*
X32537539Y-52678797D01*
X32447496Y-52660886D01*
X32411869Y-52653800D01*
X32283731Y-52653800D01*
X32252526Y-52660007D01*
X32158060Y-52678797D01*
X32158057Y-52678798D01*
X32039676Y-52727833D01*
X31933131Y-52799023D01*
X31933130Y-52799025D01*
X31842525Y-52889630D01*
X31842523Y-52889631D01*
X31771333Y-52996176D01*
X31722298Y-53114557D01*
X31722297Y-53114560D01*
X31697300Y-53240232D01*
X31697300Y-53368367D01*
X31720649Y-53485750D01*
X31709600Y-53541299D01*
X31662508Y-53572765D01*
X31637765Y-53571967D01*
X31637586Y-53573333D01*
X31632777Y-53572700D01*
X31632775Y-53572700D01*
X31487825Y-53572700D01*
X31487823Y-53572700D01*
X31347818Y-53610214D01*
X31347813Y-53610216D01*
X31222284Y-53682691D01*
X31119791Y-53785184D01*
X31047316Y-53910713D01*
X31047314Y-53910718D01*
X31009800Y-54050722D01*
X31009800Y-54195677D01*
X31047314Y-54335681D01*
X31047316Y-54335686D01*
X31107831Y-54440500D01*
X31119791Y-54461215D01*
X31222285Y-54563709D01*
X31347815Y-54636184D01*
X31347816Y-54636184D01*
X31347818Y-54636185D01*
X31417820Y-54654942D01*
X31487822Y-54673699D01*
X31487823Y-54673700D01*
X31622911Y-54673700D01*
X31675237Y-54695374D01*
X36869226Y-59889363D01*
X36890900Y-59941689D01*
X36890900Y-60002977D01*
X36928414Y-60142981D01*
X36928416Y-60142986D01*
X36944890Y-60171519D01*
X37000891Y-60268515D01*
X37103385Y-60371009D01*
X37192676Y-60422561D01*
X37227153Y-60467493D01*
X37219761Y-60523646D01*
X37208001Y-60538972D01*
X34727149Y-63019826D01*
X34674823Y-63041500D01*
X34665677Y-63041500D01*
X34613351Y-63019826D01*
X31497174Y-59903649D01*
X31475500Y-59851323D01*
X31475500Y-59680740D01*
X31475500Y-59680734D01*
X31472646Y-59650301D01*
X31455624Y-59601656D01*
X31427793Y-59522118D01*
X31427792Y-59522116D01*
X31347153Y-59412853D01*
X31347146Y-59412846D01*
X31237883Y-59332207D01*
X31237881Y-59332206D01*
X31109704Y-59287355D01*
X31109705Y-59287355D01*
X31109700Y-59287354D01*
X31109699Y-59287354D01*
X31079266Y-59284500D01*
X30570734Y-59284500D01*
X30540301Y-59287354D01*
X30540299Y-59287354D01*
X30540295Y-59287355D01*
X30412118Y-59332206D01*
X30412116Y-59332207D01*
X30302853Y-59412846D01*
X30302846Y-59412853D01*
X30222207Y-59522116D01*
X30222206Y-59522118D01*
X30177355Y-59650295D01*
X30177354Y-59650299D01*
X30177354Y-59650301D01*
X30174500Y-59680734D01*
X30174500Y-60339266D01*
X30177354Y-60369699D01*
X30177354Y-60369701D01*
X30177355Y-60369704D01*
X30222206Y-60497881D01*
X30222207Y-60497883D01*
X30302846Y-60607146D01*
X30302850Y-60607150D01*
X30370719Y-60657240D01*
X30399950Y-60705751D01*
X30386316Y-60760723D01*
X30352637Y-60786114D01*
X30319774Y-60798371D01*
X30210313Y-60880313D01*
X30128371Y-60989774D01*
X30080588Y-61117884D01*
X30080588Y-61117885D01*
X30080588Y-61117886D01*
X30078558Y-61136762D01*
X30074500Y-61174513D01*
X30074500Y-61361322D01*
X30052826Y-61413648D01*
X30051825Y-61414649D01*
X29999499Y-61436323D01*
X29947173Y-61414649D01*
X29925499Y-61362323D01*
X29925499Y-61174515D01*
X29925498Y-61174514D01*
X29919412Y-61117886D01*
X29871628Y-60989774D01*
X29789687Y-60880313D01*
X29680226Y-60798372D01*
X29680225Y-60798371D01*
X29680226Y-60798371D01*
X29647362Y-60786114D01*
X29605910Y-60747521D01*
X29603889Y-60690919D01*
X29629281Y-60657240D01*
X29697146Y-60607153D01*
X29697146Y-60607152D01*
X29697150Y-60607150D01*
X29777793Y-60497882D01*
X29822646Y-60369699D01*
X29825500Y-60339266D01*
X29825500Y-59680734D01*
X29822646Y-59650301D01*
X29805624Y-59601656D01*
X29777793Y-59522118D01*
X29777792Y-59522116D01*
X29697153Y-59412853D01*
X29697146Y-59412846D01*
X29587883Y-59332207D01*
X29587881Y-59332206D01*
X29459704Y-59287355D01*
X29459705Y-59287355D01*
X29459700Y-59287354D01*
X29459699Y-59287354D01*
X29429266Y-59284500D01*
X28920734Y-59284500D01*
X28890301Y-59287354D01*
X28890299Y-59287354D01*
X28890295Y-59287355D01*
X28762118Y-59332206D01*
X28762116Y-59332207D01*
X28652853Y-59412846D01*
X28652846Y-59412853D01*
X28572207Y-59522116D01*
X28572206Y-59522118D01*
X28527355Y-59650295D01*
X28527354Y-59650299D01*
X28527354Y-59650301D01*
X28524500Y-59680734D01*
X28524500Y-60339266D01*
X28527354Y-60369699D01*
X28527354Y-60369701D01*
X28527355Y-60369704D01*
X28561071Y-60466059D01*
X28557896Y-60522607D01*
X28515665Y-60560347D01*
X28491224Y-60564500D01*
X28094043Y-60564500D01*
X28041718Y-60542826D01*
X28016216Y-60517324D01*
X27994543Y-60465000D01*
X28016216Y-60412675D01*
X28050550Y-60378342D01*
X28108146Y-60265304D01*
X28123000Y-60171519D01*
X28122999Y-59808482D01*
X28120417Y-59792181D01*
X28108146Y-59714695D01*
X28108145Y-59714693D01*
X28050549Y-59601657D01*
X28002683Y-59553791D01*
X27981009Y-59501465D01*
X28000998Y-59453205D01*
X28000158Y-59452561D01*
X28002564Y-59449425D01*
X28002681Y-59449142D01*
X28003109Y-59448715D01*
X28008430Y-59439500D01*
X28070375Y-59332207D01*
X28075584Y-59323185D01*
X28113099Y-59183177D01*
X28113100Y-59183177D01*
X28113100Y-59038223D01*
X28113099Y-59038222D01*
X28075585Y-58898218D01*
X28075583Y-58898213D01*
X28003108Y-58772684D01*
X27900615Y-58670191D01*
X27775086Y-58597716D01*
X27775081Y-58597714D01*
X27635077Y-58560200D01*
X27635075Y-58560200D01*
X27573789Y-58560200D01*
X27521463Y-58538526D01*
X25780574Y-56797637D01*
X25758900Y-56745311D01*
X25758900Y-42316176D01*
X25780574Y-42263850D01*
X25783733Y-42260691D01*
X25823909Y-42220515D01*
X25896384Y-42094985D01*
X25933899Y-41954977D01*
X25933900Y-41954977D01*
X25933900Y-41810023D01*
X25933899Y-41810022D01*
X25930547Y-41797514D01*
X25896384Y-41670015D01*
X25862599Y-41611499D01*
X25855207Y-41555348D01*
X25889686Y-41510414D01*
X25926686Y-41500500D01*
X40055500Y-41500500D01*
X40107826Y-41522174D01*
G37*
%TD.AperFunction*%
%TA.AperFunction,Conductor*%
G36*
X44937337Y-96718374D02*
G01*
X47744609Y-99525646D01*
X47766283Y-99577972D01*
X47760954Y-99604767D01*
X47761025Y-99604790D01*
X47760830Y-99605387D01*
X47760653Y-99606282D01*
X47760129Y-99607547D01*
X47706600Y-99772288D01*
X47706597Y-99772301D01*
X47679500Y-99943388D01*
X47679500Y-100116611D01*
X47706597Y-100287698D01*
X47706600Y-100287711D01*
X47760125Y-100452442D01*
X47760127Y-100452446D01*
X47838767Y-100606787D01*
X47838768Y-100606788D01*
X47940586Y-100746928D01*
X48063072Y-100869414D01*
X48063075Y-100869416D01*
X48063076Y-100869417D01*
X48203212Y-100971232D01*
X48357553Y-101049872D01*
X48357557Y-101049874D01*
X48522288Y-101103399D01*
X48522294Y-101103400D01*
X48522299Y-101103402D01*
X48636359Y-101121467D01*
X48693388Y-101130500D01*
X48693389Y-101130500D01*
X48866612Y-101130500D01*
X48909383Y-101123725D01*
X49037701Y-101103402D01*
X49037708Y-101103399D01*
X49037711Y-101103399D01*
X49202437Y-101049876D01*
X49202441Y-101049874D01*
X49202445Y-101049873D01*
X49202448Y-101049871D01*
X49203690Y-101049357D01*
X49204035Y-101049356D01*
X49205211Y-101048975D01*
X49205334Y-101049356D01*
X49260327Y-101049341D01*
X49284353Y-101065390D01*
X56998726Y-108779763D01*
X57020400Y-108832089D01*
X57020400Y-115412924D01*
X56998726Y-115465250D01*
X56955391Y-115508584D01*
X56892786Y-115617019D01*
X56847852Y-115651498D01*
X56791700Y-115644105D01*
X56757221Y-115599171D01*
X56754700Y-115580019D01*
X56754700Y-114202863D01*
X56754699Y-114202862D01*
X56729111Y-114107365D01*
X56729109Y-114107360D01*
X56679674Y-114021737D01*
X51277462Y-108619525D01*
X51191842Y-108570092D01*
X51191833Y-108570088D01*
X51144085Y-108557294D01*
X51144084Y-108557294D01*
X51096338Y-108544500D01*
X51096336Y-108544500D01*
X51096335Y-108544500D01*
X40076189Y-108544500D01*
X40023863Y-108522826D01*
X36524425Y-105023388D01*
X47679500Y-105023388D01*
X47679500Y-105196611D01*
X47706597Y-105367698D01*
X47706600Y-105367711D01*
X47760125Y-105532442D01*
X47760127Y-105532446D01*
X47838767Y-105686787D01*
X47920774Y-105799660D01*
X47940586Y-105826928D01*
X48063072Y-105949414D01*
X48063075Y-105949416D01*
X48063076Y-105949417D01*
X48203212Y-106051232D01*
X48357553Y-106129872D01*
X48357557Y-106129874D01*
X48522288Y-106183399D01*
X48522294Y-106183400D01*
X48522299Y-106183402D01*
X48636359Y-106201467D01*
X48693388Y-106210500D01*
X48693389Y-106210500D01*
X48866612Y-106210500D01*
X48909383Y-106203725D01*
X49037701Y-106183402D01*
X49037708Y-106183399D01*
X49037711Y-106183399D01*
X49202442Y-106129874D01*
X49202442Y-106129873D01*
X49202445Y-106129873D01*
X49356788Y-106051232D01*
X49496928Y-105949414D01*
X49619414Y-105826928D01*
X49721232Y-105686788D01*
X49799873Y-105532445D01*
X49853402Y-105367701D01*
X49880500Y-105196611D01*
X49880500Y-105023389D01*
X49853402Y-104852299D01*
X49853400Y-104852294D01*
X49853399Y-104852288D01*
X49799874Y-104687557D01*
X49799872Y-104687553D01*
X49721232Y-104533212D01*
X49619417Y-104393076D01*
X49619416Y-104393075D01*
X49619414Y-104393072D01*
X49496928Y-104270586D01*
X49496925Y-104270583D01*
X49496923Y-104270582D01*
X49356787Y-104168767D01*
X49202446Y-104090127D01*
X49202442Y-104090125D01*
X49037711Y-104036600D01*
X49037698Y-104036597D01*
X48866612Y-104009500D01*
X48866611Y-104009500D01*
X48693389Y-104009500D01*
X48693388Y-104009500D01*
X48522301Y-104036597D01*
X48522288Y-104036600D01*
X48357557Y-104090125D01*
X48357553Y-104090127D01*
X48203212Y-104168767D01*
X48063076Y-104270582D01*
X47940582Y-104393076D01*
X47838767Y-104533212D01*
X47760127Y-104687553D01*
X47760125Y-104687557D01*
X47706600Y-104852288D01*
X47706597Y-104852301D01*
X47679500Y-105023388D01*
X36524425Y-105023388D01*
X33984425Y-102483388D01*
X47679500Y-102483388D01*
X47679500Y-102656611D01*
X47706597Y-102827698D01*
X47706600Y-102827711D01*
X47760125Y-102992442D01*
X47760127Y-102992446D01*
X47838767Y-103146787D01*
X47838768Y-103146788D01*
X47940586Y-103286928D01*
X48063072Y-103409414D01*
X48063075Y-103409416D01*
X48063076Y-103409417D01*
X48203212Y-103511232D01*
X48357553Y-103589872D01*
X48357557Y-103589874D01*
X48522288Y-103643399D01*
X48522294Y-103643400D01*
X48522299Y-103643402D01*
X48636359Y-103661467D01*
X48693388Y-103670500D01*
X48693389Y-103670500D01*
X48866612Y-103670500D01*
X48909383Y-103663725D01*
X49037701Y-103643402D01*
X49037708Y-103643399D01*
X49037711Y-103643399D01*
X49202442Y-103589874D01*
X49202442Y-103589873D01*
X49202445Y-103589873D01*
X49356788Y-103511232D01*
X49496928Y-103409414D01*
X49619414Y-103286928D01*
X49721232Y-103146788D01*
X49799873Y-102992445D01*
X49853402Y-102827701D01*
X49880500Y-102656611D01*
X49880500Y-102483389D01*
X49853402Y-102312299D01*
X49853400Y-102312294D01*
X49853399Y-102312288D01*
X49799874Y-102147557D01*
X49799872Y-102147553D01*
X49721232Y-101993212D01*
X49619417Y-101853076D01*
X49619416Y-101853075D01*
X49619414Y-101853072D01*
X49496928Y-101730586D01*
X49496925Y-101730583D01*
X49496923Y-101730582D01*
X49356787Y-101628767D01*
X49202446Y-101550127D01*
X49202442Y-101550125D01*
X49037711Y-101496600D01*
X49037698Y-101496597D01*
X48866612Y-101469500D01*
X48866611Y-101469500D01*
X48693389Y-101469500D01*
X48693388Y-101469500D01*
X48522301Y-101496597D01*
X48522288Y-101496600D01*
X48357557Y-101550125D01*
X48357553Y-101550127D01*
X48203212Y-101628767D01*
X48063076Y-101730582D01*
X47940582Y-101853076D01*
X47838767Y-101993212D01*
X47760127Y-102147553D01*
X47760125Y-102147557D01*
X47706600Y-102312288D01*
X47706597Y-102312301D01*
X47679500Y-102483388D01*
X33984425Y-102483388D01*
X32035390Y-100534353D01*
X32013716Y-100482027D01*
X32019049Y-100455235D01*
X32018975Y-100455211D01*
X32019179Y-100454581D01*
X32019357Y-100453690D01*
X32019876Y-100452437D01*
X32073399Y-100287711D01*
X32073399Y-100287708D01*
X32073402Y-100287701D01*
X32100500Y-100116611D01*
X32100500Y-99943389D01*
X32073402Y-99772299D01*
X32073400Y-99772294D01*
X32073399Y-99772288D01*
X32019874Y-99607557D01*
X32019872Y-99607553D01*
X31941232Y-99453212D01*
X31839417Y-99313076D01*
X31839416Y-99313075D01*
X31839414Y-99313072D01*
X31716928Y-99190586D01*
X31716925Y-99190583D01*
X31716923Y-99190582D01*
X31576787Y-99088767D01*
X31422446Y-99010127D01*
X31422442Y-99010125D01*
X31257711Y-98956600D01*
X31257698Y-98956597D01*
X31086612Y-98929500D01*
X31086611Y-98929500D01*
X30913389Y-98929500D01*
X30913388Y-98929500D01*
X30742301Y-98956597D01*
X30742288Y-98956600D01*
X30577557Y-99010125D01*
X30577553Y-99010127D01*
X30423211Y-99088767D01*
X30343696Y-99146539D01*
X30288624Y-99159761D01*
X30240333Y-99130168D01*
X30226200Y-99086672D01*
X30226200Y-98825488D01*
X30247873Y-98773163D01*
X30495646Y-98525389D01*
X30547971Y-98503716D01*
X30574765Y-98509047D01*
X30574789Y-98508975D01*
X30575401Y-98509174D01*
X30576296Y-98509352D01*
X30577556Y-98509874D01*
X30742288Y-98563399D01*
X30742294Y-98563400D01*
X30742299Y-98563402D01*
X30856359Y-98581467D01*
X30913388Y-98590500D01*
X30913389Y-98590500D01*
X31086612Y-98590500D01*
X31129383Y-98583725D01*
X31257701Y-98563402D01*
X31257708Y-98563399D01*
X31257711Y-98563399D01*
X31422442Y-98509874D01*
X31422442Y-98509873D01*
X31422445Y-98509873D01*
X31576788Y-98431232D01*
X31716928Y-98329414D01*
X31839414Y-98206928D01*
X31941232Y-98066788D01*
X32019873Y-97912445D01*
X32073402Y-97747701D01*
X32100500Y-97576611D01*
X32100500Y-97403389D01*
X32073402Y-97232299D01*
X32073400Y-97232294D01*
X32073399Y-97232288D01*
X32019874Y-97067557D01*
X32019872Y-97067553D01*
X31941232Y-96913212D01*
X31869292Y-96814196D01*
X31856070Y-96759124D01*
X31885663Y-96710833D01*
X31929159Y-96696700D01*
X44885011Y-96696700D01*
X44937337Y-96718374D01*
G37*
%TD.AperFunction*%
%TA.AperFunction,Conductor*%
G36*
X30343696Y-100913460D02*
G01*
X30423212Y-100971232D01*
X30577553Y-101049872D01*
X30577557Y-101049874D01*
X30742288Y-101103399D01*
X30742294Y-101103400D01*
X30742299Y-101103402D01*
X30856359Y-101121467D01*
X30913388Y-101130500D01*
X30913389Y-101130500D01*
X31086612Y-101130500D01*
X31129383Y-101123725D01*
X31257701Y-101103402D01*
X31257708Y-101103399D01*
X31257711Y-101103399D01*
X31422437Y-101049876D01*
X31422441Y-101049874D01*
X31422445Y-101049873D01*
X31422448Y-101049871D01*
X31423690Y-101049357D01*
X31424035Y-101049356D01*
X31425211Y-101048975D01*
X31425334Y-101049356D01*
X31480327Y-101049341D01*
X31504353Y-101065390D01*
X39659438Y-109220475D01*
X39659440Y-109220476D01*
X39659441Y-109220477D01*
X39719625Y-109255224D01*
X39745063Y-109269911D01*
X39840564Y-109295500D01*
X39840565Y-109295500D01*
X47939506Y-109295500D01*
X47991832Y-109317174D01*
X48013506Y-109369500D01*
X47991832Y-109421826D01*
X47940582Y-109473076D01*
X47838767Y-109613212D01*
X47760127Y-109767553D01*
X47760125Y-109767557D01*
X47706600Y-109932288D01*
X47706597Y-109932301D01*
X47679500Y-110103388D01*
X47679500Y-110276611D01*
X47706597Y-110447698D01*
X47706600Y-110447711D01*
X47760125Y-110612442D01*
X47760127Y-110612446D01*
X47837314Y-110763935D01*
X47838768Y-110766788D01*
X47940586Y-110906928D01*
X48063072Y-111029414D01*
X48063075Y-111029416D01*
X48063076Y-111029417D01*
X48203212Y-111131232D01*
X48357553Y-111209872D01*
X48357557Y-111209874D01*
X48522288Y-111263399D01*
X48522294Y-111263400D01*
X48522299Y-111263402D01*
X48636359Y-111281467D01*
X48693388Y-111290500D01*
X48693389Y-111290500D01*
X48866612Y-111290500D01*
X48909383Y-111283725D01*
X49037701Y-111263402D01*
X49037708Y-111263399D01*
X49037711Y-111263399D01*
X49202442Y-111209874D01*
X49202442Y-111209873D01*
X49202445Y-111209873D01*
X49356788Y-111131232D01*
X49496928Y-111029414D01*
X49619414Y-110906928D01*
X49721232Y-110766788D01*
X49799873Y-110612445D01*
X49853402Y-110447701D01*
X49880500Y-110276611D01*
X49880500Y-110103389D01*
X49853402Y-109932299D01*
X49853400Y-109932294D01*
X49853399Y-109932288D01*
X49799874Y-109767557D01*
X49799872Y-109767553D01*
X49721232Y-109613212D01*
X49619417Y-109473076D01*
X49619416Y-109473075D01*
X49619414Y-109473072D01*
X49568168Y-109421826D01*
X49546494Y-109369500D01*
X49568168Y-109317174D01*
X49620494Y-109295500D01*
X50860711Y-109295500D01*
X50913037Y-109317174D01*
X53773344Y-112177481D01*
X53775702Y-112183174D01*
X53780950Y-112186401D01*
X53786259Y-112208661D01*
X53795018Y-112229807D01*
X53792660Y-112235498D01*
X53794090Y-112241493D01*
X53784266Y-112255762D01*
X53773344Y-112282133D01*
X53764424Y-112289739D01*
X53761314Y-112291990D01*
X53720785Y-112315391D01*
X53699192Y-112336983D01*
X53694431Y-112340432D01*
X53672170Y-112345741D01*
X53651025Y-112354500D01*
X49868764Y-112354500D01*
X49816438Y-112332826D01*
X49801260Y-112310111D01*
X49801193Y-112310146D01*
X49800903Y-112309578D01*
X49800399Y-112308823D01*
X49799877Y-112307563D01*
X49721232Y-112153212D01*
X49619417Y-112013076D01*
X49619416Y-112013075D01*
X49619414Y-112013072D01*
X49496928Y-111890586D01*
X49496925Y-111890583D01*
X49496923Y-111890582D01*
X49356787Y-111788767D01*
X49202446Y-111710127D01*
X49202442Y-111710125D01*
X49037711Y-111656600D01*
X49037698Y-111656597D01*
X48866612Y-111629500D01*
X48866611Y-111629500D01*
X48693389Y-111629500D01*
X48693388Y-111629500D01*
X48522301Y-111656597D01*
X48522288Y-111656600D01*
X48357557Y-111710125D01*
X48357553Y-111710127D01*
X48203212Y-111788767D01*
X48063076Y-111890582D01*
X47940582Y-112013076D01*
X47838767Y-112153212D01*
X47760127Y-112307553D01*
X47760125Y-112307557D01*
X47706600Y-112472288D01*
X47706597Y-112472301D01*
X47679500Y-112643388D01*
X47679500Y-112816611D01*
X47706597Y-112987698D01*
X47706600Y-112987711D01*
X47760125Y-113152442D01*
X47760127Y-113152446D01*
X47838570Y-113306400D01*
X47838768Y-113306788D01*
X47940586Y-113446928D01*
X47940591Y-113446933D01*
X47991832Y-113498174D01*
X48013506Y-113550500D01*
X47991832Y-113602826D01*
X47939506Y-113624500D01*
X34996190Y-113624500D01*
X34943864Y-113602826D01*
X32035390Y-110694353D01*
X32013716Y-110642027D01*
X32019049Y-110615235D01*
X32018975Y-110615211D01*
X32019179Y-110614581D01*
X32019357Y-110613690D01*
X32019876Y-110612437D01*
X32073399Y-110447711D01*
X32073399Y-110447708D01*
X32073402Y-110447701D01*
X32100500Y-110276611D01*
X32100500Y-110103389D01*
X32073402Y-109932299D01*
X32073400Y-109932294D01*
X32073399Y-109932288D01*
X32019874Y-109767557D01*
X32019872Y-109767553D01*
X31941232Y-109613212D01*
X31839417Y-109473076D01*
X31839416Y-109473075D01*
X31839414Y-109473072D01*
X31716928Y-109350586D01*
X31716925Y-109350583D01*
X31716923Y-109350582D01*
X31576787Y-109248767D01*
X31422446Y-109170127D01*
X31422442Y-109170125D01*
X31257711Y-109116600D01*
X31257698Y-109116597D01*
X31086612Y-109089500D01*
X31086611Y-109089500D01*
X30913389Y-109089500D01*
X30913388Y-109089500D01*
X30742301Y-109116597D01*
X30742288Y-109116600D01*
X30577557Y-109170125D01*
X30577553Y-109170127D01*
X30423211Y-109248767D01*
X30343696Y-109306539D01*
X30288624Y-109319761D01*
X30240333Y-109290168D01*
X30226200Y-109246672D01*
X30226200Y-106053327D01*
X30247874Y-106001001D01*
X30300200Y-105979327D01*
X30343696Y-105993460D01*
X30423212Y-106051232D01*
X30577553Y-106129872D01*
X30577557Y-106129874D01*
X30742288Y-106183399D01*
X30742294Y-106183400D01*
X30742299Y-106183402D01*
X30856359Y-106201467D01*
X30913388Y-106210500D01*
X30913389Y-106210500D01*
X31086612Y-106210500D01*
X31129383Y-106203725D01*
X31257701Y-106183402D01*
X31257708Y-106183399D01*
X31257711Y-106183399D01*
X31422442Y-106129874D01*
X31422442Y-106129873D01*
X31422445Y-106129873D01*
X31576788Y-106051232D01*
X31716928Y-105949414D01*
X31839414Y-105826928D01*
X31941232Y-105686788D01*
X32019873Y-105532445D01*
X32073402Y-105367701D01*
X32100500Y-105196611D01*
X32100500Y-105023389D01*
X32073402Y-104852299D01*
X32073400Y-104852294D01*
X32073399Y-104852288D01*
X32019874Y-104687557D01*
X32019872Y-104687553D01*
X31941232Y-104533212D01*
X31839417Y-104393076D01*
X31839416Y-104393075D01*
X31839414Y-104393072D01*
X31716928Y-104270586D01*
X31716925Y-104270583D01*
X31716923Y-104270582D01*
X31576787Y-104168767D01*
X31422446Y-104090127D01*
X31422442Y-104090125D01*
X31257711Y-104036600D01*
X31257698Y-104036597D01*
X31086612Y-104009500D01*
X31086611Y-104009500D01*
X30913389Y-104009500D01*
X30913388Y-104009500D01*
X30742301Y-104036597D01*
X30742288Y-104036600D01*
X30577557Y-104090125D01*
X30577553Y-104090127D01*
X30423211Y-104168767D01*
X30343696Y-104226539D01*
X30288624Y-104239761D01*
X30240333Y-104210168D01*
X30226200Y-104166672D01*
X30226200Y-103513327D01*
X30247874Y-103461001D01*
X30300200Y-103439327D01*
X30343695Y-103453459D01*
X30423212Y-103511232D01*
X30577553Y-103589872D01*
X30577557Y-103589874D01*
X30742288Y-103643399D01*
X30742294Y-103643400D01*
X30742299Y-103643402D01*
X30856359Y-103661467D01*
X30913388Y-103670500D01*
X30913389Y-103670500D01*
X31086612Y-103670500D01*
X31129383Y-103663725D01*
X31257701Y-103643402D01*
X31257708Y-103643399D01*
X31257711Y-103643399D01*
X31422442Y-103589874D01*
X31422442Y-103589873D01*
X31422445Y-103589873D01*
X31576788Y-103511232D01*
X31716928Y-103409414D01*
X31839414Y-103286928D01*
X31941232Y-103146788D01*
X32019873Y-102992445D01*
X32073402Y-102827701D01*
X32100500Y-102656611D01*
X32100500Y-102483389D01*
X32073402Y-102312299D01*
X32073400Y-102312294D01*
X32073399Y-102312288D01*
X32019874Y-102147557D01*
X32019872Y-102147553D01*
X31941232Y-101993212D01*
X31839417Y-101853076D01*
X31839416Y-101853075D01*
X31839414Y-101853072D01*
X31716928Y-101730586D01*
X31716925Y-101730583D01*
X31716923Y-101730582D01*
X31576787Y-101628767D01*
X31422446Y-101550127D01*
X31422442Y-101550125D01*
X31257711Y-101496600D01*
X31257698Y-101496597D01*
X31086612Y-101469500D01*
X31086611Y-101469500D01*
X30913389Y-101469500D01*
X30913388Y-101469500D01*
X30742301Y-101496597D01*
X30742288Y-101496600D01*
X30577557Y-101550125D01*
X30577553Y-101550127D01*
X30423211Y-101628767D01*
X30343696Y-101686539D01*
X30288624Y-101699761D01*
X30240333Y-101670168D01*
X30226200Y-101626672D01*
X30226200Y-100973327D01*
X30247874Y-100921001D01*
X30300200Y-100899327D01*
X30343696Y-100913460D01*
G37*
%TD.AperFunction*%
%TA.AperFunction,Conductor*%
G36*
X54618826Y-88877863D02*
G01*
X54640500Y-88930189D01*
X54640500Y-90135811D01*
X54618826Y-90188137D01*
X49074937Y-95732026D01*
X49022611Y-95753700D01*
X46580390Y-95753700D01*
X46528064Y-95732026D01*
X44892363Y-94096326D01*
X44870689Y-94044000D01*
X44892363Y-93991674D01*
X44944689Y-93970000D01*
X49315936Y-93970000D01*
X49363686Y-93957205D01*
X49411438Y-93944410D01*
X49497062Y-93894975D01*
X49566975Y-93825062D01*
X54514174Y-88877863D01*
X54566500Y-88856189D01*
X54618826Y-88877863D01*
G37*
%TD.AperFunction*%
%TD*%
M02*
