%TF.GenerationSoftware,KiCad,Pcbnew,9.0.4*%
%TF.CreationDate,2026-07-25T18:59:20+02:00*%
%TF.ProjectId,detector-hat,64657465-6374-46f7-922d-6861742e6b69,rev?*%
%TF.SameCoordinates,Original*%
%TF.FileFunction,Soldermask,Top*%
%TF.FilePolarity,Negative*%
%FSLAX46Y46*%
G04 Gerber Fmt 4.6, Leading zero omitted, Abs format (unit mm)*
G04 Created by KiCad (PCBNEW 9.0.4) date 2026-07-25 18:59:20*
%MOMM*%
%LPD*%
G01*
G04 APERTURE LIST*
G04 Aperture macros list*
%AMRoundRect*
0 Rectangle with rounded corners*
0 $1 Rounding radius*
0 $2 $3 $4 $5 $6 $7 $8 $9 X,Y pos of 4 corners*
0 Add a 4 corners polygon primitive as box body*
4,1,4,$2,$3,$4,$5,$6,$7,$8,$9,$2,$3,0*
0 Add four circle primitives for the rounded corners*
1,1,$1+$1,$2,$3*
1,1,$1+$1,$4,$5*
1,1,$1+$1,$6,$7*
1,1,$1+$1,$8,$9*
0 Add four rect primitives between the rounded corners*
20,1,$1+$1,$2,$3,$4,$5,0*
20,1,$1+$1,$4,$5,$6,$7,0*
20,1,$1+$1,$6,$7,$8,$9,0*
20,1,$1+$1,$8,$9,$2,$3,0*%
G04 Aperture macros list end*
%ADD10RoundRect,0.200000X-0.200000X-0.275000X0.200000X-0.275000X0.200000X0.275000X-0.200000X0.275000X0*%
%ADD11RoundRect,0.200000X0.200000X0.275000X-0.200000X0.275000X-0.200000X-0.275000X0.200000X-0.275000X0*%
%ADD12RoundRect,0.225000X0.375000X-0.225000X0.375000X0.225000X-0.375000X0.225000X-0.375000X-0.225000X0*%
%ADD13RoundRect,0.250000X0.475000X-0.250000X0.475000X0.250000X-0.475000X0.250000X-0.475000X-0.250000X0*%
%ADD14RoundRect,0.150000X-0.150000X0.512500X-0.150000X-0.512500X0.150000X-0.512500X0.150000X0.512500X0*%
%ADD15RoundRect,0.225000X-0.225000X-0.250000X0.225000X-0.250000X0.225000X0.250000X-0.225000X0.250000X0*%
%ADD16RoundRect,0.250000X1.950000X1.000000X-1.950000X1.000000X-1.950000X-1.000000X1.950000X-1.000000X0*%
%ADD17RoundRect,0.225000X0.225000X0.250000X-0.225000X0.250000X-0.225000X-0.250000X0.225000X-0.250000X0*%
%ADD18RoundRect,0.150000X0.700000X-0.150000X0.700000X0.150000X-0.700000X0.150000X-0.700000X-0.150000X0*%
%ADD19RoundRect,0.250000X1.150000X-0.250000X1.150000X0.250000X-1.150000X0.250000X-1.150000X-0.250000X0*%
%ADD20RoundRect,0.225000X-0.225000X-0.375000X0.225000X-0.375000X0.225000X0.375000X-0.225000X0.375000X0*%
%ADD21RoundRect,0.150000X0.150000X-0.825000X0.150000X0.825000X-0.150000X0.825000X-0.150000X-0.825000X0*%
%ADD22C,2.100000*%
%ADD23R,1.700000X1.700000*%
%ADD24C,1.700000*%
%ADD25RoundRect,0.250000X0.900000X-1.000000X0.900000X1.000000X-0.900000X1.000000X-0.900000X-1.000000X0*%
%ADD26RoundRect,0.250000X1.000000X0.650000X-1.000000X0.650000X-1.000000X-0.650000X1.000000X-0.650000X0*%
%ADD27RoundRect,0.250000X0.650000X-0.325000X0.650000X0.325000X-0.650000X0.325000X-0.650000X-0.325000X0*%
%ADD28RoundRect,0.100000X-0.100000X0.637500X-0.100000X-0.637500X0.100000X-0.637500X0.100000X0.637500X0*%
%ADD29RoundRect,0.200000X-0.275000X0.200000X-0.275000X-0.200000X0.275000X-0.200000X0.275000X0.200000X0*%
%ADD30RoundRect,0.250000X1.500000X0.550000X-1.500000X0.550000X-1.500000X-0.550000X1.500000X-0.550000X0*%
%ADD31RoundRect,0.225000X0.250000X-0.225000X0.250000X0.225000X-0.250000X0.225000X-0.250000X-0.225000X0*%
%ADD32RoundRect,0.200000X0.275000X-0.200000X0.275000X0.200000X-0.275000X0.200000X-0.275000X-0.200000X0*%
%ADD33RoundRect,0.250000X-0.850000X-0.350000X0.850000X-0.350000X0.850000X0.350000X-0.850000X0.350000X0*%
%ADD34RoundRect,0.249997X-2.950003X-2.650003X2.950003X-2.650003X2.950003X2.650003X-2.950003X2.650003X0*%
%ADD35RoundRect,0.225000X0.225000X0.375000X-0.225000X0.375000X-0.225000X-0.375000X0.225000X-0.375000X0*%
%ADD36RoundRect,0.250000X-0.325000X-0.650000X0.325000X-0.650000X0.325000X0.650000X-0.325000X0.650000X0*%
%ADD37RoundRect,0.249999X-3.500001X0.850001X-3.500001X-0.850001X3.500001X-0.850001X3.500001X0.850001X0*%
%ADD38RoundRect,0.150000X0.825000X0.150000X-0.825000X0.150000X-0.825000X-0.150000X0.825000X-0.150000X0*%
%ADD39RoundRect,0.250000X1.100000X-0.250000X1.100000X0.250000X-1.100000X0.250000X-1.100000X-0.250000X0*%
%ADD40R,1.050000X0.450000*%
%ADD41R,3.400000X5.000000*%
%ADD42RoundRect,0.150000X0.150000X-0.512500X0.150000X0.512500X-0.150000X0.512500X-0.150000X-0.512500X0*%
%ADD43C,2.400000*%
%ADD44R,2.900000X1.600000*%
G04 APERTURE END LIST*
D10*
%TO.C,R15*%
X27060000Y-73890000D03*
X28710000Y-73890000D03*
%TD*%
D11*
%TO.C,R41*%
X56650000Y-146500000D03*
X55000000Y-146500000D03*
%TD*%
D12*
%TO.C,D6*%
X56970000Y-93300000D03*
X56970000Y-90000000D03*
%TD*%
D13*
%TO.C,C18*%
X35160000Y-43690000D03*
X35160000Y-41790000D03*
%TD*%
D10*
%TO.C,R48*%
X56370000Y-135500000D03*
X58020000Y-135500000D03*
%TD*%
D11*
%TO.C,R9*%
X54560000Y-59900000D03*
X52910000Y-59900000D03*
%TD*%
D10*
%TO.C,R20*%
X50855000Y-166680000D03*
X52505000Y-166680000D03*
%TD*%
D14*
%TO.C,U4*%
X23780000Y-72925000D03*
X22830000Y-72925000D03*
X21880000Y-72925000D03*
X21880000Y-75200000D03*
X22830000Y-75200000D03*
X23780000Y-75200000D03*
%TD*%
D15*
%TO.C,C17*%
X33610000Y-46770000D03*
X35160000Y-46770000D03*
%TD*%
D16*
%TO.C,C8*%
X30020000Y-162140000D03*
X22620000Y-162140000D03*
%TD*%
%TO.C,C7*%
X30020000Y-171240000D03*
X22620000Y-171240000D03*
%TD*%
D17*
%TO.C,C13*%
X54685000Y-110790000D03*
X53135000Y-110790000D03*
%TD*%
D18*
%TO.C,J6*%
X23910000Y-114075000D03*
X23910000Y-112825000D03*
X23910000Y-111575000D03*
X23910000Y-110325000D03*
D19*
X20560000Y-115925000D03*
X20560000Y-108475000D03*
%TD*%
D20*
%TO.C,D5*%
X51720000Y-93300000D03*
X55020000Y-93300000D03*
%TD*%
D15*
%TO.C,C14*%
X51325000Y-107570000D03*
X52875000Y-107570000D03*
%TD*%
D21*
%TO.C,U6*%
X53595000Y-143475000D03*
X54865000Y-143475000D03*
X56135000Y-143475000D03*
X57405000Y-143475000D03*
X57405000Y-138525000D03*
X56135000Y-138525000D03*
X54865000Y-138525000D03*
X53595000Y-138525000D03*
%TD*%
D22*
%TO.C,U10*%
X34190000Y-90500000D03*
X34190000Y-137500000D03*
X45590000Y-90500000D03*
X45590000Y-137500000D03*
D23*
X31000000Y-89870000D03*
D24*
X31000000Y-92410000D03*
X31000000Y-94950000D03*
X31000000Y-97490000D03*
X31000000Y-100030000D03*
X31000000Y-102570000D03*
X31000000Y-105110000D03*
X31000000Y-107650000D03*
X31000000Y-110190000D03*
X31000000Y-112730000D03*
X31000000Y-115270000D03*
X31000000Y-117810000D03*
X31000000Y-120350000D03*
X31000000Y-122890000D03*
X31000000Y-125430000D03*
X31000000Y-127970000D03*
X31000000Y-130510000D03*
X31000000Y-133050000D03*
X31000000Y-135590000D03*
X31000000Y-138130000D03*
X48780000Y-138130000D03*
X48780000Y-135590000D03*
X48780000Y-133050000D03*
X48780000Y-130510000D03*
X48780000Y-127970000D03*
X48780000Y-125430000D03*
X48780000Y-122890000D03*
X48780000Y-120350000D03*
X48780000Y-117810000D03*
X48780000Y-115270000D03*
X48780000Y-112730000D03*
X48780000Y-110190000D03*
X48780000Y-107650000D03*
X48780000Y-105110000D03*
X48780000Y-102570000D03*
X48780000Y-100030000D03*
X48780000Y-97490000D03*
X48780000Y-94950000D03*
X48780000Y-92410000D03*
X48780000Y-89870000D03*
%TD*%
D25*
%TO.C,D2*%
X50830000Y-173410000D03*
X50830000Y-169110000D03*
%TD*%
D26*
%TO.C,D1*%
X55800000Y-56800000D03*
X51800000Y-56800000D03*
%TD*%
%TO.C,D8*%
X42100000Y-62230000D03*
X38100000Y-62230000D03*
%TD*%
D10*
%TO.C,R43*%
X54090000Y-114550000D03*
X55740000Y-114550000D03*
%TD*%
D27*
%TO.C,C3*%
X23090000Y-51355000D03*
X23090000Y-48405000D03*
%TD*%
D11*
%TO.C,R23*%
X37755000Y-156730000D03*
X36105000Y-156730000D03*
%TD*%
D10*
%TO.C,R49*%
X56175000Y-151000000D03*
X57825000Y-151000000D03*
%TD*%
D11*
%TO.C,R8*%
X58710000Y-59700000D03*
X57060000Y-59700000D03*
%TD*%
D28*
%TO.C,Q2*%
X25930000Y-64565000D03*
X25280000Y-64565000D03*
X24630000Y-64565000D03*
X23980000Y-64565000D03*
X23980000Y-70290000D03*
X24630000Y-70290000D03*
X25280000Y-70290000D03*
X25930000Y-70290000D03*
%TD*%
D29*
%TO.C,R32*%
X27230000Y-119370000D03*
X27230000Y-121020000D03*
%TD*%
D30*
%TO.C,C20*%
X25150000Y-82910000D03*
X19750000Y-82910000D03*
%TD*%
D10*
%TO.C,R47*%
X56215000Y-105820000D03*
X57865000Y-105820000D03*
%TD*%
D18*
%TO.C,J8*%
X23910000Y-104610000D03*
X23910000Y-103360000D03*
X23910000Y-102110000D03*
D19*
X20560000Y-106460000D03*
X20560000Y-100260000D03*
%TD*%
D31*
%TO.C,C19*%
X53050000Y-65550000D03*
X53050000Y-64000000D03*
%TD*%
D11*
%TO.C,R22*%
X54735000Y-109320000D03*
X53085000Y-109320000D03*
%TD*%
D32*
%TO.C,R30*%
X27000000Y-130650000D03*
X27000000Y-129000000D03*
%TD*%
D21*
%TO.C,U9*%
X53500000Y-100980000D03*
X54770000Y-100980000D03*
X56040000Y-100980000D03*
X57310000Y-100980000D03*
X57310000Y-96030000D03*
X56040000Y-96030000D03*
X54770000Y-96030000D03*
X53500000Y-96030000D03*
%TD*%
D33*
%TO.C,Q3*%
X34960000Y-160220000D03*
D34*
X41260000Y-162500000D03*
D33*
X34960000Y-164780000D03*
%TD*%
D21*
%TO.C,U7*%
X53595000Y-125725000D03*
X54865000Y-125725000D03*
X56135000Y-125725000D03*
X57405000Y-125725000D03*
X57405000Y-120775000D03*
X56135000Y-120775000D03*
X54865000Y-120775000D03*
X53595000Y-120775000D03*
%TD*%
D11*
%TO.C,R45*%
X54695000Y-105950000D03*
X53045000Y-105950000D03*
%TD*%
D20*
%TO.C,D9*%
X54675000Y-132000000D03*
X57975000Y-132000000D03*
%TD*%
D27*
%TO.C,C4*%
X59080000Y-56865000D03*
X59080000Y-53915000D03*
%TD*%
D20*
%TO.C,D10*%
X54675000Y-128500000D03*
X57975000Y-128500000D03*
%TD*%
D23*
%TO.C,J4*%
X43810000Y-172000000D03*
D24*
X41270000Y-172000000D03*
X38730000Y-172000000D03*
X36190000Y-172000000D03*
%TD*%
D15*
%TO.C,C10*%
X55805000Y-174030000D03*
X57355000Y-174030000D03*
%TD*%
D10*
%TO.C,R44*%
X52995000Y-104220000D03*
X54645000Y-104220000D03*
%TD*%
D17*
%TO.C,C11*%
X57725000Y-156000000D03*
X56175000Y-156000000D03*
%TD*%
D15*
%TO.C,C12*%
X52725000Y-134250000D03*
X54275000Y-134250000D03*
%TD*%
D35*
%TO.C,D4*%
X57975000Y-162500000D03*
X54675000Y-162500000D03*
%TD*%
D36*
%TO.C,C6*%
X47250000Y-62020000D03*
X50200000Y-62020000D03*
%TD*%
D18*
%TO.C,J7*%
X23910000Y-123540000D03*
X23910000Y-122290000D03*
X23910000Y-121040000D03*
X23910000Y-119790000D03*
D19*
X20560000Y-125390000D03*
X20560000Y-117940000D03*
%TD*%
D37*
%TO.C,L1*%
X45610000Y-52200000D03*
X45610000Y-58200000D03*
%TD*%
D38*
%TO.C,U5*%
X45840000Y-157940000D03*
X45840000Y-156670000D03*
X45840000Y-155400000D03*
X45840000Y-154130000D03*
X40890000Y-154130000D03*
X40890000Y-155400000D03*
X40890000Y-156670000D03*
X40890000Y-157940000D03*
%TD*%
D18*
%TO.C,J9*%
X55630000Y-73540000D03*
X55630000Y-72290000D03*
X55630000Y-71040000D03*
D39*
X58830000Y-75390000D03*
X58830000Y-69190000D03*
%TD*%
D37*
%TO.C,L2*%
X30530000Y-51290000D03*
X30530000Y-57290000D03*
%TD*%
D10*
%TO.C,R40*%
X56370000Y-149250000D03*
X58020000Y-149250000D03*
%TD*%
D15*
%TO.C,C16*%
X54125000Y-116070000D03*
X55675000Y-116070000D03*
%TD*%
D11*
%TO.C,R14*%
X28545000Y-78180000D03*
X26895000Y-78180000D03*
%TD*%
D20*
%TO.C,D3*%
X54662000Y-165088000D03*
X57962000Y-165088000D03*
%TD*%
D32*
%TO.C,R31*%
X27290000Y-114355000D03*
X27290000Y-112705000D03*
%TD*%
D40*
%TO.C,U8*%
X26540000Y-42330000D03*
X26540000Y-42980000D03*
X26540000Y-43630000D03*
X26540000Y-44280000D03*
X26540000Y-44930000D03*
X26540000Y-45580000D03*
X26540000Y-46230000D03*
X26540000Y-46880000D03*
X32090000Y-46880000D03*
X32090000Y-46230000D03*
X32090000Y-45580000D03*
X32090000Y-44930000D03*
X32090000Y-44280000D03*
X32090000Y-43630000D03*
X32090000Y-42980000D03*
X32090000Y-42330000D03*
D41*
X29315000Y-44605000D03*
%TD*%
D16*
%TO.C,C9*%
X30020000Y-153090000D03*
X22620000Y-153090000D03*
%TD*%
D42*
%TO.C,U3*%
X37490000Y-56060000D03*
X38440000Y-56060000D03*
X39390000Y-56060000D03*
X39390000Y-53785000D03*
X38440000Y-53785000D03*
X37490000Y-53785000D03*
%TD*%
D10*
%TO.C,R21*%
X54245000Y-107570000D03*
X55895000Y-107570000D03*
%TD*%
D32*
%TO.C,R42*%
X51900000Y-120325000D03*
X51900000Y-118675000D03*
%TD*%
D23*
%TO.C,J2*%
X57070000Y-42300000D03*
D24*
X59610000Y-42300000D03*
%TD*%
D43*
%TO.C,BT1*%
X32100000Y-78000000D03*
D44*
X40000000Y-78275000D03*
X40000000Y-149725000D03*
%TD*%
D23*
%TO.C,J3*%
X41230000Y-42300000D03*
D24*
X38690000Y-42300000D03*
%TD*%
D23*
%TO.C,J1*%
X22820000Y-42300000D03*
D24*
X20280000Y-42300000D03*
%TD*%
M02*
